<?xml version="1.0" encoding="UTF-8"?>
<svg id="Layer_2" data-name="Layer 2" xmlns="http://www.w3.org/2000/svg" viewBox="0 0 487.94 87.83">
  <defs>
    <style>
      .cls-1 {
        fill: #0066b2;
      }
    </style>
  </defs>
  <g id="Layer_1-2" data-name="Layer 1">
    <g>
      <path class="cls-1" d="M487.94,87.3l-19.35-.14-39.35-58.5-.08,58.63-19.81-.02V.81s20.75-.03,20.75-.03c1.66,0,5.36,1.18,6.54,2.43l31.4,46.79.07-49.22h19.81s.01,86.51.01,86.51Z"/>
      <path class="cls-1" d="M191.57.37c-24.16,0-43.75,19.48-43.75,43.51s19.59,43.51,43.75,43.51,43.76-19.48,43.76-43.51S215.74.37,191.57.37ZM191.56,67.21c-12.93,0-23.41-10.42-23.41-23.28s10.48-23.28,23.41-23.28,23.41,10.43,23.41,23.28-10.48,23.28-23.41,23.28Z"/>
      <path class="cls-1" d="M288.06,37.98h32.82s-.04,37.66-.04,37.66c-7.28,8.13-17.5,11.61-28.18,11.84-11.52,1.6-24-2.32-32.87-10.05-18.82-16.42-20.38-45.03-3.58-63.55,18.25-20.11,48.71-17.92,66.42,3.67l-7.44,7.15c-4.24,4.07-11.41,2.19-15.9-.86-4.01-2.72-8.61-3.92-13.68-3.34-12.05,1.39-21.56,11.95-21.1,24.26.22,5.97,3.2,12.13,7.34,15.9,8.24,7.48,18.85,8.82,28.91,4.14l.11-7.47c-6.45-.06-12.52-3.48-12.63-9.55l-.18-9.81Z"/>
      <path class="cls-1" d="M53.87.84l-17.14-.09L0,86.91c9.08,1.09,21.13.91,24.31-6.14l4.94-10.99,32.51.1,2.34,6.38c4.58,12.48,13.4,11.24,26.6,10.92L53.87.84ZM36.97,51.66l8.19-20.47,8.33,20.33-16.52.14Z"/>
      <polygon class="cls-1" points="357.48 68.32 394.1 68.31 394.09 87.29 337.65 87.29 337.65 .79 394.09 .8 394.1 19.77 357.48 19.76 357.48 34.18 387.24 34.17 387.24 53.13 357.48 53.15 357.48 68.32"/>
      <polygon class="cls-1" points="124.03 19.77 124.04 87.22 104.2 87.3 104.21 19.77 81.31 19.76 81.32 .8 146.92 .8 146.93 19.76 124.03 19.77"/>
    </g>
  </g>
</svg>