<?xml version="1.0" encoding="UTF-8"?>
<svg id="Layer_2" data-name="Layer 2" xmlns="http://www.w3.org/2000/svg" viewBox="0 0 571.55 91.96">
  <defs>
    <style>
      .cls-1 {
        fill: #452f91;
      }

      .cls-2 {
        fill: #57b847;
      }
    </style>
  </defs>
  <g id="Layer_1-2" data-name="Layer 1">
    <g>
      <path class="cls-1" d="M548.61,58.53c15.69-11.58,17.82-33.71,5.08-47.76-5.44-6.34-12.53-9.62-20.94-9.59l-36.29.1v89.69s20.6.03,20.6.03v-27.25l9.96-.12,16.88,23.14c1.68,2.3,5.62,4.16,8.42,4.11l19.24-.34-22.94-32.01ZM540.68,32c-.15,3.56-2.03,9.72-6.64,9.84l-16.97.41v-19.54l17.2.48c4.21.12,6.57,5.28,6.41,8.81Z"/>
      <path class="cls-1" d="M485.04,72.88c-2.76,7.8-10.28,14.12-19.06,17.13-18.21,6.27-37.17-3.12-43.15-21.15,1.76-.61,3.05-1.11,4.2-2.04,5.95-4.78,13.87-4.29,19.69.44,5.27,4.29,11.73,4.14,16.72-.38,1.52-1.38,2.79-2.7,2.74-4.68-.03-1.7-1.29-4.15-3.5-5.03l-17.39-6.95c-6.35-2.53-12.23-6.86-15.07-13.19-4.54-10.13-2.59-22.24,5.7-29.54,14.67-12.92,35.68-8.42,47.05,8.06-6.2,8.29-14.36,12.05-22.5,6.86-2.62-1.67-11.13-1.39-11.24,3.7-.05,2.15,1.09,3.4,3.38,4.19l16.72,5.82c5.05,1.75,9.13,5.56,12.95,10.24,5.93,7.25,5.92,17.62,2.76,26.52Z"/>
      <path class="cls-2" d="M294.48,78.11l-14.69.18-.32-40.15-14.64,40.08-13.66.03-14.34-38.13-.26,38.18-15.67-.02V13.01s17.22.32,17.22.32c4.28.08,7.34,3.19,8.66,7.12l10.95,32.42,12.55-35.66c1.09-3.08,5.94-3.3,8.58-4.08l15.6-.11v65.09Z"/>
      <g>
        <polygon class="cls-2" points="380.73 27.63 380.78 78.13 366.03 78.27 366.04 27.63 348.4 27.59 348.44 12.96 398.35 12.96 398.39 27.59 380.73 27.63"/>
        <polygon class="cls-2" points="320.01 63.7 347.38 63.69 347.36 78.34 304.25 78.33 304.25 12.96 347.36 12.95 347.38 27.6 320.01 27.59 320 38.33 342.48 38.33 342.52 52.94 320 52.97 320.01 63.7"/>
      </g>
      <path class="cls-2" d="M214.57,41.32c-2.72-18.51-18.36-30.58-36.95-28.35-11.09,1.33-20.79,9.13-24.93,17.93-5.27,11.24-4.41,22.68,1.57,32.73l-24.56.06V13.01s-15.7.01-15.7.01v65.31h40.19s.34-13.83.34-13.83c7.7,11.4,21.6,17.06,35.11,13.88,16.15-3.8,27.38-20.21,24.92-37.05ZM196.3,55.34c-3.77,4.8-9.44,8.71-15.19,8.13-10.93-1.13-17.73-10.61-16-20.68,1.63-9.48,12.04-16.71,21.62-13.59,5.61,1.82,9.27,5.57,10.98,9.63,2.4,5.7,2.58,11.45-1.41,16.52Z"/>
      <g>
        <polygon class="cls-2" points="79.75 63.7 107.13 63.69 107.12 78.34 64.98 78.33 64.98 12.96 107.12 12.95 107.13 27.6 79.75 27.59 79.75 38.33 102.24 38.33 102.27 52.94 79.75 52.97 79.75 63.7"/>
        <path class="cls-2" d="M58.82,66.55c-7.88,7.91-17.2,13.29-28.07,12.65C14.13,78.21,1.45,65.32.13,49.21c-1.25-15.07,6.53-28.53,19.76-33.97,14.02-5.76,29.4-1.32,39.07,11l-4.97,4.96c-3.74,3.72-8.92,2.49-12.98-.22-4.99-3.32-10.88-3.26-16.36-.38-4.03,2.11-8,6.48-9.14,12.43-1.87,9.78,5.91,19.49,16.52,20.53,2.92.29,5.39-1.2,7.52-1.69,3.25-3.14,6.8-3.72,11.77-2.87,2.71,1.07,6.26,3.92,7.49,7.55Z"/>
      </g>
    </g>
  </g>
</svg>