<?xml version="1.0" encoding="UTF-8"?>
<svg id="Layer_2" data-name="Layer 2" xmlns="http://www.w3.org/2000/svg" viewBox="0 0 478.47 76.58">
  <defs>
    <style>
      .cls-1 {
        fill: #f05a22;
      }
    </style>
  </defs>
  <g id="Layer_1-2" data-name="Layer 1">
    <g>
      <path class="cls-1" d="M122.98,70.46c0,1.53.35,3.12.67,4.67h-15.4s.66-3.35.66-3.35l.15-35.59c.01-3.48.97-6.81.38-9.6l-7.16,24.59c-2.34,8.04-4.67,15.33-6.53,23.86l-12.88.1-4.97-18.26-8.8-30.32c-.61,2.71.33,5.49.34,8.06l.15,36.58c0,.92.47,2.8.68,3.93h-15.47l.71-3.38V4.72l-.69-3.41,20.4.06c.45,3.04.71,5.51,1.49,8.12l12.57,42.52,11.21-37.89c1.25-4.26,2.09-8.3,2.71-12.8h20.5l-.68,3.39-.02,65.74Z"/>
      <path class="cls-1" d="M292.14,36.63c8.75-4.08,12.01-12.71,10-21.33-.89-3.83-2.23-7.33-5.71-9.85-2.81-2.03-7.24-4.06-11.01-4.07l-33.47-.08.71,4.71-.1,69.11,32.83-.02c3.66,0,7.72-1.68,10.72-3.02,4.67-3.03,7.06-7.03,8.05-12.3,1.9-10.01-1.58-20.22-12.02-23.13ZM283.08,16.24c2.97.06,4.33,4.07,4.4,6.04.09,2.47-.59,6.66-4.26,7.21-5.15.78-10.6.35-15.89.44v-14s15.74.32,15.74.32ZM281.38,60.5h-14.06v-16.63h15.96c3.42,1.26,5.76,4.19,5.41,8.32.41,4.8-2.91,8.31-7.32,8.31Z"/>
      <path class="cls-1" d="M47.47,59.12v16.73l-3.36-.71-44.08-.02.65-3.53V6.07S0,1.33,0,1.33l42.76-.02,4.04-.75v16.79c-1.3-.13-3.56-.67-4.65-.68l-26.76-.09v13.35s23.94-.03,23.94-.03c1.07,0,3.02-.51,4.12-.71v16.77s-3.49-.71-3.49-.71l-24.53-.06-.04,14.66,28.73-.03,3.35-.7Z"/>
      <polygon class="cls-1" points="359.54 59.12 359.54 75.85 356.19 75.14 312.11 75.12 312.76 71.59 312.76 6.07 312.07 1.33 354.84 1.31 358.88 .57 358.87 17.35 354.22 16.68 327.47 16.58 327.46 29.93 351.42 29.9 355.53 29.18 355.54 45.96 352.04 45.25 327.51 45.18 327.46 59.85 356.19 59.83 359.54 59.12"/>
      <path class="cls-1" d="M402.82,75.04c-8.43,2.56-18.27,2.06-26.05-2.42-7.29-4.19-10.06-12.07-10.92-20.01l15.89-1.69c.26,7.04,4.9,10.54,11.26,10.39,3.91-.09,7.48-1.66,8.48-5.4.83-3.12-.43-8.08-4-9.1l-15.57-4.47c-7.56-2.17-12.07-7.7-13.74-15.07-2.91-12.88,4.86-24.64,18.12-26.79,14.69-2.38,28.28,3.97,30.17,19.98l-15.89,2.26c-.32-5.44-3.55-8.1-8.28-8.22-4.09-.1-7.94,1.88-8.69,6.12-.56,3.12,1.32,6.07,4.48,6.91l14.15,3.79c7.46,1.99,13.23,7.89,14.72,15.28,2.46,12.15-2.22,24.82-14.12,28.43Z"/>
      <path class="cls-1" d="M242.9,62.15L224.14,1.3l-19.33.04-3.46,12.82-18.85,60.98,17.58-.08c.86-6.19,2.21-11.39,3.95-17.22l21.59-.04,3.9,17.31h17.65s-4.26-12.97-4.26-12.97ZM207.6,43.25l7.12-26.23,7.12,26.05-14.23.18Z"/>
      <path class="cls-1" d="M184.04,20.43c-1.06-9.87-7.97-17.89-18.77-18.73-10.57-.82-21.24-.19-32.24-.38l.63,4.05.02,66.38-.7,3.38h16.22s-.18-24.56-.18-24.56l14.54-.23c10.76-.17,18.44-8.32,20.23-18.56.69-3.97.7-7.26.27-11.34ZM162.3,35.01c-4.4.32-8.72.23-13.26.25v-18.67c4.78.03,9.27-.07,13.98.27,3.58.25,5.8,5.07,5.4,8.7.35,4.38-1.88,9.15-6.12,9.46Z"/>
      <polygon class="cls-1" points="478.47 17.46 457.77 17.25 457.92 64.16 458.49 75.13 441.68 75.12 442.4 71.76 442.42 17.28 422.36 17.28 422.37 .57 425.9 1.31 473.74 1.32 478.47 .5 478.47 17.46"/>
    </g>
  </g>
</svg>