<?xml version="1.0" encoding="UTF-8"?>
<svg id="Layer_2" data-name="Layer 2" xmlns="http://www.w3.org/2000/svg" viewBox="0 0 407.78 76.1">
  <defs>
    <style>
      .cls-1 {
        fill: #ce6628;
      }
    </style>
  </defs>
  <g id="Layer_1-2" data-name="Layer 1">
    <g>
      <path class="cls-1" d="M407.78,1.31l-.02,72.29-14.56.06c-.7,0-1.79.33-2.08,0-.42-.48-.8-1.3-1.06-2.04l-12.89-36.93-1.78-5.6c-.08-.27-.81-.67-1.05-.73-.32-.07-.44.83-.43,1.23l.07,6.03-.1,37.86c-.22.48-1.65.22-2.16.22l-11.53-.1V1.38s9.66.06,9.66.06h5.95c.74,0,1.85-.02,2.19.95l15.3,43.13c1.05-15.34.06-29.2.56-44.08l13.93-.13Z"/>
      <path class="cls-1" d="M147.08,73.56l-7.68.16c-2.95.06-5.63.35-8.76.14l-15.18-43.86c-.44-1.28-.58-1.92-1.5-2.9-.36,1.37-.39,2.07-.27,3.2.36,3.56,0,6.98-.02,10.59l-.16,32.56c-.93.32-1.68.3-2.54.28l-10.33-.22V1.67c2.02-.69,4.04-.26,6.07-.24l10.83.12,14.03,40.26,1.69,5.24c1.19-.84.73-1.55.74-2.67l.19-42.82c3.07-.5,6.11-.2,9.22-.11,1.27.04,2.39-.07,3.66.27v71.84Z"/>
      <path class="cls-1" d="M248.65,14.67c-.79-3.79-2.98-7.21-5.89-9.72C238.34,1.15,232.65-.07,226.89,0c-8.91.13-16.53,2.41-20.87,10.46-1.64,4.77-2.68,9.61-3.19,14.76-1.19,11.9-1.18,27.05,2.74,38.06,1.6,4.51,4.77,8.12,9.15,10.12,12.26,5.6,28.4,2.34,32.94-9.89,4.83-13.02,3.93-34.75,1.01-48.85ZM235.35,53.76c-.36,3.03-1.25,6.16-3.63,8.58-2.87,2.9-8.38,2.5-10.78-.75-2.29-3.11-3.23-7.03-3.4-10.94-.36-8.31-.32-16.49-.02-24.79.23-6.3,2.74-14.69,9.01-14.72,2.18,0,5.22,1.65,6.32,3.61,1.94,3.42,2.96,7.4,2.98,11.36l.11,22.7-.59,4.96Z"/>
      <path class="cls-1" d="M304.84,34.74v38.85s-8.25.2-8.25.2c-.66.02-1.72.18-2.12-.13-1.16-.91.09-3.31-1.21-4.19l-3.01,2.77c-6.61,6.08-22.99,5.66-28.61-6.3-2.06-4.39-2.79-9.01-3.09-13.76l-.4-6.41-.47-9.75.44-8.31c.32-6.15,1.6-12.14,4.23-17.64,2.46-5.15,7-8.52,12.62-9.48,4.85-.83,9.86-.79,14.66.15,10.91,2.14,14.58,11.65,14.34,22.51l-13.75.04c-.9-4.74-3.17-11.71-7.5-11.93-2.24-.12-5.27,1.36-6.39,3.33-5.4,9.5-4.07,28.67-2.3,40.05.79,5.09,3.61,9.84,8.46,9.52,5.86-.38,9.53-11.36,8.53-18.57l-10.26-.14v-10.79s24.07-.03,24.07-.03Z"/>
      <path class="cls-1" d="M77.47,1.32c-4.1-.08-7.82-.07-11.72.05l-6.57.2-18.46,71.95,12.84.16,2.57.31,3.59-15.41,7,.12,10.86.21,2.73,14.7c2.01.54,3.94.26,6.06.12,3.15-.2,6.38-.06,9.76-.02L77.47,1.32ZM61.83,46.79l5.79-26.78c.2-.91-.29-1.97,1.25-2.04l5.93,28.69-12.97.14Z"/>
      <path class="cls-1" d="M353.71,64.13l-.08,7.41c0,.62.13,1.52-.07,1.92-.24.47-1.57.52-2.2.18l-36.09-.02-1.14.29c-.3.08-.67-.79-.67-1.21V1.26s39.27.06,39.27.06v12.77s-24.33.04-24.33.04l-.03,16.58,23.16.08.06,11.68h-23.18s-.04,19.48-.04,19.48h23.94c.41.08,1.19.26,1.31.55.16.35.12,1.05.12,1.63Z"/>
      <path class="cls-1" d="M29.99,1.71l-27.05-.21c-1.03,0-2.07-.39-2.94.22v71.83s12.69.16,12.69.16c.57,0,2.15.15,2.15-.52l.07-27.56c11.96.16,23.13-.15,27.79-11.77,5.59-13.94-.81-32.07-12.7-32.16ZM23.65,33.38c-1.84.26-3.83.21-5.56.36-1.16.1-2.12.1-3.23-.18l.02-20.42,9.06.3c1.39.05,2.92,1.04,3.61,2.17,3.93,6.44,2.47,16.87-3.9,17.77Z"/>
      <path class="cls-1" d="M198.12,14.06l-15.34.1-.02,59.39-12.92.16c-.58,0-1.28.16-1.59-.06-.31-.23-.52-1.17-.52-1.72V14.15l-15.14-.09-.07-11.27c0-.71.85-1.55,1.68-1.55l41.91.04c.49,0,1.21.11,1.49.28.35.22.54,1.19.49,1.65-.38,3.72-.28,6.92.02,10.85Z"/>
    </g>
  </g>
</svg>