<?xml version="1.0" encoding="UTF-8"?>
<svg id="Layer_2" data-name="Layer 2" xmlns="http://www.w3.org/2000/svg" viewBox="0 0 671.59 80.06">
  <defs>
    <style>
      .cls-1 {
        fill: #ef6623;
      }
    </style>
  </defs>
  <g id="Layer_1-2" data-name="Layer 1">
    <g>
      <path class="cls-1" d="M461.65,77.53h-23.09c-1.87,0-3.31-1.04-3.57-2.74-.67-4.48,5.39-2.98,7.47-5.46,2.35-2.79,1.66-11.46,1.51-16.92l-.22-7.64c-.04-1.42-1.31-2.23-2.8-2.22l-30.1.1c-2.67,0-2.03,2.77-2.01,3.98l.27,21.47c.02,1.8,3.46,3.5,4.99,3.44,1.4-.05,2.64.9,3.26,1.91.46.74-.14,2.82-1.03,3.39l-27.07.2c-1.52.01-3.59.72-5.03.17-1.45-.55-2.44-2.21-2.24-3.56.17-1.12,1.87-2.15,3.23-2.42l5.49-1.05.42-11.13.24-47.16c-3.11-4.2-8.84-.8-9.33-5.21-.17-1.54,1.18-3.22,2.99-3.22l29.66.02c1.18,0,2.78,1.76,2.97,2.79.8,4.28-8.43,1.83-9.24,8.32-.8,5.37-.84,10.23.06,15.79-.54,1.02.13,4.96,1.82,4.96l30.61.15c1.59,0,2.78-1.38,2.83-2.79l.19-4.73c.31-8.32,1.71-18.96-6.03-18.62-.9.04-2.42-.95-2.74-1.73-.37-.9-.1-2.81.68-3.52l25.34-.17,5.97-.44c1.21-.09,3.22,2.23,2.84,3.35-1.48,4.43-6.7,2.09-9.22,5.02v57.53s6.94,2.25,6.94,2.25c.88.29,2.34,1.21,2.49,2,.46,2.44-3.95,3.89-8.57,3.89Z"/>
      <path class="cls-1" d="M242.07,73.67c-.49-2.1-4.49-2.78-9.71-8.23-3.88-4.05-7.35-8.08-10.66-12.6l-4.95-6.75c-.53-.72-1.72-1.88-1.67-2.64.06-.76,1.32-1.97,2.08-2.28,8.08-3.26,13.09-10.46,13.3-18.96.12-4.78-.98-8.38-4.35-11.74-8.51-8.48-21.31-6.83-31.94-6.62l-5.27.1-23.12.17c-.84.7-1.3,2.5-.83,3.21,2.17,3.25,5.88,1.43,8.78,5.14v54.97c0,1.09-1.5,2.51-2.35,2.76l-4.68,1.38c-.97.29-2.27,2.18-1.98,3.1.37,1.17,1.94,2.34,3.15,2.33,5.68-.06,10.73.09,16.17.2l11.33.23c1.05.02,2.6-2.22,2.54-3.24-.19-3.31-4.87-2.86-7.06-5.62l-.2-12.7-.27-5c-.08-1.5-.19-3.77.6-4.81.64-.85,3.17-1.54,4.21-1.11,2.35.95,3.87,2.74,5.39,4.8l6.84,9.24,11.5,15.21c1.71,2.26,3.17,3.18,6.15,3.44,5.06.43,10.08.99,14.92-.91.91-.35,2.3-2.2,2.09-3.07ZM209.3,34.33c-3.71,3.7-13.93,6.98-19.12,3.76l.03-26.89c2.61-2.89,9.07-2.1,13.82-.67,4.96,1.5,9.14,5.06,9.8,10.52.56,4.71-.78,9.53-4.53,13.28Z"/>
      <path class="cls-1" d="M155.93,65.11l-.17,11.07c-.03,2.38-3.04,1.39-4.2,1.39l-56.89-.06c-1.23,0-2.68-.65-3.18-1.34-.5-.69-.66-3.13.05-3.57,3.56-2.23,7.16-1.87,8.33-3.73.7-1.11.65-3.17.03-4.5l-.03-47.38.63-3.5c-3.14-5.35-7.72-3.42-9.42-6.33-.36-.62.21-2.81.92-3l12.42-.32c3.34-.09,6.34-.43,9.46.04l2.39-.38,36.45-.02.49,6.68c.11,1.45-.21,3.74-.44,5.72-.19,1.63-3.03,2.09-4.8,1.72-3.82-.8-2.1-7.65-8.76-8.01-4.46-.23-9.11-.39-13.68-.02l-7,.55c-.79,1.17-1.04,3.33-1.19,5.05-.87,9.65-1.85,21.38,7.5,21.52,6.05.09,10.21-3.04,14.5-6.71,2.48-.86,5.24,3.02,4.8,5.55-.62,3.54-.66,6.5-.08,10.09.26,1.6-2.68,3.45-4.14,2.46-4.67-3.16-9.28-5.91-14.95-6.15-9.2-.38-8.75,10.73-7.71,20.99.26,2.56.59,4.96,1.4,7.27l5.72.37c6.26.4,12.34.62,18.57-.06,5.71-.63,3.6-4.87,5.8-7.46.85-1,4.28-1.26,6.23-.3.55.27.98,1.76.97,2.4Z"/>
      <path class="cls-1" d="M578.79,68.13c-3.91,5.87-10.59,8.5-17.35,10.09-5.38,1.27-10.72,2.43-16.69,1.5l-16.25-2.51c-.68-.1-2.29-1.01-2.29-1.68v-2.88s.42-11.19.42-11.19c1.89-1.7,6.52-1.48,7.65.44.61,4.27,1.99,7.52,6.07,9.35,8.13,3.65,18.44,3.17,23.84-4.25,2.62-3.6,2.58-8-.27-11.5-7.5-9.23-23.09-12.21-33.82-23.1-5.61-5.7-5.08-17.45,1.52-23.61,3.03-2.83,6.44-4.27,10.24-5.6l6.83-2.4c4.26-1.5,9.31-.39,13.88-.42,3.61,1.8,7.23,2.51,11.16,2.95,2.43.26,4.17,1.73,4.11,4.31l-.22,9.78c-1.12,1.75-5.44,1.74-7.83.83-.68-.26-.97-2-1.02-2.87-2.36-5.81-8.17-8.5-14.39-7.71-4.63-.18-8.97,2.65-11.37,6.47-2.55,4.07-1.67,8.73,2.49,11.16l27.07,15.85c9.59,5.61,12.35,17.81,6.23,26.99Z"/>
      <path class="cls-1" d="M83.57,6.87c-1.21,2.47-4.25,4.41-6.62,5.71l-7.45,16.46-9.64,21.72-9.96,22.53c-.88,2.01-2.06,3.78-3.6,5.19-4.81,1.29-8.75-1.25-9.63-6.02l-16.6-35.65L9.02,12.8c-.97-2.12-4.47-4.11-6.43-4.77l-2.34-.79c-.51-.17-.17-2.31.31-2.4,1.41-.15,4.36-1.15,6.02-1.16l25.77-.17c1.11,0,2.82,1.73,2.87,2.72.17,3.63-4.95,2.72-7.31,4.38-1.55,1.09-.36,3.04.18,4.14l4.26,8.67,13.53,28.32c.48,1,1.01,1.97,1.92,1.98,1.71.01,2.74-4.25,5.15-9.22l6.48-13.33,7.43-15.82c.45-.97,2.29-2.94,1.36-4-1.25-1.41-3.45-1.89-5.41-2.18-1.2-.17-3.11-2.04-2.55-3.21,1.04-2.16,3.77-2.36,5.8-2.62,6.56-.81,16.54-1.11,17.51,3.53Z"/>
      <path class="cls-1" d="M669.71,16.99c-.86,1.48-2.86,2.62-4.14,2.11-2.06-.82-2.4-2.27-2.58-4.5-.19-2.28-3.22-4.46-5.64-4.49l-12.22-.15c-1.74-.02-3.77.65-5.63,1.51v57.7c2.94,3.11,7.94,1.21,9.28,3.99,1.16,2.41-3.19,4.33-7.59,4.34l-24.23.03c-2.18,0-4.35-1.9-3.51-4.03,1.29-3.26,8.95-1.64,8.96-6.07l.04-53.95c0-1.92-1.57-3.49-3.4-3.49l-12.82.06-4.27.88c-3.51.73-.54,4.75-3.78,7.6-1.75,1.52-5.48.06-6.55-1.37-.45-.61-.17-2.19-.15-3.15l.33-10.54h77.2c3.44,3.91,3.25,9.1.72,13.53Z"/>
      <path class="cls-1" d="M329.06,14.9c.09,2.32-1.42,4.09-3.76,4.31-2.08.2-4.17-1.72-4.26-4.11-.09-2.39-1.83-4.55-4.49-4.82-5.77-.6-15.63-.98-18.7,2.14v56.25c0,1.34,2.82,2.4,3.93,2.32,2.18-.16,4.11.77,5.21,2.69.46.81-.7,2.82-1.63,3.25h-28.77c-2.16.98-4.2.13-4.57-1.58-1.17-5.39,5.97-3.17,8.78-6.84V11.88c-.92-.94-2.79-1.91-3.92-1.9l-12.82.1c-1.89.02-5.33,1.52-5.59,3.26-.34,2.28-.1,4.23-2.06,5.45-1.59.99-6.26.17-6.65-2.1-.61-3.52-.36-7.15-.36-10.89,0-1.57,1.43-2.33,3-2.33l72.53-.03c.8,0,2.04-.51,2.57-.3.65.26,1.18,1.87,1.2,2.59l.35,9.17Z"/>
      <path class="cls-1" d="M373.05,74.85c.09.58-1.19,1.59-1.79,1.66l-7.12.9-23.72-.02c-1.23,0-2.78-2.19-2.73-3.22.17-3.57,5.93-1.9,8.89-5.68l-.08-56.06c-2.35-4.69-8.37-1.5-8.85-5.72-.16-1.43,1.19-2.81,2.88-2.96l7.45-.63,15-.12,7.81,1.4c.72.13,1.91,1.63,1.7,2.3-.86,2.67-5.84,2.22-8.9,5.69l.07,48.69c0,1.42.39,2.86.08,4.34-.26,1.22.15,3.98,1.28,4.52l6.7,3.19c.45.22,1.26,1.25,1.33,1.72Z"/>
      <path class="cls-1" d="M512.45,76.87l-28.2.23c-2.15.02-3.75.97-4.82-2.09-.45-1.27,1.1-3.18,3.07-3.74l6.1-1.72V11.85c-2.76-3.65-8.45-.97-9.39-5.14-.22-.98,1.45-3.13,2.67-3.12l24.2.05,6.04.37c.69.04,2.08.72,2.44,1.28.44.66.07,2.69-.66,3.1-3.75,2.11-6.8.94-8.23,4.5l-.03,55.63c3,3.39,8.62,1.65,9.4,6.09.14.81-1.67,2.26-2.57,2.26Z"/>
    </g>
  </g>
</svg>