<?xml version="1.0" encoding="UTF-8"?>
<svg id="Layer_2" data-name="Layer 2" xmlns="http://www.w3.org/2000/svg" viewBox="0 0 1753.59 2122.43">
  <defs>
    <style>
      .cls-1 {
        opacity: .29;
      }

      .cls-2 {
        fill: #fff;
      }

      .cls-3 {
        opacity: .08;
      }
    </style>
  </defs>
  <g id="Layer_1-2" data-name="Layer 1">
    <g>
      <g class="cls-3">
        <g class="cls-1">
          <path class="cls-2" d="M1574.53,164.62c1.5,11.81-4.68,22.46-15.56,27.3-8.85,3.95-18.23,4.04-25.9,8.58-4.44,2.62-5.93,7.34-3.97,12.14,1.86,4.48,4.42,9.41,8.03,13.05l32.05,32.34c3.71,3.74,2.95,10.22-.56,13.73l-34.87,35.07c-3.6,3.63-4.16,10.2-2.58,14.59,3.27,9.1,15.43,9.65,23.18,11.39,14.17,3.15,23.34,14.89,22.28,29.44-1.24,16.93-15.19,30.81-32.13,32.15-15.32,1.2-28.13-9.35-29.61-24.59-1.14-11.69-5.56-24.06-17.54-21.95-1.94.34-5.76,1.13-7.35,2.69l-36.69,36.42c-3.25,3.23-8.56,2.09-12.13.53l-35.6-35.6-2.67-6.11c-3.01-6.33-.57-12.94,5.18-16.65,5.42-3.48,11.51-3.51,17.34-4.9,8.05-1.92,15.13-6.03,19.12-13.25,5.31-9.63,4.73-21.03-.7-30.49-6.1-10.61-16.75-17.5-28.88-18.01-14.2-.59-26.34,8.95-28.33,23.12-.76,5.49-1.25,10.86-3.8,15.85-3.48,6.85-10.76,10.1-17.72,6.63l-6.49-3.14-34.93-34.93c-2.52-4.88-1.24-9.8,2.72-13.73l29.22-29.15c3.41-3.41,5.76-7.85,6.97-12.24,1.79-6.45-1.18-12.41-6.97-15.37-4.92-2.5-10.03-3.31-15.45-3.93-14.63-1.67-24.84-14.02-23.98-28.71,1.07-18.32,16.46-33,34.77-32.93,13.05.07,23.36,8.76,26.49,21.08.39,1.53.92,3.08,1.09,4.61.59,5.13,1.67,10.19,4.44,14.55,3.14,4.99,8.48,7.31,14.2,5.76,3.75-1.01,8.28-2.8,11.27-5.76l31.55-31.4c4.08-4.08,10.31-3.74,14.3.23l30.95,30.83c3.24,3.21,8.02,5.11,12.1,6.33,5.58,1.7,10.82-.36,14.28-5.13,6.31-8.68,5.09-22.41,13.17-30.59,7.48-7.58,19.59-10.13,29.56-6.42,11.43,4.25,18.64,14.79,20.15,26.55Z"/>
          <path class="cls-2" d="M1704.09,123.16c3.55,3.55,5.05,10.07,1.1,14.03l-36.24,36.58c-1.93,1.95-2.64,6.14-2.9,8.58-.56,5.41,2.53,9.72,6.99,12.32,5.09,2.98,10.58,3.52,16.33,4.29,13.35,1.76,23,12.37,23.43,26,.55,17.41-12.78,33.04-30.34,35.41-15.84,2.13-29.44-8.28-31.29-23.72-.67-5.59-1.37-10.93-4.15-15.89-3.48-6.17-10.43-8.78-16.92-5.91l-4.09,1.83-35.96,35.99c-4.54,3.74-10.54,3.17-14.62-.93l-31.43-31.55c-2.92-2.92-3.98-8.51-2.43-12.1,2.6-6.02,14.72-6.94,24.22-10.73,10.89-4.37,18.25-13.65,19.54-25.53,1.64-15.34-5.31-31.41-18.64-39.92-8.84-5.62-20-6.8-29.92-4.94-14.32,2.7-22.73,15.28-26.26,29.05-1.59,6.17-3.4,14.34-8.49,15.28-5.2.96-9.45-2.07-12.92-5.59l-26.79-27.08c-3.94-3.99-5.4-10.27-1.01-14.71l31.92-32.19c3.24-3.26,5.06-8.09,5.8-12.25,1.94-10.89-9.51-16.76-20.23-17.37-16.29-.91-28.08-14.25-26.31-30.72,1.75-16.23,14.91-29.44,31.15-31.17,16.51-1.76,29.96,9.97,30.78,26.32.56,11.11,7.06,22.78,18.19,20.09,4.04-.98,8.6-2.9,11.74-5.99l32.38-32.07c3.42-3.4,9.97-2.67,13.23.62l32.8,32.85c2.23,2.23,3.48,6.2,4.38,9.04,2.03,6.42-1.1,12.48-7.06,15.5-4.17,2.11-8.87,3.26-13.65,3.63-14.31,1.07-25.16,12.03-25.56,26.67-.5,18.18,14.22,33.82,32.26,35.2,14.11,1.08,26.07-7.65,29.12-21.19l1.13-5.01c1.1-4.96,1.66-9.93,4.52-14.15,3.15-4.66,8.2-6.99,13.77-5.54,3.32.85,7.73,2.49,10.35,5.08l32.05,31.92Z"/>
        </g>
        <g class="cls-1">
          <path class="cls-2" d="M324.85,893.41c-11.81,1.5-22.46-4.68-27.3-15.56-3.95-8.85-4.04-18.23-8.58-25.9-2.62-4.44-7.34-5.93-12.14-3.97-4.48,1.86-9.41,4.42-13.05,8.03l-32.34,32.05c-3.74,3.71-10.22,2.95-13.73-.56l-35.07-34.87c-3.63-3.6-10.2-4.16-14.59-2.58-9.1,3.27-9.65,15.43-11.39,23.18-3.15,14.17-14.89,23.34-29.44,22.28-16.93-1.24-30.81-15.19-32.15-32.13-1.2-15.32,9.35-28.13,24.59-29.61,11.69-1.14,24.06-5.56,21.95-17.54-.34-1.94-1.13-5.76-2.69-7.35l-36.42-36.69c-3.23-3.25-2.09-8.56-.53-12.13l35.6-35.6,6.11-2.67c6.33-3.01,12.94-.57,16.65,5.18,3.48,5.42,3.51,11.51,4.9,17.34,1.92,8.05,6.03,15.13,13.25,19.12,9.63,5.31,21.03,4.73,30.49-.7,10.61-6.1,17.5-16.75,18.01-28.88.59-14.2-8.95-26.34-23.12-28.33-5.49-.76-10.86-1.25-15.85-3.8-6.85-3.48-10.1-10.76-6.63-17.72l3.14-6.49,34.93-34.93c4.88-2.52,9.8-1.24,13.73,2.72l29.15,29.22c3.41,3.41,7.85,5.76,12.24,6.97,6.45,1.79,12.41-1.18,15.37-6.97,2.5-4.92,3.31-10.03,3.93-15.45,1.67-14.63,14.02-24.84,28.71-23.98,18.32,1.07,33,16.46,32.93,34.77-.07,13.05-8.76,23.36-21.08,26.49-1.53.39-3.08.92-4.61,1.09-5.13.59-10.19,1.67-14.55,4.44-4.99,3.14-7.31,8.48-5.76,14.2,1.01,3.75,2.8,8.28,5.76,11.27l31.4,31.55c4.08,4.08,3.74,10.31-.23,14.3l-30.83,30.95c-3.21,3.24-5.11,8.02-6.33,12.1-1.7,5.58.36,10.82,5.13,14.28,8.68,6.31,22.41,5.09,30.59,13.17,7.58,7.48,10.13,19.59,6.42,29.56-4.25,11.43-14.79,18.64-26.55,20.15Z"/>
          <path class="cls-2" d="M366.3,1022.98c-3.55,3.55-10.07,5.05-14.03,1.1l-36.58-36.24c-1.95-1.93-6.14-2.64-8.58-2.9-5.41-.56-9.72,2.53-12.32,6.99-2.98,5.09-3.52,10.58-4.29,16.33-1.76,13.35-12.37,23-26,23.43-17.41.55-33.04-12.78-35.41-30.34-2.13-15.84,8.28-29.44,23.72-31.29,5.59-.67,10.93-1.37,15.89-4.15,6.17-3.48,8.78-10.43,5.91-16.92l-1.83-4.09-35.99-35.96c-3.74-4.54-3.17-10.54.93-14.62l31.55-31.43c2.92-2.92,8.51-3.98,12.1-2.43,6.02,2.6,6.94,14.72,10.73,24.22,4.37,10.89,13.65,18.25,25.53,19.54,15.34,1.64,31.41-5.31,39.92-18.64,5.62-8.84,6.8-20,4.94-29.92-2.7-14.32-15.28-22.73-29.05-26.26-6.17-1.59-14.34-3.4-15.28-8.49-.96-5.2,2.07-9.45,5.59-12.92l27.08-26.79c3.99-3.94,10.27-5.4,14.71-1.01l32.19,31.92c3.26,3.24,8.09,5.06,12.25,5.8,10.89,1.94,16.76-9.51,17.37-20.23.91-16.29,14.25-28.08,30.72-26.31,16.23,1.75,29.44,14.91,31.17,31.15,1.76,16.51-9.97,29.96-26.32,30.78-11.11.56-22.78,7.06-20.09,18.19.98,4.04,2.9,8.6,5.99,11.74l32.07,32.38c3.4,3.42,2.67,9.97-.62,13.23l-32.85,32.8c-2.23,2.23-6.2,3.48-9.04,4.38-6.42,2.03-12.48-1.1-15.5-7.06-2.11-4.17-3.26-8.87-3.63-13.65-1.07-14.31-12.03-25.16-26.67-25.56-18.18-.5-33.82,14.22-35.2,32.26-1.08,14.11,7.65,26.07,21.19,29.12l5.01,1.13c4.96,1.1,9.93,1.66,14.15,4.52,4.66,3.15,6.99,8.2,5.54,13.77-.85,3.32-2.49,7.73-5.08,10.35l-31.92,32.05Z"/>
        </g>
        <g class="cls-1">
          <path class="cls-2" d="M495.54,370.58c-2.67.34-5.08-1.06-6.17-3.52-.89-2-.91-4.12-1.94-5.85-.59-1-1.66-1.34-2.74-.9-1.01.42-2.13,1-2.95,1.82l-7.31,7.24c-.84.84-2.31.67-3.1-.13l-7.93-7.88c-.82-.81-2.31-.94-3.3-.58-2.06.74-2.18,3.49-2.57,5.24-.71,3.2-3.37,5.28-6.65,5.04-3.83-.28-6.96-3.43-7.27-7.26-.27-3.46,2.11-6.36,5.56-6.69,2.64-.26,5.44-1.26,4.96-3.96-.08-.44-.26-1.3-.61-1.66l-8.23-8.29c-.73-.73-.47-1.94-.12-2.74l8.05-8.05,1.38-.6c1.43-.68,2.93-.13,3.76,1.17.79,1.23.79,2.6,1.11,3.92.43,1.82,1.36,3.42,2.99,4.32,2.18,1.2,4.75,1.07,6.89-.16,2.4-1.38,3.96-3.79,4.07-6.53.13-3.21-2.02-5.96-5.23-6.41-1.24-.17-2.45-.28-3.58-.86-1.55-.79-2.28-2.43-1.5-4.01l.71-1.47,7.9-7.9c1.1-.57,2.22-.28,3.1.61l6.59,6.61c.77.77,1.77,1.3,2.77,1.58,1.46.41,2.81-.27,3.47-1.58.56-1.11.75-2.27.89-3.49.38-3.31,3.17-5.62,6.49-5.42,4.14.24,7.46,3.72,7.44,7.86-.02,2.95-1.98,5.28-4.77,5.99-.35.09-.7.21-1.04.25-1.16.13-2.3.38-3.29,1-1.13.71-1.65,1.92-1.3,3.21.23.85.63,1.87,1.3,2.55l7.1,7.13c.92.92.84,2.33-.05,3.23l-6.97,7c-.73.73-1.15,1.81-1.43,2.74-.38,1.26.08,2.45,1.16,3.23,1.96,1.43,5.07,1.15,6.92,2.98,1.71,1.69,2.29,4.43,1.45,6.68-.96,2.58-3.34,4.21-6,4.55Z"/>
          <path class="cls-2" d="M504.92,399.87c-.8.8-2.28,1.14-3.17.25l-8.27-8.19c-.44-.44-1.39-.6-1.94-.66-1.22-.13-2.2.57-2.79,1.58-.67,1.15-.8,2.39-.97,3.69-.4,3.02-2.8,5.2-5.88,5.3-3.93.12-7.47-2.89-8-6.86-.48-3.58,1.87-6.65,5.36-7.07,1.26-.15,2.47-.31,3.59-.94,1.4-.79,1.99-2.36,1.34-3.83l-.41-.92-8.14-8.13c-.84-1.03-.72-2.38.21-3.3l7.13-7.1c.66-.66,1.92-.9,2.74-.55,1.36.59,1.57,3.33,2.43,5.48.99,2.46,3.08,4.13,5.77,4.42,3.47.37,7.1-1.2,9.02-4.21,1.27-2,1.54-4.52,1.12-6.76-.61-3.24-3.45-5.14-6.57-5.94-1.4-.36-3.24-.77-3.45-1.92-.22-1.18.47-2.14,1.26-2.92l6.12-6.06c.9-.89,2.32-1.22,3.33-.23l7.28,7.22c.74.73,1.83,1.14,2.77,1.31,2.46.44,3.79-2.15,3.93-4.57.21-3.68,3.22-6.35,6.95-5.95,3.67.39,6.65,3.37,7.05,7.04.4,3.73-2.25,6.77-5.95,6.96-2.51.13-5.15,1.6-4.54,4.11.22.91.66,1.94,1.35,2.65l7.25,7.32c.77.77.6,2.25-.14,2.99l-7.43,7.41c-.5.5-1.4.79-2.04.99-1.45.46-2.82-.25-3.5-1.6-.48-.94-.74-2-.82-3.08-.24-3.24-2.72-5.69-6.03-5.78-4.11-.11-7.64,3.21-7.96,7.29-.24,3.19,1.73,5.89,4.79,6.58l1.13.26c1.12.25,2.25.38,3.2,1.02,1.05.71,1.58,1.85,1.25,3.11-.19.75-.56,1.75-1.15,2.34l-7.22,7.24Z"/>
        </g>
        <g class="cls-1">
          <path class="cls-2" d="M1385.78,766.38c4.3-1.48,8.76.02,11.41,3.71,2.16,3.01,2.92,6.5,5.21,9.02,1.32,1.46,3.2,1.65,4.85.55,1.53-1.04,3.18-2.38,4.26-4.01l9.62-14.48c1.11-1.68,3.6-1.89,5.18-.85l15.81,10.33c1.63,1.07,4.14.77,5.66-.16,3.15-1.93,2.42-6.52,2.47-9.55.08-5.54,3.77-9.88,9.29-10.61,6.43-.85,12.69,3.3,14.51,9.53,1.63,5.64-1.32,11.24-6.91,12.97-4.28,1.33-8.57,3.94-6.85,8.25.28.7.87,2.07,1.57,2.54l16.46,10.91c1.46.97,1.44,3.04,1.14,4.49l-10.56,16.06-2.08,1.47c-2.14,1.61-4.8,1.21-6.63-.65-1.72-1.76-2.2-4.03-3.17-6.11-1.34-2.86-3.42-5.19-6.43-6.12-4.01-1.24-8.23-.14-11.35,2.62-3.5,3.1-5.25,7.62-4.5,12.19.88,5.36,5.38,9.16,10.83,8.81,2.11-.14,4.16-.37,6.22.19,2.83.77,4.61,3.24,3.85,6.11l-.67,2.67-10.36,15.76c-1.63,1.32-3.57,1.22-5.34.04l-13.16-8.67c-1.54-1.01-3.38-1.55-5.12-1.66-2.55-.17-4.55,1.4-5.21,3.8-.55,2.03-.46,4.01-.28,6.08.5,5.6-3.32,10.37-8.88,11.19-6.93,1.02-13.61-3.6-15-10.46-.98-4.89,1.47-9.41,5.84-11.53.54-.26,1.08-.58,1.64-.76,1.87-.62,3.68-1.41,5.1-2.78,1.62-1.56,2.08-3.74,1.06-5.76-.67-1.32-1.69-2.88-3.03-3.77l-14.18-9.37c-1.84-1.21-2.19-3.57-1.02-5.37l9.14-13.96c.95-1.46,1.29-3.39,1.43-5.02.2-2.22-.97-4.02-3.02-4.94-3.73-1.69-8.78-.17-12.46-2.56-3.41-2.21-5.3-6.54-4.68-10.56.7-4.6,4.09-8.11,8.37-9.58Z"/>
          <path class="cls-2" d="M1360.27,721.14c1.05-1.6,3.37-2.66,5.16-1.5l16.48,10.73c.88.57,2.5.51,3.43.42,2.07-.21,3.44-1.7,4.07-3.56.72-2.14.5-4.23.34-6.44-.37-5.13,2.85-9.56,7.91-10.77,6.47-1.55,13.34,2.23,15.58,8.61,2.02,5.76-.82,11.65-6.45,13.53-2.04.68-3.98,1.36-5.62,2.78-2.04,1.78-2.48,4.58-.9,6.78l1,1.39,16.24,10.67c1.75,1.41,2,3.7.78,5.54l-9.37,14.19c-.87,1.32-2.88,2.15-4.34,1.84-2.45-.51-3.73-4.97-5.89-8.23-2.47-3.74-6.51-5.77-11.06-5.33-5.86.57-11.34,4.41-13.49,10.06-1.42,3.74-1,8,.47,11.57,2.12,5.15,7.47,7.32,12.89,7.57,2.43.12,5.62.16,6.37,1.99.76,1.87-.05,3.69-1.09,5.26l-8.06,12.11c-1.19,1.78-3.42,2.81-5.42,1.51l-14.5-9.45c-1.47-.96-3.42-1.27-5.03-1.22-4.22.12-5.53,4.85-4.93,8.91.92,6.16-3.16,11.6-9.46,12.21-6.2.6-12.16-3.3-14.06-9.24-1.93-6.04,1.41-11.97,7.46-13.54,4.11-1.07,7.97-4.4,6.11-8.36-.68-1.43-1.75-2.99-3.15-3.93l-14.49-9.63c-1.53-1.02-1.77-3.52-.79-5l9.75-14.8c.66-1.01,2.05-1.78,3.04-2.34,2.24-1.25,4.75-.55,6.34,1.44,1.11,1.4,1.91,3.06,2.41,4.82,1.5,5.27,6.44,8.48,11.95,7.5,6.84-1.22,11.55-7.93,10.67-14.78-.69-5.36-4.88-9.16-10.17-9.25l-1.96-.03c-1.94-.03-3.84.15-5.64-.6-1.99-.82-3.25-2.53-3.14-4.72.06-1.31.33-3.08,1.1-4.26l9.46-14.45Z"/>
        </g>
        <g class="cls-1">
          <path class="cls-2" d="M889.28,127.89c-.34-2.67,1.06-5.08,3.52-6.17,2-.89,4.12-.91,5.85-1.94,1-.59,1.34-1.66.9-2.74-.42-1.01-1-2.13-1.82-2.95l-7.24-7.31c-.84-.84-.67-2.31.13-3.1l7.88-7.93c.81-.82.94-2.31.58-3.3-.74-2.06-3.49-2.18-5.24-2.57-3.2-.71-5.28-3.37-5.04-6.65.28-3.83,3.43-6.96,7.26-7.27,3.46-.27,6.36,2.11,6.69,5.56.26,2.64,1.26,5.44,3.96,4.96.44-.08,1.3-.26,1.66-.61l8.29-8.23c.73-.73,1.94-.47,2.74-.12l8.05,8.05.6,1.38c.68,1.43.13,2.93-1.17,3.76-1.23.79-2.6.79-3.92,1.11-1.82.43-3.42,1.36-4.32,2.99-1.2,2.18-1.07,4.75.16,6.89,1.38,2.4,3.79,3.96,6.53,4.07,3.21.13,5.96-2.02,6.41-5.23.17-1.24.28-2.45.86-3.58.79-1.55,2.43-2.28,4.01-1.5l1.47.71,7.9,7.9c.57,1.1.28,2.22-.61,3.1l-6.61,6.59c-.77.77-1.3,1.77-1.58,2.77-.41,1.46.27,2.81,1.58,3.47,1.11.56,2.27.75,3.49.89,3.31.38,5.62,3.17,5.42,6.49-.24,4.14-3.72,7.46-7.86,7.44-2.95-.02-5.28-1.98-5.99-4.77-.09-.35-.21-.7-.25-1.04-.13-1.16-.38-2.3-1-3.29-.71-1.13-1.92-1.65-3.21-1.3-.85.23-1.87.63-2.55,1.3l-7.13,7.1c-.92.92-2.33.84-3.23-.05l-7-6.97c-.73-.73-1.81-1.15-2.74-1.43-1.26-.38-2.45.08-3.23,1.16-1.43,1.96-1.15,5.07-2.98,6.92-1.69,1.71-4.43,2.29-6.68,1.45-2.58-.96-4.21-3.34-4.55-6Z"/>
          <path class="cls-2" d="M859.99,137.26c-.8-.8-1.14-2.28-.25-3.17l8.19-8.27c.44-.44.6-1.39.66-1.94.13-1.22-.57-2.2-1.58-2.79-1.15-.67-2.39-.8-3.69-.97-3.02-.4-5.2-2.8-5.3-5.88-.12-3.93,2.89-7.47,6.86-8,3.58-.48,6.65,1.87,7.07,5.36.15,1.26.31,2.47.94,3.59.79,1.4,2.36,1.99,3.83,1.34l.92-.41,8.13-8.14c1.03-.84,2.38-.72,3.3.21l7.1,7.13c.66.66.9,1.92.55,2.74-.59,1.36-3.33,1.57-5.48,2.43-2.46.99-4.13,3.08-4.42,5.77-.37,3.47,1.2,7.1,4.21,9.02,2,1.27,4.52,1.54,6.76,1.12,3.24-.61,5.14-3.45,5.94-6.57.36-1.4.77-3.24,1.92-3.45,1.18-.22,2.14.47,2.92,1.26l6.06,6.12c.89.9,1.22,2.32.23,3.33l-7.22,7.28c-.73.74-1.14,1.83-1.31,2.77-.44,2.46,2.15,3.79,4.57,3.93,3.68.21,6.35,3.22,5.95,6.95-.39,3.67-3.37,6.65-7.04,7.05-3.73.4-6.77-2.25-6.96-5.95-.13-2.51-1.6-5.15-4.11-4.54-.91.22-1.94.66-2.65,1.35l-7.32,7.25c-.77.77-2.25.6-2.99-.14l-7.41-7.43c-.5-.5-.79-1.4-.99-2.04-.46-1.45.25-2.82,1.6-3.5.94-.48,2-.74,3.08-.82,3.24-.24,5.69-2.72,5.78-6.03.11-4.11-3.21-7.64-7.29-7.96-3.19-.24-5.89,1.73-6.58,4.79l-.26,1.13c-.25,1.12-.38,2.25-1.02,3.2-.71,1.05-1.85,1.58-3.11,1.25-.75-.19-1.75-.56-2.34-1.15l-7.24-7.22Z"/>
        </g>
        <g class="cls-1">
          <path class="cls-2" d="M1088.73,919.13c-.77-6.02,2.39-11.46,7.94-13.92,4.52-2.02,9.3-2.06,13.21-4.37,2.26-1.34,3.02-3.74,2.02-6.19-.95-2.28-2.25-4.8-4.09-6.66l-16.34-16.49c-1.89-1.91-1.5-5.21.28-7l17.78-17.88c1.84-1.85,2.12-5.2,1.32-7.44-1.67-4.64-7.87-4.92-11.82-5.81-7.22-1.61-11.9-7.6-11.36-15.01.63-8.63,7.74-15.71,16.38-16.4,7.81-.61,14.34,4.77,15.1,12.54.58,5.96,2.83,12.27,8.94,11.2.99-.17,2.94-.58,3.75-1.37l18.71-18.57c1.66-1.65,4.37-1.06,6.19-.27l18.15,18.15,1.36,3.12c1.53,3.23.29,6.6-2.64,8.49-2.76,1.78-5.87,1.79-8.85,2.5-4.11.98-7.71,3.07-9.75,6.75-2.71,4.91-2.41,10.73.36,15.55,3.11,5.41,8.54,8.93,14.73,9.19,7.24.3,13.43-4.56,14.45-11.79.39-2.8.64-5.54,1.94-8.08,1.78-3.49,5.49-5.15,9.04-3.38l3.31,1.6,17.81,17.81c1.29,2.49.63,5-1.39,7l-14.9,14.86c-1.74,1.74-2.94,4-3.56,6.24-.92,3.29.6,6.33,3.56,7.84,2.51,1.27,5.12,1.69,7.88,2,7.46.85,12.67,7.15,12.23,14.64-.54,9.34-8.39,16.83-17.73,16.79-6.66-.04-11.91-4.47-13.51-10.75-.2-.78-.47-1.57-.56-2.35-.3-2.62-.85-5.2-2.26-7.42-1.6-2.54-4.32-3.73-7.24-2.94-1.91.51-4.22,1.43-5.75,2.94l-16.09,16.01c-2.08,2.08-5.26,1.91-7.29-.12l-15.78-15.72c-1.65-1.64-4.09-2.6-6.17-3.23-2.85-.87-5.52.19-7.28,2.62-3.22,4.43-2.6,11.43-6.72,15.6-3.82,3.87-9.99,5.16-15.07,3.27-5.83-2.16-9.51-7.54-10.27-13.54Z"/>
          <path class="cls-2" d="M1022.66,940.27c-1.81-1.81-2.57-5.13-.56-7.16l18.48-18.65c.98-1,1.35-3.13,1.48-4.37.28-2.76-1.29-4.95-3.56-6.28-2.6-1.52-5.39-1.79-8.33-2.19-6.81-.9-11.73-6.31-11.95-13.26-.28-8.88,6.52-16.85,15.47-18.05,8.08-1.09,15.01,4.22,15.96,12.1.34,2.85.7,5.57,2.12,8.1,1.78,3.15,5.32,4.48,8.63,3.01l2.08-.93,18.34-18.35c2.31-1.91,5.37-1.61,7.45.48l16.03,16.09c1.49,1.49,2.03,4.34,1.24,6.17-1.32,3.07-7.51,3.54-12.35,5.47-5.55,2.23-9.31,6.96-9.96,13.02-.84,7.82,2.71,16.02,9.51,20.36,4.51,2.86,10.2,3.47,15.26,2.52,7.3-1.38,11.59-7.79,13.39-14.81.81-3.15,1.73-7.31,4.33-7.79,2.65-.49,4.82,1.06,6.59,2.85l13.66,13.81c2.01,2.03,2.75,5.24.51,7.5l-16.28,16.42c-1.65,1.66-2.58,4.13-2.96,6.25-.99,5.55,4.85,8.55,10.32,8.86,8.31.46,14.32,7.27,13.42,15.67-.89,8.28-7.6,15.01-15.88,15.9-8.42.9-15.28-5.08-15.7-13.42-.28-5.67-3.6-11.62-9.28-10.24-2.06.5-4.39,1.48-5.99,3.06l-16.51,16.35c-1.74,1.73-5.08,1.36-6.75-.32l-16.73-16.75c-1.14-1.14-1.78-3.16-2.23-4.61-1.03-3.27.56-6.36,3.6-7.9,2.13-1.08,4.52-1.66,6.96-1.85,7.3-.54,12.83-6.14,13.03-13.6.25-9.27-7.25-17.24-16.45-17.95-7.19-.55-13.29,3.9-14.85,10.81l-.58,2.55c-.56,2.53-.85,5.07-2.31,7.22-1.61,2.38-4.18,3.56-7.02,2.83-1.69-.43-3.94-1.27-5.28-2.59l-16.34-16.28Z"/>
        </g>
        <g class="cls-1">
          <path class="cls-2" d="M1621.83,631.96c-.77-6.02,2.39-11.46,7.94-13.92,4.52-2.02,9.3-2.06,13.21-4.37,2.26-1.34,3.02-3.74,2.02-6.19-.95-2.28-2.25-4.8-4.09-6.66l-16.34-16.49c-1.89-1.91-1.5-5.21.28-7l17.78-17.88c1.84-1.85,2.12-5.2,1.32-7.44-1.67-4.64-7.87-4.92-11.82-5.81-7.22-1.61-11.9-7.6-11.36-15.01.63-8.63,7.74-15.71,16.38-16.4,7.81-.61,14.34,4.77,15.1,12.54.58,5.96,2.83,12.27,8.94,11.2.99-.17,2.94-.58,3.75-1.37l18.71-18.57c1.66-1.65,4.37-1.06,6.19-.27l18.15,18.15,1.36,3.12c1.53,3.23.29,6.6-2.64,8.49-2.76,1.78-5.87,1.79-8.85,2.5-4.11.98-7.71,3.07-9.75,6.75-2.71,4.91-2.41,10.73.36,15.55,3.11,5.41,8.54,8.93,14.73,9.19,7.24.3,13.43-4.56,14.45-11.79.39-2.8.64-5.54,1.94-8.08,1.78-3.49,5.49-5.15,9.04-3.38l3.31,1.6,17.81,17.81c1.29,2.49.63,5-1.39,7l-14.9,14.86c-1.74,1.74-2.94,4-3.56,6.24-.92,3.29.6,6.33,3.56,7.84,2.51,1.27,5.12,1.69,7.88,2,7.46.85,12.67,7.15,12.23,14.64-.54,9.34-8.39,16.83-17.73,16.79-6.66-.04-11.91-4.47-13.51-10.75-.2-.78-.47-1.57-.56-2.35-.3-2.62-.85-5.2-2.26-7.42-1.6-2.54-4.32-3.73-7.24-2.94-1.91.51-4.22,1.43-5.75,2.94l-16.09,16.01c-2.08,2.08-5.26,1.91-7.29-.12l-15.78-15.72c-1.65-1.64-4.09-2.6-6.17-3.23-2.85-.87-5.52.19-7.28,2.62-3.22,4.43-2.6,11.43-6.72,15.6-3.82,3.87-9.99,5.16-15.07,3.27-5.83-2.16-9.51-7.54-10.27-13.54Z"/>
          <path class="cls-2" d="M1555.76,653.1c-1.81-1.81-2.57-5.13-.56-7.16l18.48-18.65c.98-1,1.35-3.13,1.48-4.37.28-2.76-1.29-4.95-3.56-6.28-2.6-1.52-5.39-1.79-8.33-2.19-6.81-.9-11.73-6.31-11.95-13.26-.28-8.88,6.52-16.85,15.47-18.05,8.08-1.09,15.01,4.22,15.96,12.1.34,2.85.7,5.57,2.12,8.1,1.78,3.15,5.32,4.48,8.63,3.01l2.08-.93,18.34-18.35c2.31-1.91,5.37-1.61,7.45.48l16.03,16.09c1.49,1.49,2.03,4.34,1.24,6.17-1.32,3.07-7.51,3.54-12.35,5.47-5.55,2.23-9.31,6.96-9.96,13.02-.84,7.82,2.71,16.02,9.51,20.36,4.51,2.86,10.2,3.47,15.26,2.52,7.3-1.38,11.59-7.79,13.39-14.81.81-3.15,1.73-7.31,4.33-7.79,2.65-.49,4.82,1.06,6.59,2.85l13.66,13.81c2.01,2.03,2.75,5.24.51,7.5l-16.28,16.42c-1.65,1.66-2.58,4.13-2.96,6.25-.99,5.55,4.85,8.55,10.32,8.86,8.31.46,14.32,7.27,13.42,15.67-.89,8.28-7.6,15.01-15.88,15.9-8.42.9-15.28-5.08-15.7-13.42-.28-5.67-3.6-11.62-9.28-10.24-2.06.5-4.39,1.48-5.99,3.06l-16.51,16.35c-1.74,1.73-5.08,1.36-6.75-.32l-16.73-16.75c-1.14-1.14-1.78-3.16-2.23-4.61-1.03-3.27.56-6.36,3.6-7.9,2.13-1.08,4.52-1.66,6.96-1.85,7.3-.54,12.83-6.14,13.03-13.6.25-9.27-7.25-17.24-16.45-17.95-7.19-.55-13.29,3.9-14.85,10.81l-.58,2.55c-.56,2.53-.85,5.07-2.31,7.22-1.61,2.38-4.18,3.56-7.02,2.83-1.69-.43-3.94-1.27-5.28-2.59l-16.34-16.28Z"/>
        </g>
        <g class="cls-1">
          <path class="cls-2" d="M613.15,76.98c3.69-4.83,9.75-6.47,15.43-4.33,4.63,1.74,8.06,5.07,12.47,6.17,2.55.64,4.78-.54,5.79-2.98.93-2.29,1.77-5,1.76-7.61l-.04-23.22c0-2.69,2.6-4.77,5.12-4.78l25.22-.22c2.61-.02,5.16-2.21,6.17-4.37,2.07-4.47-2.14-9.03-4.33-12.44-4.01-6.22-3.13-13.77,2.47-18.66,6.52-5.7,16.55-5.73,23.18-.15,5.99,5.05,6.85,13.47,1.93,19.53-3.78,4.65-6.61,10.72-1.5,14.25.83.57,2.49,1.66,3.63,1.66l26.36-.07c2.34,0,3.85,2.31,4.59,4.15l.16,25.67-1.22,3.17c-1.18,3.37-4.43,4.9-7.85,4.19-3.21-.68-5.43-2.85-8.05-4.44-3.61-2.19-7.65-3.23-11.68-2.05-5.38,1.59-9.25,5.94-10.67,11.31-1.59,6.04-.2,12.35,4.02,16.88,4.94,5.31,12.77,6.19,18.56,1.77,2.25-1.72,4.34-3.49,7.06-4.39,3.72-1.24,7.52.19,8.81,3.94l1.23,3.47.15,25.19c-.83,2.67-3.06,4-5.91,4.01l-21.05.1c-2.46.02-4.9.78-6.92,1.94-2.96,1.7-4.02,4.92-2.98,8.07.89,2.67,2.45,4.8,4.2,6.96,4.71,5.85,3.99,13.99-1.59,19.01-6.95,6.26-17.8,6.08-24.42-.51-4.71-4.7-5.34-11.55-2.06-17.14.41-.69.77-1.45,1.26-2.06,1.62-2.07,3.04-4.3,3.61-6.87.65-2.93-.45-5.69-3.09-7.18-1.72-.98-4.01-1.95-6.15-1.95l-22.7.09c-2.94.02-5.08-2.34-5.11-5.21l-.18-22.28c-.02-2.33-1.08-4.73-2.12-6.64-1.42-2.62-4.06-3.75-7.02-3.25-5.4.89-9.88,6.31-15.74,6.38-5.43.07-10.74-3.35-13.02-8.27-2.62-5.63-1.46-12.05,2.21-16.85Z"/>
          <path class="cls-2" d="M551.29,45.59c-.02-2.56,1.78-5.46,4.63-5.49l26.26-.28c1.4-.02,3.16-1.28,4.12-2.07,2.14-1.76,2.56-4.43,1.88-6.97-.78-2.91-2.58-5.07-4.38-7.41-4.21-5.42-3.91-12.73.82-17.83,6.04-6.51,16.48-7.41,23.69-1.97,6.51,4.9,7.71,13.56,2.85,19.82-1.76,2.27-3.42,4.46-4.19,7.25-.95,3.49.64,6.92,4.02,8.21l2.14.8,25.94-.17c2.98.27,4.96,2.63,4.97,5.58l.1,22.71c.01,2.11-1.61,4.51-3.46,5.26-3.1,1.25-7.83-2.76-12.63-4.79-5.52-2.32-11.51-1.59-16.24,2.26-6.09,4.98-9.33,13.3-7.54,21.16,1.2,5.21,4.82,9.64,9.09,12.51,6.17,4.15,13.72,2.6,19.94-1.13,2.79-1.67,6.37-3.98,8.56-2.5,2.23,1.52,2.68,4.14,2.68,6.66v19.43c.01,2.86-1.71,5.66-4.89,5.7l-23.12.24c-2.34.02-4.73,1.12-6.49,2.37-4.61,3.26-2.56,9.49,1.12,13.55,5.58,6.17,5.08,15.23-1.47,20.57-6.45,5.26-15.96,5.34-22.47.15-6.62-5.28-7.3-14.35-1.74-20.58,3.78-4.23,5.6-10.79.6-13.81-1.82-1.09-4.16-2.03-6.41-2.03l-23.24.03c-2.46,0-4.57-2.6-4.58-4.97l-.13-23.67c0-1.61.96-3.5,1.65-4.85,1.56-3.05,4.87-4.13,8.12-3.09,2.27.73,4.39,1.99,6.25,3.57,5.57,4.74,13.44,4.65,18.83-.52,6.7-6.42,6.96-17.36.91-24.33-4.73-5.45-12.2-6.56-18.16-2.75l-2.2,1.41c-2.18,1.4-4.16,3.01-6.71,3.51-2.81.56-5.48-.4-6.98-2.92-.9-1.5-1.91-3.67-1.93-5.55l-.19-23.07Z"/>
        </g>
        <g class="cls-1">
          <path class="cls-2" d="M702.98,911.97c3.69-4.83,9.75-6.47,15.43-4.33,4.63,1.74,8.06,5.07,12.47,6.17,2.55.64,4.78-.54,5.79-2.98.93-2.29,1.77-5,1.76-7.61l-.04-23.22c0-2.69,2.6-4.77,5.12-4.78l25.22-.22c2.61-.02,5.16-2.21,6.17-4.37,2.07-4.47-2.14-9.03-4.33-12.44-4.01-6.22-3.13-13.77,2.47-18.66,6.52-5.7,16.55-5.73,23.18-.15,5.99,5.05,6.85,13.47,1.93,19.53-3.78,4.65-6.61,10.72-1.5,14.25.83.57,2.49,1.66,3.63,1.66l26.36-.07c2.34,0,3.85,2.31,4.59,4.15l.16,25.67-1.22,3.17c-1.18,3.37-4.43,4.9-7.85,4.19-3.21-.68-5.43-2.85-8.05-4.44-3.61-2.19-7.65-3.23-11.68-2.05-5.38,1.59-9.25,5.94-10.67,11.31-1.59,6.04-.2,12.35,4.02,16.88,4.94,5.31,12.77,6.19,18.56,1.77,2.25-1.72,4.34-3.49,7.06-4.39,3.72-1.24,7.52.19,8.81,3.94l1.23,3.47.15,25.19c-.83,2.67-3.06,4-5.91,4.01l-21.05.1c-2.46.02-4.9.78-6.92,1.94-2.96,1.7-4.02,4.92-2.98,8.07.89,2.67,2.45,4.8,4.2,6.96,4.71,5.85,3.99,13.99-1.59,19.01-6.95,6.26-17.8,6.08-24.42-.51-4.71-4.7-5.34-11.55-2.06-17.14.41-.69.77-1.45,1.26-2.06,1.62-2.07,3.04-4.3,3.61-6.87.65-2.93-.45-5.69-3.09-7.18-1.72-.98-4.01-1.95-6.15-1.95l-22.7.09c-2.94.02-5.08-2.34-5.11-5.21l-.18-22.28c-.02-2.33-1.08-4.73-2.12-6.64-1.42-2.62-4.06-3.75-7.02-3.25-5.4.89-9.88,6.31-15.74,6.38-5.43.07-10.74-3.35-13.02-8.27-2.62-5.63-1.46-12.05,2.21-16.85Z"/>
          <path class="cls-2" d="M641.12,880.58c-.02-2.56,1.78-5.46,4.63-5.49l26.26-.28c1.4-.02,3.16-1.28,4.12-2.07,2.14-1.76,2.56-4.43,1.88-6.97-.78-2.91-2.58-5.07-4.38-7.41-4.21-5.42-3.91-12.73.82-17.83,6.04-6.51,16.48-7.41,23.69-1.97,6.51,4.9,7.71,13.56,2.85,19.82-1.76,2.27-3.42,4.46-4.19,7.25-.95,3.49.64,6.92,4.02,8.21l2.14.8,25.94-.17c2.98.27,4.96,2.63,4.97,5.58l.1,22.71c.01,2.11-1.61,4.51-3.46,5.26-3.1,1.25-7.83-2.76-12.63-4.79-5.52-2.32-11.51-1.59-16.24,2.26-6.09,4.98-9.33,13.3-7.54,21.16,1.2,5.21,4.82,9.64,9.09,12.51,6.17,4.15,13.72,2.6,19.94-1.13,2.79-1.67,6.37-3.98,8.56-2.5,2.23,1.52,2.68,4.14,2.68,6.66v19.43c.01,2.86-1.71,5.66-4.89,5.7l-23.12.24c-2.34.02-4.73,1.12-6.49,2.37-4.61,3.26-2.56,9.49,1.12,13.55,5.58,6.17,5.08,15.23-1.47,20.57-6.45,5.26-15.96,5.34-22.47.15-6.62-5.28-7.3-14.35-1.74-20.58,3.78-4.23,5.6-10.79.6-13.81-1.82-1.09-4.16-2.03-6.41-2.03l-23.24.03c-2.46,0-4.57-2.6-4.58-4.97l-.13-23.67c0-1.61.96-3.5,1.65-4.85,1.56-3.05,4.87-4.13,8.12-3.09,2.27.73,4.39,1.99,6.25,3.57,5.57,4.74,13.44,4.65,18.83-.52,6.7-6.42,6.96-17.36.91-24.33-4.73-5.45-12.2-6.56-18.16-2.75l-2.2,1.41c-2.18,1.4-4.16,3.01-6.71,3.51-2.81.56-5.48-.4-6.98-2.92-.9-1.5-1.91-3.67-1.93-5.55l-.19-23.07Z"/>
        </g>
        <g class="cls-1">
          <path class="cls-2" d="M1122.49,152.82c3.16-.08,5.82,1.84,6.8,4.85.81,2.45.58,4.93,1.58,7.08.57,1.24,1.78,1.76,3.1,1.37,1.23-.37,2.61-.92,3.67-1.77l9.41-7.61c1.09-.88,2.78-.51,3.62.51l8.34,10.16c.86,1.05,2.59,1.37,3.79,1.07,2.49-.62,2.97-3.82,3.63-5.83,1.21-3.66,4.56-5.77,8.38-5.11,4.44.78,7.74,4.84,7.64,9.36-.09,4.08-3.22,7.19-7.29,7.17-3.12-.01-6.51.83-6.27,4.05.04.52.14,1.55.52,2.02l8.65,10.68c.77.95.32,2.32-.18,3.22l-10.37,8.46-1.69.54c-1.75.63-3.44-.2-4.27-1.81-.78-1.53-.62-3.14-.83-4.72-.29-2.18-1.19-4.16-2.99-5.41-2.4-1.66-5.44-1.81-8.08-.63-2.97,1.33-5.08,3.96-5.54,7.16-.54,3.74,1.66,7.21,5.36,8.11,1.43.35,2.84.62,4.09,1.43,1.72,1.1,2.38,3.12,1.28,4.86l-1,1.63-10.17,8.3c-1.36.54-2.62.07-3.56-1.09l-6.93-8.51c-.81-.99-1.92-1.73-3.05-2.17-1.66-.65-3.31-.02-4.25,1.43-.79,1.24-1.14,2.56-1.45,3.98-.83,3.82-4.37,6.19-8.23,5.57-4.82-.77-8.29-5.23-7.78-10.08.37-3.45,2.94-5.94,6.28-6.44.41-.06.84-.16,1.25-.17,1.37-.02,2.74-.17,3.97-.78,1.4-.7,2.16-2.05,1.9-3.6-.17-1.02-.52-2.27-1.22-3.13l-7.46-9.18c-.97-1.19-.71-2.83.44-3.78l8.98-7.36c.94-.77,1.56-1.98,2-3.03.6-1.43.19-2.87-.98-3.91-2.13-1.9-5.79-1.95-7.74-4.3-1.8-2.18-2.15-5.45-.91-7.99,1.43-2.91,4.41-4.53,7.56-4.62Z"/>
          <path class="cls-2" d="M1114.99,117.45c1.03-.84,2.8-1.07,3.74.08l8.71,10.56c.46.56,1.55.86,2.19,1,1.42.29,2.64-.41,3.45-1.52.93-1.27,1.21-2.7,1.57-4.2.82-3.48,3.89-5.75,7.5-5.5,4.62.32,8.4,4.26,8.55,8.97.14,4.25-2.98,7.56-7.11,7.64-1.5.03-2.93.07-4.31.67-1.73.76-2.6,2.52-2.01,4.32l.38,1.13,8.56,10.47c.87,1.3.56,2.87-.64,3.84l-9.18,7.47c-.85.69-2.36.82-3.27.32-1.52-.85-1.44-4.08-2.19-6.69-.86-3-3.12-5.19-6.23-5.85-4.01-.84-8.45.57-11.05,3.86-1.72,2.19-2.33,5.11-2.11,7.78.33,3.86,3.43,6.42,6.98,7.72,1.59.59,3.7,1.28,3.81,2.65.11,1.4-.8,2.44-1.82,3.27l-7.88,6.36c-1.16.94-2.86,1.15-3.92-.13l-7.66-9.3c-.78-.94-2-1.55-3.08-1.86-2.83-.8-4.69,2.07-5.13,4.89-.68,4.28-4.52,7.04-8.83,6.14-4.25-.9-7.39-4.73-7.41-9.07-.02-4.41,3.44-7.66,7.78-7.44,2.95.15,6.21-1.26,5.8-4.27-.15-1.09-.54-2.35-1.27-3.27l-7.62-9.42c-.81-1-.44-2.71.52-3.48l9.56-7.8c.65-.53,1.73-.75,2.51-.92,1.75-.36,3.27.63,3.91,2.28.45,1.16.63,2.43.59,3.71-.1,3.81,2.51,6.97,6.37,7.47,4.79.62,9.32-2.86,10.17-7.59.66-3.7-1.33-7.1-4.83-8.27l-1.29-.43c-1.28-.42-2.58-.7-3.62-1.57-1.15-.96-1.63-2.36-1.1-3.79.31-.86.86-1.98,1.62-2.6l9.3-7.62Z"/>
        </g>
        <g class="cls-1">
          <path class="cls-2" d="M234.65,235.32c-1-7.89,3.13-15,10.39-18.23,5.91-2.64,12.17-2.7,17.29-5.72,2.96-1.75,3.96-4.9,2.65-8.11-1.24-2.99-2.95-6.28-5.36-8.71l-21.39-21.59c-2.48-2.49-1.97-6.83.37-9.17l23.28-23.41c2.4-2.42,2.78-6.81,1.72-9.74-2.19-6.07-10.3-6.45-15.47-7.6-9.46-2.11-15.58-9.94-14.87-19.65.83-11.3,10.14-20.57,21.45-21.47,10.23-.8,18.78,6.24,19.76,16.41.76,7.81,3.71,16.06,11.71,14.66,1.3-.23,3.85-.75,4.91-1.8l24.49-24.32c2.17-2.15,5.72-1.39,8.1-.36l23.76,23.76,1.78,4.08c2.01,4.23.38,8.64-3.46,11.12-3.62,2.32-7.68,2.34-11.58,3.27-5.38,1.28-10.1,4.02-12.76,8.84-3.55,6.43-3.16,14.04.47,20.36,4.07,7.08,11.18,11.68,19.28,12.02,9.48.4,17.59-5.98,18.91-15.43.51-3.67.83-7.25,2.53-10.58,2.32-4.57,7.18-6.74,11.83-4.43l4.33,2.1,23.32,23.32c1.68,3.26.83,6.54-1.81,9.17l-19.51,19.46c-2.28,2.28-3.85,5.24-4.66,8.17-1.2,4.31.79,8.28,4.66,10.26,3.29,1.67,6.7,2.21,10.32,2.62,9.77,1.12,16.58,9.36,16.01,19.17-.71,12.23-10.99,22.03-23.21,21.98-8.71-.05-15.59-5.85-17.68-14.07-.26-1.02-.62-2.06-.73-3.08-.4-3.43-1.12-6.8-2.96-9.72-2.1-3.33-5.66-4.88-9.48-3.85-2.5.67-5.53,1.87-7.52,3.85l-21.06,20.96c-2.72,2.72-6.88,2.49-9.55-.15l-20.66-20.58c-2.16-2.15-5.35-3.41-8.08-4.23-3.72-1.13-7.22.24-9.53,3.43-4.21,5.8-3.4,14.96-8.79,20.42-5,5.06-13.08,6.76-19.73,4.28-7.63-2.83-12.45-9.87-13.45-17.72Z"/>
          <path class="cls-2" d="M148.16,263c-2.37-2.37-3.37-6.72-.74-9.37l24.19-24.42c1.29-1.3,1.77-4.1,1.94-5.72.37-3.61-1.69-6.49-4.66-8.23-3.4-1.99-7.06-2.35-10.9-2.87-8.91-1.17-15.35-8.26-15.64-17.36-.36-11.62,8.53-22.06,20.25-23.64,10.57-1.42,19.65,5.53,20.89,15.84.45,3.73.92,7.3,2.77,10.61,2.32,4.12,6.96,5.86,11.3,3.94l2.73-1.22,24.01-24.02c3.03-2.49,7.04-2.11,9.76.62l20.98,21.06c1.95,1.95,2.66,5.68,1.62,8.08-1.73,4.02-9.83,4.63-16.17,7.17-7.27,2.91-12.19,9.11-13.04,17.04-1.09,10.24,3.55,20.97,12.45,26.65,5.9,3.75,13.35,4.54,19.98,3.3,9.56-1.81,15.17-10.2,17.53-19.39,1.06-4.12,2.27-9.57,5.67-10.2,3.47-.64,6.31,1.38,8.62,3.73l17.89,18.08c2.63,2.66,3.6,6.86.67,9.82l-21.31,21.49c-2.16,2.18-3.38,5.4-3.87,8.18-1.3,7.27,6.35,11.19,13.51,11.59,10.87.61,18.74,9.51,17.56,20.51-1.17,10.83-9.95,19.65-20.79,20.81-11.02,1.17-20-6.66-20.55-17.57-.37-7.42-4.71-15.21-12.15-13.41-2.7.66-5.74,1.94-7.84,4l-21.62,21.41c-2.28,2.27-6.66,1.78-8.83-.41l-21.89-21.93c-1.49-1.49-2.32-4.14-2.92-6.03-1.35-4.28.74-8.33,4.71-10.35,2.79-1.41,5.92-2.18,9.11-2.42,9.55-.71,16.79-8.03,17.06-17.81.33-12.14-9.49-22.57-21.54-23.5-9.42-.72-17.4,5.11-19.44,14.15l-.75,3.34c-.74,3.31-1.11,6.63-3.02,9.45-2.11,3.11-5.47,4.66-9.19,3.7-2.22-.57-5.16-1.66-6.91-3.39l-21.39-21.31Z"/>
        </g>
        <g class="cls-1">
          <path class="cls-2" d="M1442.81,550.25c-1.58.2-3.01-.63-3.66-2.09-.53-1.19-.54-2.44-1.15-3.47-.35-.59-.98-.79-1.63-.53-.6.25-1.26.59-1.75,1.08l-4.33,4.29c-.5.5-1.37.39-1.84-.07l-4.7-4.67c-.49-.48-1.37-.56-1.96-.35-1.22.44-1.29,2.07-1.53,3.11-.42,1.9-2,3.13-3.94,2.99-2.27-.17-4.13-2.03-4.31-4.31-.16-2.05,1.25-3.77,3.29-3.97,1.57-.15,3.22-.74,2.94-2.35-.05-.26-.15-.77-.36-.98l-4.88-4.92c-.43-.44-.28-1.15-.07-1.63l4.77-4.77.82-.36c.85-.4,1.73-.08,2.23.69.47.73.47,1.54.66,2.32.26,1.08.81,2.03,1.77,2.56,1.29.71,2.82.63,4.09-.09,1.42-.82,2.35-2.24,2.41-3.87.08-1.9-1.2-3.53-3.1-3.8-.74-.1-1.45-.17-2.12-.51-.92-.47-1.35-1.44-.89-2.37l.42-.87,4.68-4.68c.65-.34,1.31-.17,1.84.36l3.91,3.92c.46.46,1.05.77,1.64.93.86.24,1.66-.16,2.06-.93.33-.66.44-1.34.53-2.07.22-1.96,1.88-3.33,3.85-3.21,2.45.14,4.42,2.21,4.41,4.66,0,1.75-1.17,3.13-2.82,3.55-.2.05-.41.12-.62.15-.69.08-1.37.22-1.95.59-.67.42-.98,1.14-.77,1.9.13.5.38,1.11.77,1.51l4.21,4.23c.55.55.5,1.38-.03,1.92l-4.13,4.15c-.43.43-.68,1.07-.85,1.62-.23.75.05,1.45.69,1.91,1.16.85,3,.68,4.1,1.76,1.02,1,1.36,2.62.86,3.96-.57,1.53-1.98,2.5-3.56,2.7Z"/>
          <path class="cls-2" d="M1448.37,567.61c-.48.48-1.35.68-1.88.15l-4.9-4.86c-.26-.26-.82-.35-1.15-.39-.72-.07-1.3.34-1.65.94-.4.68-.47,1.42-.58,2.19-.24,1.79-1.66,3.08-3.48,3.14-2.33.07-4.43-1.71-4.74-4.06-.29-2.12,1.11-3.94,3.18-4.19.75-.09,1.46-.18,2.13-.56.83-.47,1.18-1.4.79-2.27l-.25-.55-4.82-4.82c-.5-.61-.42-1.41.13-1.96l4.23-4.21c.39-.39,1.14-.53,1.62-.33.81.35.93,1.97,1.44,3.25.59,1.46,1.83,2.45,3.42,2.62,2.06.22,4.21-.71,5.35-2.5.75-1.18.91-2.68.66-4.01-.36-1.92-2.05-3.05-3.89-3.52-.83-.21-1.92-.46-2.05-1.14-.13-.7.28-1.27.75-1.73l3.63-3.59c.53-.53,1.38-.72,1.97-.13l4.31,4.28c.44.43,1.08.68,1.64.78,1.46.26,2.25-1.27,2.33-2.71.12-2.18,1.91-3.76,4.12-3.53,2.17.23,3.94,2,4.18,4.17.24,2.21-1.34,4.01-3.53,4.12-1.49.07-3.05.95-2.69,2.44.13.54.39,1.15.8,1.57l4.3,4.34c.46.46.36,1.34-.08,1.77l-4.4,4.39c-.3.3-.83.47-1.21.59-.86.27-1.67-.15-2.08-.95-.28-.56-.44-1.19-.49-1.83-.14-1.92-1.61-3.37-3.57-3.42-2.44-.07-4.53,1.9-4.72,4.32-.14,1.89,1.03,3.49,2.84,3.9l.67.15c.66.15,1.33.22,1.9.61.62.42.94,1.1.74,1.84-.11.45-.33,1.04-.68,1.39l-4.28,4.29Z"/>
        </g>
        <g class="cls-1">
          <path class="cls-2" d="M1216.32,475.72c-1.58.2-3.01-.63-3.66-2.09-.53-1.19-.54-2.44-1.15-3.47-.35-.59-.98-.79-1.63-.53-.6.25-1.26.59-1.75,1.08l-4.33,4.29c-.5.5-1.37.39-1.84-.07l-4.7-4.67c-.49-.48-1.37-.56-1.96-.35-1.22.44-1.29,2.07-1.53,3.11-.42,1.9-2,3.13-3.94,2.99-2.27-.17-4.13-2.03-4.31-4.31-.16-2.05,1.25-3.77,3.29-3.97,1.57-.15,3.22-.74,2.94-2.35-.05-.26-.15-.77-.36-.98l-4.88-4.92c-.43-.44-.28-1.15-.07-1.63l4.77-4.77.82-.36c.85-.4,1.73-.08,2.23.69.47.73.47,1.54.66,2.32.26,1.08.81,2.03,1.77,2.56,1.29.71,2.82.63,4.09-.09,1.42-.82,2.35-2.24,2.41-3.87.08-1.9-1.2-3.53-3.1-3.8-.74-.1-1.45-.17-2.12-.51-.92-.47-1.35-1.44-.89-2.37l.42-.87,4.68-4.68c.65-.34,1.31-.17,1.84.36l3.91,3.92c.46.46,1.05.77,1.64.93.86.24,1.66-.16,2.06-.93.33-.66.44-1.34.53-2.07.22-1.96,1.88-3.33,3.85-3.21,2.45.14,4.42,2.21,4.41,4.66,0,1.75-1.17,3.13-2.82,3.55-.2.05-.41.12-.62.15-.69.08-1.37.22-1.95.59-.67.42-.98,1.14-.77,1.9.13.5.38,1.11.77,1.51l4.21,4.23c.55.55.5,1.38-.03,1.92l-4.13,4.15c-.43.43-.68,1.07-.85,1.62-.23.75.05,1.45.69,1.91,1.16.85,3,.68,4.1,1.76,1.02,1,1.36,2.62.86,3.96-.57,1.53-1.98,2.5-3.56,2.7Z"/>
          <path class="cls-2" d="M1221.88,493.08c-.48.48-1.35.68-1.88.15l-4.9-4.86c-.26-.26-.82-.35-1.15-.39-.72-.07-1.3.34-1.65.94-.4.68-.47,1.42-.58,2.19-.24,1.79-1.66,3.08-3.48,3.14-2.33.07-4.43-1.71-4.74-4.06-.29-2.12,1.11-3.94,3.18-4.19.75-.09,1.46-.18,2.13-.56.83-.47,1.18-1.4.79-2.27l-.25-.55-4.82-4.82c-.5-.61-.42-1.41.13-1.96l4.23-4.21c.39-.39,1.14-.53,1.62-.33.81.35.93,1.97,1.44,3.25.59,1.46,1.83,2.45,3.42,2.62,2.06.22,4.21-.71,5.35-2.5.75-1.18.91-2.68.66-4.01-.36-1.92-2.05-3.05-3.89-3.52-.83-.21-1.92-.46-2.05-1.14-.13-.7.28-1.27.75-1.73l3.63-3.59c.53-.53,1.38-.72,1.97-.13l4.31,4.28c.44.43,1.08.68,1.64.78,1.46.26,2.25-1.27,2.33-2.71.12-2.18,1.91-3.76,4.12-3.53,2.17.23,3.94,2,4.18,4.17.24,2.21-1.34,4.01-3.53,4.12-1.49.07-3.05.95-2.69,2.44.13.54.39,1.15.8,1.57l4.3,4.34c.46.46.36,1.34-.08,1.77l-4.4,4.39c-.3.3-.83.47-1.21.59-.86.27-1.67-.15-2.08-.95-.28-.56-.44-1.19-.49-1.83-.14-1.92-1.61-3.37-3.57-3.42-2.44-.07-4.53,1.9-4.72,4.32-.14,1.89,1.03,3.49,2.84,3.9l.67.15c.66.15,1.33.22,1.9.61.62.42.94,1.1.74,1.84-.11.45-.33,1.04-.68,1.39l-4.28,4.29Z"/>
        </g>
        <g class="cls-1">
          <path class="cls-2" d="M499.67,669.7c-1.58.2-3.01-.63-3.66-2.09-.53-1.19-.54-2.44-1.15-3.47-.35-.59-.98-.79-1.63-.53-.6.25-1.26.59-1.75,1.08l-4.33,4.29c-.5.5-1.37.39-1.84-.07l-4.7-4.67c-.49-.48-1.37-.56-1.96-.35-1.22.44-1.29,2.07-1.53,3.11-.42,1.9-2,3.13-3.94,2.99-2.27-.17-4.13-2.03-4.31-4.31-.16-2.05,1.25-3.77,3.29-3.97,1.57-.15,3.22-.74,2.94-2.35-.05-.26-.15-.77-.36-.98l-4.88-4.92c-.43-.44-.28-1.15-.07-1.63l4.77-4.77.82-.36c.85-.4,1.73-.08,2.23.69.47.73.47,1.54.66,2.32.26,1.08.81,2.03,1.77,2.56,1.29.71,2.82.63,4.09-.09,1.42-.82,2.35-2.24,2.41-3.87.08-1.9-1.2-3.53-3.1-3.8-.74-.1-1.45-.17-2.12-.51-.92-.47-1.35-1.44-.89-2.37l.42-.87,4.68-4.68c.65-.34,1.31-.17,1.84.36l3.91,3.92c.46.46,1.05.77,1.64.93.86.24,1.66-.16,2.06-.93.33-.66.44-1.34.53-2.07.22-1.96,1.88-3.33,3.85-3.21,2.45.14,4.42,2.21,4.41,4.66,0,1.75-1.17,3.13-2.82,3.55-.2.05-.41.12-.62.15-.69.08-1.37.22-1.95.59-.67.42-.98,1.14-.77,1.9.13.5.38,1.11.77,1.51l4.21,4.23c.55.55.5,1.38-.03,1.92l-4.13,4.15c-.43.43-.68,1.07-.85,1.62-.23.75.05,1.45.69,1.91,1.16.85,3,.68,4.1,1.76,1.02,1,1.36,2.62.86,3.96-.57,1.53-1.98,2.5-3.56,2.7Z"/>
          <path class="cls-2" d="M505.22,687.06c-.48.48-1.35.68-1.88.15l-4.9-4.86c-.26-.26-.82-.35-1.15-.39-.72-.07-1.3.34-1.65.94-.4.68-.47,1.42-.58,2.19-.24,1.79-1.66,3.08-3.48,3.14-2.33.07-4.43-1.71-4.74-4.06-.29-2.12,1.11-3.94,3.18-4.19.75-.09,1.46-.18,2.13-.56.83-.47,1.18-1.4.79-2.27l-.25-.55-4.82-4.82c-.5-.61-.42-1.41.13-1.96l4.23-4.21c.39-.39,1.14-.53,1.62-.33.81.35.93,1.97,1.44,3.25.59,1.46,1.83,2.45,3.42,2.62,2.06.22,4.21-.71,5.35-2.5.75-1.18.91-2.68.66-4.01-.36-1.92-2.05-3.05-3.89-3.52-.83-.21-1.92-.46-2.05-1.14-.13-.7.28-1.27.75-1.73l3.63-3.59c.53-.53,1.38-.72,1.97-.13l4.31,4.28c.44.43,1.08.68,1.64.78,1.46.26,2.25-1.27,2.33-2.71.12-2.18,1.91-3.76,4.12-3.53,2.17.23,3.94,2,4.18,4.17.24,2.21-1.34,4.01-3.53,4.12-1.49.07-3.05.95-2.69,2.44.13.54.39,1.15.8,1.57l4.3,4.34c.46.46.36,1.34-.08,1.77l-4.4,4.39c-.3.3-.83.47-1.21.59-.86.27-1.67-.15-2.08-.95-.28-.56-.44-1.19-.49-1.83-.14-1.92-1.61-3.37-3.57-3.42-2.44-.07-4.53,1.9-4.72,4.32-.14,1.89,1.03,3.49,2.84,3.9l.67.15c.66.15,1.33.22,1.9.61.62.42.94,1.1.74,1.84-.11.45-.33,1.04-.68,1.39l-4.28,4.29Z"/>
        </g>
      </g>
      <g class="cls-3">
        <g class="cls-1">
          <path class="cls-2" d="M179.06,1957.8c-1.5-11.81,4.68-22.46,15.56-27.3,8.85-3.95,18.23-4.04,25.9-8.58,4.44-2.62,5.93-7.34,3.97-12.14-1.86-4.48-4.42-9.41-8.03-13.05l-32.05-32.34c-3.71-3.74-2.95-10.22.56-13.73l34.87-35.07c3.6-3.63,4.16-10.2,2.58-14.59-3.27-9.1-15.43-9.65-23.18-11.39-14.17-3.15-23.34-14.89-22.28-29.44,1.24-16.93,15.19-30.81,32.13-32.15,15.32-1.2,28.13,9.35,29.61,24.59,1.14,11.69,5.56,24.06,17.54,21.95,1.94-.34,5.76-1.13,7.35-2.69l36.69-36.42c3.25-3.23,8.56-2.09,12.13-.53l35.6,35.6,2.67,6.11c3.01,6.33.57,12.94-5.18,16.65-5.42,3.48-11.51,3.51-17.34,4.9-8.05,1.92-15.13,6.03-19.12,13.25-5.31,9.63-4.73,21.03.7,30.49,6.1,10.61,16.75,17.5,28.88,18.01,14.2.59,26.34-8.95,28.33-23.12.76-5.49,1.25-10.86,3.8-15.85,3.48-6.85,10.76-10.1,17.72-6.63l6.49,3.14,34.93,34.93c2.52,4.88,1.24,9.8-2.72,13.73l-29.22,29.15c-3.41,3.41-5.76,7.85-6.97,12.24-1.79,6.45,1.18,12.41,6.97,15.37,4.92,2.5,10.03,3.31,15.45,3.93,14.63,1.67,24.84,14.02,23.98,28.71-1.07,18.32-16.46,33-34.77,32.93-13.05-.07-23.36-8.76-26.49-21.08-.39-1.53-.92-3.08-1.09-4.61-.59-5.13-1.67-10.19-4.44-14.55-3.14-4.99-8.48-7.31-14.2-5.76-3.75,1.01-8.28,2.8-11.27,5.76l-31.55,31.4c-4.08,4.08-10.31,3.74-14.3-.23l-30.95-30.83c-3.24-3.21-8.02-5.11-12.1-6.33-5.58-1.7-10.82.36-14.28,5.13-6.31,8.68-5.09,22.41-13.17,30.59-7.48,7.58-19.59,10.13-29.56,6.42-11.43-4.25-18.64-14.79-20.15-26.55Z"/>
          <path class="cls-2" d="M49.5,1999.26c-3.55-3.55-5.05-10.07-1.1-14.03l36.24-36.58c1.93-1.95,2.64-6.14,2.9-8.58.56-5.41-2.53-9.72-6.99-12.32-5.09-2.98-10.58-3.52-16.33-4.29-13.35-1.76-23-12.37-23.43-26-.55-17.41,12.78-33.04,30.34-35.41,15.84-2.13,29.44,8.28,31.29,23.72.67,5.59,1.37,10.93,4.15,15.89,3.48,6.17,10.43,8.78,16.92,5.91l4.09-1.83,35.96-35.99c4.54-3.74,10.54-3.17,14.62.93l31.43,31.55c2.92,2.92,3.98,8.51,2.43,12.1-2.6,6.02-14.72,6.94-24.22,10.73-10.89,4.37-18.25,13.65-19.54,25.53-1.64,15.34,5.31,31.41,18.64,39.92,8.84,5.62,20,6.8,29.92,4.94,14.32-2.7,22.73-15.28,26.26-29.05,1.59-6.17,3.4-14.34,8.49-15.28,5.2-.96,9.45,2.07,12.92,5.59l26.79,27.08c3.94,3.99,5.4,10.27,1.01,14.71l-31.92,32.19c-3.24,3.26-5.06,8.09-5.8,12.25-1.94,10.89,9.51,16.76,20.23,17.37,16.29.91,28.08,14.25,26.31,30.72-1.75,16.23-14.91,29.44-31.15,31.17-16.51,1.76-29.96-9.97-30.78-26.32-.56-11.11-7.06-22.78-18.19-20.09-4.04.98-8.6,2.9-11.74,5.99l-32.38,32.07c-3.42,3.4-9.97,2.67-13.23-.62l-32.8-32.85c-2.23-2.23-3.48-6.2-4.38-9.04-2.03-6.42,1.1-12.48,7.06-15.5,4.17-2.11,8.87-3.26,13.65-3.63,14.31-1.07,25.16-12.03,25.56-26.67.5-18.18-14.22-33.82-32.26-35.2-14.11-1.08-26.07,7.65-29.12,21.19l-1.13,5.01c-1.1,4.96-1.66,9.93-4.52,14.15-3.15,4.66-8.2,6.99-13.77,5.54-3.32-.85-7.73-2.49-10.35-5.08l-32.05-31.92Z"/>
        </g>
        <g class="cls-1">
          <path class="cls-2" d="M864.61,1563.09c8.91-7.9,21.2-8.78,31.33-2.52,8.25,5.09,13.6,12.79,21.67,16.57,4.67,2.19,9.4.77,12.27-3.56,2.65-4.05,5.29-8.95,6.26-13.99l8.67-44.69c1-5.17,6.79-8.19,11.66-7.27l48.62,9.07c5.03.93,10.77-2.31,13.51-6.08,5.67-7.83-.71-18.19-3.64-25.57-5.37-13.48-.84-27.67,11.78-34.99,14.69-8.51,34.01-4.8,44.67,8.44,9.62,11.98,8.11,28.51-3.64,38.31-9.02,7.53-16.76,18.14-8.26,26.86,1.37,1.41,4.18,4.13,6.36,4.56l50.76,9.8c4.5.87,6.55,5.9,7.27,9.72l-9.37,49.47-3.55,5.65c-3.54,6.05-10.37,7.76-16.68,5.1-5.93-2.52-9.38-7.54-13.82-11.57-6.12-5.58-13.5-9.1-21.71-8.34-10.95,1.03-20.04,7.94-24.8,17.76-5.33,11.02-5.03,23.7,1.38,34.01,7.51,12.07,22.23,16.73,35.06,10.39,4.97-2.46,9.67-5.08,15.24-5.79,7.62-.98,14.41,3.2,15.46,10.91l1.06,7.13-9.19,48.54c-2.61,4.83-7.4,6.54-12.88,5.49l-40.54-7.73c-4.74-.9-9.73-.34-14.04,1.13-6.34,2.15-9.59,7.96-8.77,14.42.71,5.48,2.91,10.15,5.46,14.98,6.86,13.03,2.4,28.42-10.22,35.98-15.74,9.43-36.54,4.99-46.8-10.19-7.29-10.83-5.92-24.24,2.5-33.76,1.04-1.18,2.03-2.5,3.19-3.5,3.9-3.38,7.48-7.12,9.53-11.87,2.35-5.4,1.27-11.12-3.24-14.98-2.94-2.53-6.98-5.27-11.11-6.07l-43.72-8.38c-5.66-1.07-8.89-6.41-7.86-11.95l8.04-42.94c.83-4.49-.3-9.5-1.59-13.57-1.74-5.57-6.39-8.74-12.28-8.91-10.73-.32-21.39,8.41-32.7,6.34-10.48-1.91-19.4-10.48-21.95-20.81-2.93-11.83,1.72-23.73,10.59-31.6Z"/>
          <path class="cls-2" d="M757.39,1479.38c.93-4.94,5.48-9.84,10.97-8.82l50.64,9.34c2.7.49,6.56-1.27,8.72-2.43,4.78-2.59,6.6-7.57,6.25-12.71-.4-5.89-3.05-10.72-5.65-15.91-6.07-12.03-2.73-25.97,8.29-34.01,14.07-10.25,34.5-8.05,46.34,5.13,10.69,11.89,9.73,28.99-1.98,39.22-4.24,3.7-8.26,7.29-10.79,12.38-3.14,6.35-1.38,13.57,4.65,17.31l3.82,2.35,49.99,9.45c5.64,1.64,8.55,6.93,7.46,12.6l-8.37,43.74c-.77,4.06-4.8,8.08-8.64,8.82-6.43,1.24-14.03-8.26-22.51-13.97-9.74-6.54-21.56-7.4-32.1-1.77-13.6,7.29-22.97,22.08-22.48,37.89.34,10.47,5.64,20.36,12.77,27.51,10.3,10.31,25.43,10.17,38.79,5.34,6-2.16,13.76-5.27,17.41-1.59,3.72,3.76,3.61,8.98,2.66,13.82l-7.29,37.39c-1.08,5.5-5.45,10.25-11.59,9.12l-44.58-8.25c-4.52-.84-9.53.38-13.39,2.11-10.09,4.53-8.5,17.3-2.96,26.5,8.42,13.97,4.04,31.23-10.57,39.04-14.39,7.7-32.72,4.26-43.3-8.18-10.75-12.65-8.63-30.37,4.41-40.26,8.87-6.72,14.85-18.66,6.35-26.35-3.09-2.78-7.24-5.47-11.56-6.33l-44.74-8.7c-4.73-.91-7.82-6.74-6.94-11.28l8.67-45.6c.59-3.1,3.16-6.37,5-8.71,4.16-5.29,10.93-6.12,16.78-2.9,4.09,2.26,7.69,5.49,10.68,9.23,8.94,11.23,24.11,14.01,36.43,6.1,15.3-9.83,19.94-30.79,10.91-46.48-7.05-12.26-21-17.23-33.91-12.13l-4.77,1.89c-4.72,1.88-9.14,4.22-14.24,4.23-5.62.02-10.39-2.84-12.33-8.25-1.17-3.22-2.3-7.78-1.63-11.41l8.33-44.46Z"/>
        </g>
        <g class="cls-1">
          <path class="cls-2" d="M1428.74,1229.01c11.81-1.5,22.46,4.68,27.3,15.56,3.95,8.85,4.04,18.23,8.58,25.9,2.62,4.44,7.34,5.93,12.14,3.97,4.48-1.86,9.41-4.42,13.05-8.03l32.34-32.05c3.74-3.71,10.22-2.95,13.73.56l35.07,34.87c3.63,3.6,10.2,4.16,14.59,2.58,9.1-3.27,9.65-15.43,11.39-23.18,3.15-14.17,14.89-23.34,29.44-22.28,16.93,1.24,30.81,15.19,32.15,32.13,1.2,15.32-9.35,28.13-24.59,29.61-11.69,1.14-24.06,5.56-21.95,17.54.34,1.94,1.13,5.76,2.69,7.35l36.42,36.69c3.23,3.25,2.09,8.56.53,12.13l-35.6,35.6-6.11,2.67c-6.33,3.01-12.94.57-16.65-5.18-3.48-5.42-3.51-11.51-4.9-17.34-1.92-8.05-6.03-15.13-13.25-19.12-9.63-5.31-21.03-4.73-30.49.7-10.61,6.1-17.5,16.75-18.01,28.88-.59,14.2,8.95,26.34,23.12,28.33,5.49.76,10.86,1.25,15.85,3.8,6.85,3.48,10.1,10.76,6.63,17.72l-3.14,6.49-34.93,34.93c-4.88,2.52-9.8,1.24-13.73-2.72l-29.15-29.22c-3.41-3.41-7.85-5.76-12.24-6.97-6.45-1.79-12.41,1.18-15.37,6.97-2.5,4.92-3.31,10.03-3.93,15.45-1.67,14.63-14.02,24.84-28.71,23.98-18.32-1.07-33-16.46-32.93-34.77.07-13.05,8.76-23.36,21.08-26.49,1.53-.39,3.08-.92,4.61-1.09,5.13-.59,10.19-1.67,14.55-4.44,4.99-3.14,7.31-8.48,5.76-14.2-1.01-3.75-2.8-8.28-5.76-11.27l-31.4-31.55c-4.08-4.08-3.74-10.31.23-14.3l30.83-30.95c3.21-3.24,5.11-8.02,6.33-12.1,1.7-5.58-.36-10.82-5.13-14.28-8.68-6.31-22.41-5.09-30.59-13.17-7.58-7.48-10.13-19.59-6.42-29.56,4.25-11.43,14.79-18.64,26.55-20.15Z"/>
          <path class="cls-2" d="M1387.29,1099.45c3.55-3.55,10.07-5.05,14.03-1.1l36.58,36.24c1.95,1.93,6.14,2.64,8.58,2.9,5.41.56,9.72-2.53,12.32-6.99,2.98-5.09,3.52-10.58,4.29-16.33,1.76-13.35,12.37-23,26-23.43,17.41-.55,33.04,12.78,35.41,30.34,2.13,15.84-8.28,29.44-23.72,31.29-5.59.67-10.93,1.37-15.89,4.15-6.17,3.48-8.78,10.43-5.91,16.92l1.83,4.09,35.99,35.96c3.74,4.54,3.17,10.54-.93,14.62l-31.55,31.43c-2.92,2.92-8.51,3.98-12.1,2.43-6.02-2.6-6.94-14.72-10.73-24.22-4.37-10.89-13.65-18.25-25.53-19.54-15.34-1.64-31.41,5.31-39.92,18.64-5.62,8.84-6.8,20-4.94,29.92,2.7,14.32,15.28,22.73,29.05,26.26,6.17,1.59,14.34,3.4,15.28,8.49.96,5.2-2.07,9.45-5.59,12.92l-27.08,26.79c-3.99,3.94-10.27,5.4-14.71,1.01l-32.19-31.92c-3.26-3.24-8.09-5.06-12.25-5.8-10.89-1.94-16.76,9.51-17.37,20.23-.91,16.29-14.25,28.08-30.72,26.31-16.23-1.75-29.44-14.91-31.17-31.15-1.76-16.51,9.97-29.96,26.32-30.78,11.11-.56,22.78-7.06,20.09-18.19-.98-4.04-2.9-8.6-5.99-11.74l-32.07-32.38c-3.4-3.42-2.67-9.97.62-13.23l32.85-32.8c2.23-2.23,6.2-3.48,9.04-4.38,6.42-2.03,12.48,1.1,15.5,7.06,2.11,4.17,3.26,8.87,3.63,13.65,1.07,14.31,12.03,25.16,26.67,25.56,18.18.5,33.82-14.22,35.2-32.26,1.08-14.11-7.65-26.07-21.19-29.12l-5.01-1.13c-4.96-1.1-9.93-1.66-14.15-4.52-4.66-3.15-6.99-8.2-5.54-13.77.85-3.32,2.49-7.73,5.08-10.35l31.92-32.05Z"/>
        </g>
        <g class="cls-1">
          <path class="cls-2" d="M1258.04,1751.84c2.67-.34,5.08,1.06,6.17,3.52.89,2,.91,4.12,1.94,5.85.59,1,1.66,1.34,2.74.9,1.01-.42,2.13-1,2.95-1.82l7.31-7.24c.84-.84,2.31-.67,3.1.13l7.93,7.88c.82.81,2.31.94,3.3.58,2.06-.74,2.18-3.49,2.57-5.24.71-3.2,3.37-5.28,6.65-5.04,3.83.28,6.96,3.43,7.27,7.26.27,3.46-2.11,6.36-5.56,6.69-2.64.26-5.44,1.26-4.96,3.96.08.44.26,1.3.61,1.66l8.23,8.29c.73.73.47,1.94.12,2.74l-8.05,8.05-1.38.6c-1.43.68-2.93.13-3.76-1.17-.79-1.23-.79-2.6-1.11-3.92-.43-1.82-1.36-3.42-2.99-4.32-2.18-1.2-4.75-1.07-6.89.16-2.4,1.38-3.96,3.79-4.07,6.53-.13,3.21,2.02,5.96,5.23,6.41,1.24.17,2.45.28,3.58.86,1.55.79,2.28,2.43,1.5,4.01l-.71,1.47-7.9,7.9c-1.1.57-2.22.28-3.1-.61l-6.59-6.61c-.77-.77-1.77-1.3-2.77-1.58-1.46-.41-2.81.27-3.47,1.58-.56,1.11-.75,2.27-.89,3.49-.38,3.31-3.17,5.62-6.49,5.42-4.14-.24-7.46-3.72-7.44-7.86.02-2.95,1.98-5.28,4.77-5.99.35-.09.7-.21,1.04-.25,1.16-.13,2.3-.38,3.29-1,1.13-.71,1.65-1.92,1.3-3.21-.23-.85-.63-1.87-1.3-2.55l-7.1-7.13c-.92-.92-.84-2.33.05-3.23l6.97-7c.73-.73,1.15-1.81,1.43-2.74.38-1.26-.08-2.45-1.16-3.23-1.96-1.43-5.07-1.15-6.92-2.98-1.71-1.69-2.29-4.43-1.45-6.68.96-2.58,3.34-4.21,6-4.55Z"/>
          <path class="cls-2" d="M1248.67,1722.55c.8-.8,2.28-1.14,3.17-.25l8.27,8.19c.44.44,1.39.6,1.94.66,1.22.13,2.2-.57,2.79-1.58.67-1.15.8-2.39.97-3.69.4-3.02,2.8-5.2,5.88-5.3,3.93-.12,7.47,2.89,8,6.86.48,3.58-1.87,6.65-5.36,7.07-1.26.15-2.47.31-3.59.94-1.4.79-1.99,2.36-1.34,3.83l.41.92,8.14,8.13c.84,1.03.72,2.38-.21,3.3l-7.13,7.1c-.66.66-1.92.9-2.74.55-1.36-.59-1.57-3.33-2.43-5.48-.99-2.46-3.08-4.13-5.77-4.42-3.47-.37-7.1,1.2-9.02,4.21-1.27,2-1.54,4.52-1.12,6.76.61,3.24,3.45,5.14,6.57,5.94,1.4.36,3.24.77,3.45,1.92.22,1.18-.47,2.14-1.26,2.92l-6.12,6.06c-.9.89-2.32,1.22-3.33.23l-7.28-7.22c-.74-.73-1.83-1.14-2.77-1.31-2.46-.44-3.79,2.15-3.93,4.57-.21,3.68-3.22,6.35-6.95,5.95-3.67-.39-6.65-3.37-7.05-7.04-.4-3.73,2.25-6.77,5.95-6.96,2.51-.13,5.15-1.6,4.54-4.11-.22-.91-.66-1.94-1.35-2.65l-7.25-7.32c-.77-.77-.6-2.25.14-2.99l7.43-7.41c.5-.5,1.4-.79,2.04-.99,1.45-.46,2.82.25,3.5,1.6.48.94.74,2,.82,3.08.24,3.24,2.72,5.69,6.03,5.78,4.11.11,7.64-3.21,7.96-7.29.24-3.19-1.73-5.89-4.79-6.58l-1.13-.26c-1.12-.25-2.25-.38-3.2-1.02-1.05-.71-1.58-1.85-1.25-3.11.19-.75.56-1.75,1.15-2.34l7.22-7.24Z"/>
        </g>
        <g class="cls-1">
          <path class="cls-2" d="M367.81,1356.04c-4.3,1.48-8.76-.02-11.41-3.71-2.16-3.01-2.92-6.5-5.21-9.02-1.32-1.46-3.2-1.65-4.85-.55-1.53,1.04-3.18,2.38-4.26,4.01l-9.62,14.48c-1.11,1.68-3.6,1.89-5.18.85l-15.81-10.33c-1.63-1.07-4.14-.77-5.66.16-3.15,1.93-2.42,6.52-2.47,9.55-.08,5.54-3.77,9.88-9.29,10.61-6.43.85-12.69-3.3-14.51-9.53-1.63-5.64,1.32-11.24,6.91-12.97,4.28-1.33,8.57-3.94,6.85-8.25-.28-.7-.87-2.07-1.57-2.54l-16.46-10.91c-1.46-.97-1.44-3.04-1.14-4.49l10.56-16.06,2.08-1.47c2.14-1.61,4.8-1.21,6.63.65,1.72,1.76,2.2,4.03,3.17,6.11,1.34,2.86,3.42,5.19,6.43,6.12,4.01,1.24,8.23.14,11.35-2.62,3.5-3.1,5.25-7.62,4.5-12.19-.88-5.36-5.38-9.16-10.83-8.81-2.11.14-4.16.37-6.22-.19-2.83-.77-4.61-3.24-3.85-6.11l.67-2.67,10.36-15.76c1.63-1.32,3.57-1.22,5.34-.04l13.16,8.67c1.54,1.01,3.38,1.55,5.12,1.66,2.55.17,4.55-1.4,5.21-3.8.55-2.03.46-4.01.28-6.08-.5-5.6,3.32-10.37,8.88-11.19,6.93-1.02,13.61,3.6,15,10.46.98,4.89-1.47,9.41-5.84,11.53-.54.26-1.08.58-1.64.76-1.87.62-3.68,1.41-5.1,2.78-1.62,1.56-2.08,3.74-1.06,5.76.67,1.32,1.69,2.88,3.03,3.77l14.18,9.37c1.84,1.21,2.19,3.57,1.02,5.37l-9.14,13.96c-.95,1.46-1.29,3.39-1.43,5.02-.2,2.22.97,4.02,3.02,4.94,3.73,1.69,8.78.17,12.46,2.56,3.41,2.21,5.3,6.54,4.68,10.56-.7,4.6-4.09,8.11-8.37,9.58Z"/>
          <path class="cls-2" d="M393.32,1401.29c-1.05,1.6-3.37,2.66-5.16,1.5l-16.48-10.73c-.88-.57-2.5-.51-3.43-.42-2.07.21-3.44,1.7-4.07,3.56-.72,2.14-.5,4.23-.34,6.44.37,5.13-2.85,9.56-7.91,10.77-6.47,1.55-13.34-2.23-15.58-8.61-2.02-5.76.82-11.65,6.45-13.53,2.04-.68,3.98-1.36,5.62-2.78,2.04-1.78,2.48-4.58.9-6.78l-1-1.39-16.24-10.67c-1.75-1.41-2-3.7-.78-5.54l9.37-14.19c.87-1.32,2.88-2.15,4.34-1.84,2.45.51,3.73,4.97,5.89,8.23,2.47,3.74,6.51,5.77,11.06,5.33,5.86-.57,11.34-4.41,13.49-10.06,1.42-3.74,1-8-.47-11.57-2.12-5.15-7.47-7.32-12.89-7.57-2.43-.12-5.62-.16-6.37-1.99-.76-1.87.05-3.69,1.09-5.26l8.06-12.11c1.19-1.78,3.42-2.81,5.42-1.51l14.5,9.45c1.47.96,3.42,1.27,5.03,1.22,4.22-.12,5.53-4.85,4.93-8.91-.92-6.16,3.16-11.6,9.46-12.21,6.2-.6,12.16,3.3,14.06,9.24,1.93,6.04-1.41,11.97-7.46,13.54-4.11,1.07-7.97,4.4-6.11,8.36.68,1.43,1.75,2.99,3.15,3.93l14.49,9.63c1.53,1.02,1.77,3.52.79,5l-9.75,14.8c-.66,1.01-2.05,1.78-3.04,2.34-2.24,1.25-4.75.55-6.34-1.44-1.11-1.4-1.91-3.06-2.41-4.82-1.5-5.27-6.44-8.48-11.95-7.5-6.84,1.22-11.55,7.93-10.67,14.78.69,5.36,4.88,9.16,10.17,9.25l1.96.03c1.94.03,3.84-.15,5.64.6,1.99.82,3.25,2.53,3.14,4.72-.06,1.31-.33,3.08-1.1,4.26l-9.46,14.45Z"/>
        </g>
        <g class="cls-1">
          <path class="cls-2" d="M864.31,1994.54c.34,2.67-1.06,5.08-3.52,6.17-2,.89-4.12.91-5.85,1.94-1,.59-1.34,1.66-.9,2.74.42,1.01,1,2.13,1.82,2.95l7.24,7.31c.84.84.67,2.31-.13,3.1l-7.88,7.93c-.81.82-.94,2.31-.58,3.3.74,2.06,3.49,2.18,5.24,2.57,3.2.71,5.28,3.37,5.04,6.65-.28,3.83-3.43,6.96-7.26,7.27-3.46.27-6.36-2.11-6.69-5.56-.26-2.64-1.26-5.44-3.96-4.96-.44.08-1.3.26-1.66.61l-8.29,8.23c-.73.73-1.94.47-2.74.12l-8.05-8.05-.6-1.38c-.68-1.43-.13-2.93,1.17-3.76,1.23-.79,2.6-.79,3.92-1.11,1.82-.43,3.42-1.36,4.32-2.99,1.2-2.18,1.07-4.75-.16-6.89-1.38-2.4-3.79-3.96-6.53-4.07-3.21-.13-5.96,2.02-6.41,5.23-.17,1.24-.28,2.45-.86,3.58-.79,1.55-2.43,2.28-4.01,1.5l-1.47-.71-7.9-7.9c-.57-1.1-.28-2.22.61-3.1l6.61-6.59c.77-.77,1.3-1.77,1.58-2.77.41-1.46-.27-2.81-1.58-3.47-1.11-.56-2.27-.75-3.49-.89-3.31-.38-5.62-3.17-5.42-6.49.24-4.14,3.72-7.46,7.86-7.44,2.95.02,5.28,1.98,5.99,4.77.09.35.21.7.25,1.04.13,1.16.38,2.3,1,3.29.71,1.13,1.92,1.65,3.21,1.3.85-.23,1.87-.63,2.55-1.3l7.13-7.1c.92-.92,2.33-.84,3.23.05l7,6.97c.73.73,1.81,1.15,2.74,1.43,1.26.38,2.45-.08,3.23-1.16,1.43-1.96,1.15-5.07,2.98-6.92,1.69-1.71,4.43-2.29,6.68-1.45,2.58.96,4.21,3.34,4.55,6Z"/>
          <path class="cls-2" d="M893.6,1985.16c.8.8,1.14,2.28.25,3.17l-8.19,8.27c-.44.44-.6,1.39-.66,1.94-.13,1.22.57,2.2,1.58,2.79,1.15.67,2.39.8,3.69.97,3.02.4,5.2,2.8,5.3,5.88.12,3.93-2.89,7.47-6.86,8-3.58.48-6.65-1.87-7.07-5.36-.15-1.26-.31-2.47-.94-3.59-.79-1.4-2.36-1.99-3.83-1.34l-.92.41-8.13,8.14c-1.03.84-2.38.72-3.3-.21l-7.1-7.13c-.66-.66-.9-1.92-.55-2.74.59-1.36,3.33-1.57,5.48-2.43,2.46-.99,4.13-3.08,4.42-5.77.37-3.47-1.2-7.1-4.21-9.02-2-1.27-4.52-1.54-6.76-1.12-3.24.61-5.14,3.45-5.94,6.57-.36,1.4-.77,3.24-1.92,3.45-1.18.22-2.14-.47-2.92-1.26l-6.06-6.12c-.89-.9-1.22-2.32-.23-3.33l7.22-7.28c.73-.74,1.14-1.83,1.31-2.77.44-2.46-2.15-3.79-4.57-3.93-3.68-.21-6.35-3.22-5.95-6.95.39-3.67,3.37-6.65,7.04-7.05,3.73-.4,6.77,2.25,6.96,5.95.13,2.51,1.6,5.15,4.11,4.54.91-.22,1.94-.66,2.65-1.35l7.32-7.25c.77-.77,2.25-.6,2.99.14l7.41,7.43c.5.5.79,1.4.99,2.04.46,1.45-.25,2.82-1.6,3.5-.94.48-2,.74-3.08.82-3.24.24-5.69,2.72-5.78,6.03-.11,4.11,3.21,7.64,7.29,7.96,3.19.24,5.89-1.73,6.58-4.79l.26-1.13c.25-1.12.38-2.25,1.02-3.2.71-1.05,1.85-1.58,3.11-1.25.75.19,1.75.56,2.34,1.15l7.24,7.22Z"/>
        </g>
        <g class="cls-1">
          <path class="cls-2" d="M664.86,1203.3c.77,6.02-2.39,11.46-7.94,13.92-4.52,2.02-9.3,2.06-13.21,4.37-2.26,1.34-3.02,3.74-2.02,6.19.95,2.28,2.25,4.8,4.09,6.66l16.34,16.49c1.89,1.91,1.5,5.21-.28,7l-17.78,17.88c-1.84,1.85-2.12,5.2-1.32,7.44,1.67,4.64,7.87,4.92,11.82,5.81,7.22,1.61,11.9,7.6,11.36,15.01-.63,8.63-7.74,15.71-16.38,16.4-7.81.61-14.34-4.77-15.1-12.54-.58-5.96-2.83-12.27-8.94-11.2-.99.17-2.94.58-3.75,1.37l-18.71,18.57c-1.66,1.65-4.37,1.06-6.19.27l-18.15-18.15-1.36-3.12c-1.53-3.23-.29-6.6,2.64-8.49,2.76-1.78,5.87-1.79,8.85-2.5,4.11-.98,7.71-3.07,9.75-6.75,2.71-4.91,2.41-10.73-.36-15.55-3.11-5.41-8.54-8.93-14.73-9.19-7.24-.3-13.43,4.56-14.45,11.79-.39,2.8-.64,5.54-1.94,8.08-1.78,3.49-5.49,5.15-9.04,3.38l-3.31-1.6-17.81-17.81c-1.29-2.49-.63-5,1.39-7l14.9-14.86c1.74-1.74,2.94-4,3.56-6.24.92-3.29-.6-6.33-3.56-7.84-2.51-1.27-5.12-1.69-7.88-2-7.46-.85-12.67-7.15-12.23-14.64.54-9.34,8.39-16.83,17.73-16.79,6.66.04,11.91,4.47,13.51,10.75.2.78.47,1.57.56,2.35.3,2.62.85,5.2,2.26,7.42,1.6,2.54,4.32,3.73,7.24,2.94,1.91-.51,4.22-1.43,5.75-2.94l16.09-16.01c2.08-2.08,5.26-1.91,7.29.12l15.78,15.72c1.65,1.64,4.09,2.6,6.17,3.23,2.85.87,5.52-.19,7.28-2.62,3.22-4.43,2.6-11.43,6.72-15.6,3.82-3.87,9.99-5.16,15.07-3.27,5.83,2.16,9.51,7.54,10.27,13.54Z"/>
          <path class="cls-2" d="M730.93,1182.16c1.81,1.81,2.57,5.13.56,7.16l-18.48,18.65c-.98,1-1.35,3.13-1.48,4.37-.28,2.76,1.29,4.95,3.56,6.28,2.6,1.52,5.39,1.79,8.33,2.19,6.81.9,11.73,6.31,11.95,13.26.28,8.88-6.52,16.85-15.47,18.05-8.08,1.09-15.01-4.22-15.96-12.1-.34-2.85-.7-5.57-2.12-8.1-1.78-3.15-5.32-4.48-8.63-3.01l-2.08.93-18.34,18.35c-2.31,1.91-5.37,1.61-7.45-.48l-16.03-16.09c-1.49-1.49-2.03-4.34-1.24-6.17,1.32-3.07,7.51-3.54,12.35-5.47,5.55-2.23,9.31-6.96,9.96-13.02.84-7.82-2.71-16.02-9.51-20.36-4.51-2.86-10.2-3.47-15.26-2.52-7.3,1.38-11.59,7.79-13.39,14.81-.81,3.15-1.73,7.31-4.33,7.79-2.65.49-4.82-1.06-6.59-2.85l-13.66-13.81c-2.01-2.03-2.75-5.24-.51-7.5l16.28-16.42c1.65-1.66,2.58-4.13,2.96-6.25.99-5.55-4.85-8.55-10.32-8.86-8.31-.46-14.32-7.27-13.42-15.67.89-8.28,7.6-15.01,15.88-15.9,8.42-.9,15.28,5.08,15.7,13.42.28,5.67,3.6,11.62,9.28,10.24,2.06-.5,4.39-1.48,5.99-3.06l16.51-16.35c1.74-1.73,5.08-1.36,6.75.32l16.73,16.75c1.14,1.14,1.78,3.16,2.23,4.61,1.03,3.27-.56,6.36-3.6,7.9-2.13,1.08-4.52,1.66-6.96,1.85-7.3.54-12.83,6.14-13.03,13.6-.25,9.27,7.25,17.24,16.45,17.95,7.19.55,13.29-3.9,14.85-10.81l.58-2.55c.56-2.53.85-5.07,2.31-7.22,1.61-2.38,4.18-3.56,7.02-2.83,1.69.43,3.94,1.27,5.28,2.59l16.34,16.28Z"/>
        </g>
        <g class="cls-1">
          <path class="cls-2" d="M131.76,1490.47c.77,6.02-2.39,11.46-7.94,13.92-4.52,2.02-9.3,2.06-13.21,4.37-2.26,1.34-3.02,3.74-2.02,6.19.95,2.28,2.25,4.8,4.09,6.66l16.34,16.49c1.89,1.91,1.5,5.21-.28,7l-17.78,17.88c-1.84,1.85-2.12,5.2-1.32,7.44,1.67,4.64,7.87,4.92,11.82,5.81,7.22,1.61,11.9,7.6,11.36,15.01-.63,8.63-7.74,15.71-16.38,16.4-7.81.61-14.34-4.77-15.1-12.54-.58-5.96-2.83-12.27-8.94-11.2-.99.17-2.94.58-3.75,1.37l-18.71,18.57c-1.66,1.65-4.37,1.06-6.19.27l-18.15-18.15-1.36-3.12c-1.53-3.23-.29-6.6,2.64-8.49,2.76-1.78,5.87-1.79,8.85-2.5,4.11-.98,7.71-3.07,9.75-6.75,2.71-4.91,2.41-10.73-.36-15.55-3.11-5.41-8.54-8.93-14.73-9.19-7.24-.3-13.43,4.56-14.45,11.79-.39,2.8-.64,5.54-1.94,8.08-1.78,3.49-5.49,5.15-9.04,3.38l-3.31-1.6-17.81-17.81c-1.29-2.49-.63-5,1.39-7l14.9-14.86c1.74-1.74,2.94-4,3.56-6.24.92-3.29-.6-6.33-3.56-7.84-2.51-1.27-5.12-1.69-7.88-2-7.46-.85-12.67-7.15-12.23-14.64.54-9.34,8.39-16.83,17.73-16.79,6.66.04,11.91,4.47,13.51,10.75.2.78.47,1.57.56,2.35.3,2.62.85,5.2,2.26,7.42,1.6,2.54,4.32,3.73,7.24,2.94,1.91-.51,4.22-1.43,5.75-2.94l16.09-16.01c2.08-2.08,5.26-1.91,7.29.12l15.78,15.72c1.65,1.64,4.09,2.6,6.17,3.23,2.85.87,5.52-.19,7.28-2.62,3.22-4.43,2.6-11.43,6.72-15.6,3.82-3.87,9.99-5.16,15.07-3.27,5.83,2.16,9.51,7.54,10.27,13.54Z"/>
          <path class="cls-2" d="M197.83,1469.32c1.81,1.81,2.57,5.13.56,7.16l-18.48,18.65c-.98,1-1.35,3.13-1.48,4.37-.28,2.76,1.29,4.95,3.56,6.28,2.6,1.52,5.39,1.79,8.33,2.19,6.81.9,11.73,6.31,11.95,13.26.28,8.88-6.52,16.85-15.47,18.05-8.08,1.09-15.01-4.22-15.96-12.1-.34-2.85-.7-5.57-2.12-8.1-1.78-3.15-5.32-4.48-8.63-3.01l-2.08.93-18.34,18.35c-2.31,1.91-5.37,1.61-7.45-.48l-16.03-16.09c-1.49-1.49-2.03-4.34-1.24-6.17,1.32-3.07,7.51-3.54,12.35-5.47,5.55-2.23,9.31-6.96,9.96-13.02.84-7.82-2.71-16.02-9.51-20.36-4.51-2.86-10.2-3.47-15.26-2.52-7.3,1.38-11.59,7.79-13.39,14.81-.81,3.15-1.73,7.31-4.33,7.79-2.65.49-4.82-1.06-6.59-2.85l-13.66-13.81c-2.01-2.03-2.75-5.24-.51-7.5l16.28-16.42c1.65-1.66,2.58-4.13,2.96-6.25.99-5.55-4.85-8.55-10.32-8.86-8.31-.46-14.32-7.27-13.42-15.67.89-8.28,7.6-15.01,15.88-15.9,8.42-.9,15.28,5.08,15.7,13.42.28,5.67,3.6,11.62,9.28,10.24,2.06-.5,4.39-1.48,5.99-3.06l16.51-16.35c1.74-1.73,5.08-1.36,6.75.32l16.73,16.75c1.14,1.14,1.78,3.16,2.23,4.61,1.03,3.27-.56,6.36-3.6,7.9-2.13,1.08-4.52,1.66-6.96,1.85-7.3.54-12.83,6.14-13.03,13.6-.25,9.27,7.25,17.24,16.45,17.95,7.19.55,13.29-3.9,14.85-10.81l.58-2.55c.56-2.53.85-5.07,2.31-7.22,1.61-2.38,4.18-3.56,7.02-2.83,1.69.43,3.94,1.27,5.28,2.59l16.34,16.28Z"/>
        </g>
        <g class="cls-1">
          <path class="cls-2" d="M1140.44,2045.45c-3.69,4.83-9.75,6.47-15.43,4.33-4.63-1.74-8.06-5.07-12.47-6.17-2.55-.64-4.78.54-5.79,2.98-.93,2.29-1.77,5-1.76,7.61l.04,23.22c0,2.69-2.6,4.77-5.12,4.78l-25.22.22c-2.61.02-5.16,2.21-6.17,4.37-2.07,4.47,2.14,9.03,4.33,12.44,4.01,6.22,3.13,13.77-2.47,18.66-6.52,5.7-16.55,5.73-23.18.15-5.99-5.05-6.85-13.47-1.93-19.53,3.78-4.65,6.61-10.72,1.5-14.25-.83-.57-2.49-1.66-3.63-1.66l-26.36.07c-2.34,0-3.85-2.31-4.59-4.15l-.16-25.67,1.22-3.17c1.18-3.37,4.43-4.9,7.85-4.19,3.21.68,5.43,2.85,8.05,4.44,3.61,2.19,7.65,3.23,11.68,2.05,5.38-1.59,9.25-5.94,10.67-11.31,1.59-6.04.2-12.35-4.02-16.88-4.94-5.31-12.77-6.19-18.56-1.77-2.25,1.72-4.34,3.49-7.06,4.39-3.72,1.24-7.52-.19-8.81-3.94l-1.23-3.47-.15-25.19c.83-2.67,3.06-4,5.91-4.01l21.05-.1c2.46-.02,4.9-.78,6.92-1.94,2.96-1.7,4.02-4.92,2.98-8.07-.89-2.67-2.45-4.8-4.2-6.96-4.71-5.85-3.99-13.99,1.59-19.01,6.95-6.26,17.8-6.08,24.42.51,4.71,4.7,5.34,11.55,2.06,17.14-.41.69-.77,1.45-1.26,2.06-1.62,2.07-3.04,4.3-3.61,6.87-.65,2.93.45,5.69,3.09,7.18,1.72.98,4.01,1.95,6.15,1.95l22.7-.09c2.94-.02,5.08,2.34,5.11,5.21l.18,22.28c.02,2.33,1.08,4.73,2.12,6.64,1.42,2.62,4.06,3.75,7.02,3.25,5.4-.89,9.88-6.31,15.74-6.38,5.43-.07,10.74,3.35,13.02,8.27,2.62,5.63,1.46,12.05-2.21,16.85Z"/>
          <path class="cls-2" d="M1202.3,2076.84c.02,2.56-1.78,5.46-4.63,5.49l-26.26.28c-1.4.02-3.16,1.28-4.12,2.07-2.14,1.76-2.56,4.43-1.88,6.97.78,2.91,2.58,5.07,4.38,7.41,4.21,5.42,3.91,12.73-.82,17.83-6.04,6.51-16.48,7.41-23.69,1.97-6.51-4.9-7.71-13.56-2.85-19.82,1.76-2.27,3.42-4.46,4.19-7.25.95-3.49-.64-6.92-4.02-8.21l-2.14-.8-25.94.17c-2.98-.27-4.96-2.63-4.97-5.58l-.1-22.71c-.01-2.11,1.61-4.51,3.46-5.26,3.1-1.25,7.83,2.76,12.63,4.79,5.52,2.32,11.51,1.59,16.24-2.26,6.09-4.98,9.33-13.3,7.54-21.16-1.2-5.21-4.82-9.64-9.09-12.51-6.17-4.15-13.72-2.6-19.94,1.13-2.79,1.67-6.37,3.98-8.56,2.5-2.23-1.52-2.68-4.14-2.68-6.66v-19.43c-.01-2.86,1.71-5.66,4.89-5.7l23.12-.24c2.34-.02,4.73-1.12,6.49-2.37,4.61-3.26,2.56-9.49-1.12-13.55-5.58-6.17-5.08-15.23,1.47-20.57,6.45-5.26,15.96-5.34,22.47-.15,6.62,5.28,7.3,14.35,1.74,20.58-3.78,4.23-5.6,10.79-.6,13.81,1.82,1.09,4.16,2.03,6.41,2.03l23.24-.03c2.46,0,4.57,2.6,4.58,4.97l.13,23.67c0,1.61-.96,3.5-1.65,4.85-1.56,3.05-4.87,4.13-8.12,3.09-2.27-.73-4.39-1.99-6.25-3.57-5.57-4.74-13.44-4.65-18.83.52-6.7,6.42-6.96,17.36-.91,24.33,4.73,5.45,12.2,6.56,18.16,2.75l2.2-1.41c2.18-1.4,4.16-3.01,6.71-3.51,2.81-.56,5.48.4,6.98,2.92.9,1.5,1.91,3.67,1.93,5.55l.19,23.07Z"/>
        </g>
        <g class="cls-1">
          <path class="cls-2" d="M1050.61,1210.45c-3.69,4.83-9.75,6.47-15.43,4.33-4.63-1.74-8.06-5.07-12.47-6.17-2.55-.64-4.78.54-5.79,2.98-.93,2.29-1.77,5-1.76,7.61l.04,23.22c0,2.69-2.6,4.77-5.12,4.78l-25.22.22c-2.61.02-5.16,2.21-6.17,4.37-2.07,4.47,2.14,9.03,4.33,12.44,4.01,6.22,3.13,13.77-2.47,18.66-6.52,5.7-16.55,5.73-23.18.15-5.99-5.05-6.85-13.47-1.93-19.53,3.78-4.65,6.61-10.72,1.5-14.25-.83-.57-2.49-1.66-3.63-1.66l-26.36.07c-2.34,0-3.85-2.31-4.59-4.15l-.16-25.67,1.22-3.17c1.18-3.37,4.43-4.9,7.85-4.19,3.21.68,5.43,2.85,8.05,4.44,3.61,2.19,7.65,3.23,11.68,2.05,5.38-1.59,9.25-5.94,10.67-11.31,1.59-6.04.2-12.35-4.02-16.88-4.94-5.31-12.77-6.19-18.56-1.77-2.25,1.72-4.34,3.49-7.06,4.39-3.72,1.24-7.52-.19-8.81-3.94l-1.23-3.47-.15-25.19c.83-2.67,3.06-4,5.91-4.01l21.05-.1c2.46-.02,4.9-.78,6.92-1.94,2.96-1.7,4.02-4.92,2.98-8.07-.89-2.67-2.45-4.8-4.2-6.96-4.71-5.85-3.99-13.99,1.59-19.01,6.95-6.26,17.8-6.08,24.42.51,4.71,4.7,5.34,11.55,2.06,17.14-.41.69-.77,1.45-1.26,2.06-1.62,2.07-3.04,4.3-3.61,6.87-.65,2.93.45,5.69,3.09,7.18,1.72.98,4.01,1.95,6.15,1.95l22.7-.09c2.94-.02,5.08,2.34,5.11,5.21l.18,22.28c.02,2.33,1.08,4.73,2.12,6.64,1.42,2.62,4.06,3.75,7.02,3.25,5.4-.89,9.88-6.31,15.74-6.38,5.43-.07,10.74,3.35,13.02,8.27,2.62,5.63,1.46,12.05-2.21,16.85Z"/>
          <path class="cls-2" d="M1112.47,1241.84c.02,2.56-1.78,5.46-4.63,5.49l-26.26.28c-1.4.02-3.16,1.28-4.12,2.07-2.14,1.76-2.56,4.43-1.88,6.97.78,2.91,2.58,5.07,4.38,7.41,4.21,5.42,3.91,12.73-.82,17.83-6.04,6.51-16.48,7.41-23.69,1.97-6.51-4.9-7.71-13.56-2.85-19.82,1.76-2.27,3.42-4.46,4.19-7.25.95-3.49-.64-6.92-4.02-8.21l-2.14-.8-25.94.17c-2.98-.27-4.96-2.63-4.97-5.58l-.1-22.71c-.01-2.11,1.61-4.51,3.46-5.26,3.1-1.25,7.83,2.76,12.63,4.79,5.52,2.32,11.51,1.59,16.24-2.26,6.09-4.98,9.33-13.3,7.54-21.16-1.2-5.21-4.82-9.64-9.09-12.51-6.17-4.15-13.72-2.6-19.94,1.13-2.79,1.67-6.37,3.98-8.56,2.5-2.23-1.52-2.68-4.14-2.68-6.66v-19.43c-.01-2.86,1.71-5.66,4.89-5.7l23.12-.24c2.34-.02,4.73-1.12,6.49-2.37,4.61-3.26,2.56-9.49-1.12-13.55-5.58-6.17-5.08-15.23,1.47-20.57,6.45-5.26,15.96-5.34,22.47-.15,6.62,5.28,7.3,14.35,1.74,20.58-3.78,4.23-5.6,10.79-.6,13.81,1.82,1.09,4.16,2.03,6.41,2.03l23.24-.03c2.46,0,4.57,2.6,4.58,4.97l.13,23.67c0,1.61-.96,3.5-1.65,4.85-1.56,3.05-4.87,4.13-8.12,3.09-2.27-.73-4.39-1.99-6.25-3.57-5.57-4.74-13.44-4.65-18.83.52-6.7,6.42-6.96,17.36-.91,24.33,4.73,5.45,12.2,6.56,18.16,2.75l2.2-1.41c2.18-1.4,4.16-3.01,6.71-3.51,2.81-.56,5.48.4,6.98,2.92.9,1.5,1.91,3.67,1.93,5.55l.19,23.07Z"/>
        </g>
        <g class="cls-1">
          <path class="cls-2" d="M631.1,1969.6c-3.16.08-5.82-1.84-6.8-4.85-.81-2.45-.58-4.93-1.58-7.08-.57-1.24-1.78-1.76-3.1-1.37-1.23.37-2.61.92-3.67,1.77l-9.41,7.61c-1.09.88-2.78.51-3.62-.51l-8.34-10.16c-.86-1.05-2.59-1.37-3.79-1.07-2.49.62-2.97,3.82-3.63,5.83-1.21,3.66-4.56,5.77-8.38,5.11-4.44-.78-7.74-4.84-7.64-9.36.09-4.08,3.22-7.19,7.29-7.17,3.12.01,6.51-.83,6.27-4.05-.04-.52-.14-1.55-.52-2.02l-8.65-10.68c-.77-.95-.32-2.32.18-3.22l10.37-8.46,1.69-.54c1.75-.63,3.44.2,4.27,1.81.78,1.53.62,3.14.83,4.72.29,2.18,1.19,4.16,2.99,5.41,2.4,1.66,5.44,1.81,8.08.63,2.97-1.33,5.08-3.96,5.54-7.16.54-3.74-1.66-7.21-5.36-8.11-1.43-.35-2.84-.62-4.09-1.43-1.72-1.1-2.38-3.12-1.28-4.86l1-1.63,10.17-8.3c1.36-.54,2.62-.07,3.56,1.09l6.93,8.51c.81.99,1.92,1.73,3.05,2.17,1.66.65,3.31.02,4.25-1.43.79-1.24,1.14-2.56,1.45-3.98.83-3.82,4.37-6.19,8.23-5.57,4.82.77,8.29,5.23,7.78,10.08-.37,3.45-2.94,5.94-6.28,6.44-.41.06-.84.16-1.25.17-1.37.02-2.74.17-3.97.78-1.4.7-2.16,2.05-1.9,3.6.17,1.02.52,2.27,1.22,3.13l7.46,9.18c.97,1.19.71,2.83-.44,3.78l-8.98,7.36c-.94.77-1.56,1.98-2,3.03-.6,1.43-.19,2.87.98,3.91,2.13,1.9,5.79,1.95,7.74,4.3,1.8,2.18,2.15,5.45.91,7.99-1.43,2.91-4.41,4.53-7.56,4.62Z"/>
          <path class="cls-2" d="M638.6,2004.98c-1.03.84-2.8,1.07-3.74-.08l-8.71-10.56c-.46-.56-1.55-.86-2.19-1-1.42-.29-2.64.41-3.45,1.52-.93,1.27-1.21,2.7-1.57,4.2-.82,3.48-3.89,5.75-7.5,5.5-4.62-.32-8.4-4.26-8.55-8.97-.14-4.25,2.98-7.56,7.11-7.64,1.5-.03,2.93-.07,4.31-.67,1.73-.76,2.6-2.52,2.01-4.32l-.38-1.13-8.56-10.47c-.87-1.3-.56-2.87.64-3.84l9.18-7.47c.85-.69,2.36-.82,3.27-.32,1.52.85,1.44,4.08,2.19,6.69.86,3,3.12,5.19,6.23,5.85,4.01.84,8.45-.57,11.05-3.86,1.72-2.19,2.33-5.11,2.11-7.78-.33-3.86-3.43-6.42-6.98-7.72-1.59-.59-3.7-1.28-3.81-2.65-.11-1.4.8-2.44,1.82-3.27l7.88-6.36c1.16-.94,2.86-1.15,3.92.13l7.66,9.3c.78.94,2,1.55,3.08,1.86,2.83.8,4.69-2.07,5.13-4.89.68-4.28,4.52-7.04,8.83-6.14,4.25.9,7.39,4.73,7.41,9.07.02,4.41-3.44,7.66-7.78,7.44-2.95-.15-6.21,1.26-5.8,4.27.15,1.09.54,2.35,1.27,3.27l7.62,9.42c.81,1,.44,2.71-.52,3.48l-9.56,7.8c-.65.53-1.73.75-2.51.92-1.75.36-3.27-.63-3.91-2.28-.45-1.16-.63-2.43-.59-3.71.1-3.81-2.51-6.97-6.37-7.47-4.79-.62-9.32,2.86-10.17,7.59-.66,3.7,1.33,7.1,4.83,8.27l1.29.43c1.28.42,2.58.7,3.62,1.57,1.15.96,1.63,2.36,1.1,3.79-.31.86-.86,1.98-1.62,2.6l-9.3,7.62Z"/>
        </g>
        <g class="cls-1">
          <path class="cls-2" d="M1518.94,1887.1c1,7.89-3.13,15-10.39,18.23-5.91,2.64-12.17,2.7-17.29,5.72-2.96,1.75-3.96,4.9-2.65,8.11,1.24,2.99,2.95,6.28,5.36,8.71l21.39,21.59c2.48,2.49,1.97,6.83-.37,9.17l-23.28,23.41c-2.4,2.42-2.78,6.81-1.72,9.74,2.19,6.07,10.3,6.45,15.47,7.6,9.46,2.11,15.58,9.94,14.87,19.65-.83,11.3-10.14,20.57-21.45,21.47-10.23.8-18.78-6.24-19.76-16.41-.76-7.81-3.71-16.06-11.71-14.66-1.3.23-3.85.75-4.91,1.8l-24.49,24.32c-2.17,2.15-5.72,1.39-8.1.36l-23.76-23.76-1.78-4.08c-2.01-4.23-.38-8.64,3.46-11.12,3.62-2.32,7.68-2.34,11.58-3.27,5.38-1.28,10.1-4.02,12.76-8.84,3.55-6.43,3.16-14.04-.47-20.36-4.07-7.08-11.18-11.68-19.28-12.02-9.48-.4-17.59,5.98-18.91,15.43-.51,3.67-.83,7.25-2.53,10.58-2.32,4.57-7.18,6.74-11.83,4.43l-4.33-2.1-23.32-23.32c-1.68-3.26-.83-6.54,1.81-9.17l19.51-19.46c2.28-2.28,3.85-5.24,4.66-8.17,1.2-4.31-.79-8.28-4.66-10.26-3.29-1.67-6.7-2.21-10.32-2.62-9.77-1.12-16.58-9.36-16.01-19.17.71-12.23,10.99-22.03,23.21-21.98,8.71.05,15.59,5.85,17.68,14.07.26,1.02.62,2.06.73,3.08.4,3.43,1.12,6.8,2.96,9.72,2.1,3.33,5.66,4.88,9.48,3.85,2.5-.67,5.53-1.87,7.52-3.85l21.06-20.96c2.72-2.72,6.88-2.49,9.55.15l20.66,20.58c2.16,2.15,5.35,3.41,8.08,4.23,3.72,1.13,7.22-.24,9.53-3.43,4.21-5.8,3.4-14.96,8.79-20.42,5-5.06,13.08-6.76,19.73-4.28,7.63,2.83,12.45,9.87,13.45,17.72Z"/>
          <path class="cls-2" d="M1605.43,1859.43c2.37,2.37,3.37,6.72.74,9.37l-24.19,24.42c-1.29,1.3-1.77,4.1-1.94,5.72-.37,3.61,1.69,6.49,4.66,8.23,3.4,1.99,7.06,2.35,10.9,2.87,8.91,1.17,15.35,8.26,15.64,17.36.36,11.62-8.53,22.06-20.25,23.64-10.57,1.42-19.65-5.53-20.89-15.84-.45-3.73-.92-7.3-2.77-10.61-2.32-4.12-6.96-5.86-11.3-3.94l-2.73,1.22-24.01,24.02c-3.03,2.49-7.04,2.11-9.76-.62l-20.98-21.06c-1.95-1.95-2.66-5.68-1.62-8.08,1.73-4.02,9.83-4.63,16.17-7.17,7.27-2.91,12.19-9.11,13.04-17.04,1.09-10.24-3.55-20.97-12.45-26.65-5.9-3.75-13.35-4.54-19.98-3.3-9.56,1.81-15.17,10.2-17.53,19.39-1.06,4.12-2.27,9.57-5.67,10.2-3.47.64-6.31-1.38-8.62-3.73l-17.89-18.08c-2.63-2.66-3.6-6.86-.67-9.82l21.31-21.49c2.16-2.18,3.38-5.4,3.87-8.18,1.3-7.27-6.35-11.19-13.51-11.59-10.87-.61-18.74-9.51-17.56-20.51,1.17-10.83,9.95-19.65,20.79-20.81,11.02-1.17,20,6.66,20.55,17.57.37,7.42,4.71,15.21,12.15,13.41,2.7-.66,5.74-1.94,7.84-4l21.62-21.41c2.28-2.27,6.66-1.78,8.83.41l21.89,21.93c1.49,1.49,2.32,4.14,2.92,6.03,1.35,4.28-.74,8.33-4.71,10.35-2.79,1.41-5.92,2.18-9.11,2.42-9.55.71-16.79,8.03-17.06,17.81-.33,12.14,9.49,22.57,21.54,23.5,9.42.72,17.4-5.11,19.44-14.15l.75-3.34c.74-3.31,1.11-6.63,3.02-9.45,2.11-3.11,5.47-4.66,9.19-3.7,2.22.57,5.16,1.66,6.91,3.39l21.39,21.31Z"/>
        </g>
        <g class="cls-1">
          <path class="cls-2" d="M310.78,1572.18c1.58-.2,3.01.63,3.66,2.09.53,1.19.54,2.44,1.15,3.47.35.59.98.79,1.63.53.6-.25,1.26-.59,1.75-1.08l4.33-4.29c.5-.5,1.37-.39,1.84.07l4.7,4.67c.49.48,1.37.56,1.96.35,1.22-.44,1.29-2.07,1.53-3.11.42-1.9,2-3.13,3.94-2.99,2.27.17,4.13,2.03,4.31,4.31.16,2.05-1.25,3.77-3.29,3.97-1.57.15-3.22.74-2.94,2.35.05.26.15.77.36.98l4.88,4.92c.43.44.28,1.15.07,1.63l-4.77,4.77-.82.36c-.85.4-1.73.08-2.23-.69-.47-.73-.47-1.54-.66-2.32-.26-1.08-.81-2.03-1.77-2.56-1.29-.71-2.82-.63-4.09.09-1.42.82-2.35,2.24-2.41,3.87-.08,1.9,1.2,3.53,3.1,3.8.74.1,1.45.17,2.12.51.92.47,1.35,1.44.89,2.37l-.42.87-4.68,4.68c-.65.34-1.31.17-1.84-.36l-3.91-3.92c-.46-.46-1.05-.77-1.64-.93-.86-.24-1.66.16-2.06.93-.33.66-.44,1.34-.53,2.07-.22,1.96-1.88,3.33-3.85,3.21-2.45-.14-4.42-2.21-4.41-4.66,0-1.75,1.17-3.13,2.82-3.55.2-.05.41-.12.62-.15.69-.08,1.37-.22,1.95-.59.67-.42.98-1.14.77-1.9-.13-.5-.38-1.11-.77-1.51l-4.21-4.23c-.55-.55-.5-1.38.03-1.92l4.13-4.15c.43-.43.68-1.07.85-1.62.23-.75-.05-1.45-.69-1.91-1.16-.85-3-.68-4.1-1.76-1.02-1-1.36-2.62-.86-3.96.57-1.53,1.98-2.5,3.56-2.7Z"/>
          <path class="cls-2" d="M305.22,1554.82c.48-.48,1.35-.68,1.88-.15l4.9,4.86c.26.26.82.35,1.15.39.72.07,1.3-.34,1.65-.94.4-.68.47-1.42.58-2.19.24-1.79,1.66-3.08,3.48-3.14,2.33-.07,4.43,1.71,4.74,4.06.29,2.12-1.11,3.94-3.18,4.19-.75.09-1.46.18-2.13.56-.83.47-1.18,1.4-.79,2.27l.25.55,4.82,4.82c.5.61.42,1.41-.13,1.96l-4.23,4.21c-.39.39-1.14.53-1.62.33-.81-.35-.93-1.97-1.44-3.25-.59-1.46-1.83-2.45-3.42-2.62-2.06-.22-4.21.71-5.35,2.5-.75,1.18-.91,2.68-.66,4.01.36,1.92,2.05,3.05,3.89,3.52.83.21,1.92.46,2.05,1.14.13.7-.28,1.27-.75,1.73l-3.63,3.59c-.53.53-1.38.72-1.97.13l-4.31-4.28c-.44-.43-1.08-.68-1.64-.78-1.46-.26-2.25,1.27-2.33,2.71-.12,2.18-1.91,3.76-4.12,3.53-2.17-.23-3.94-2-4.18-4.17-.24-2.21,1.34-4.01,3.53-4.12,1.49-.07,3.05-.95,2.69-2.44-.13-.54-.39-1.15-.8-1.57l-4.3-4.34c-.46-.46-.36-1.34.08-1.77l4.4-4.39c.3-.3.83-.47,1.21-.59.86-.27,1.67.15,2.08.95.28.56.44,1.19.49,1.83.14,1.92,1.61,3.37,3.57,3.42,2.44.07,4.53-1.9,4.72-4.32.14-1.89-1.03-3.49-2.84-3.9l-.67-.15c-.66-.15-1.33-.22-1.9-.61-.62-.42-.94-1.1-.74-1.84.11-.45.33-1.04.68-1.39l4.28-4.29Z"/>
        </g>
        <g class="cls-1">
          <path class="cls-2" d="M537.26,1646.71c1.58-.2,3.01.63,3.66,2.09.53,1.19.54,2.44,1.15,3.47.35.59.98.79,1.63.53.6-.25,1.26-.59,1.75-1.08l4.33-4.29c.5-.5,1.37-.39,1.84.07l4.7,4.67c.49.48,1.37.56,1.96.35,1.22-.44,1.29-2.07,1.53-3.11.42-1.9,2-3.13,3.94-2.99,2.27.17,4.13,2.03,4.31,4.31.16,2.05-1.25,3.77-3.29,3.97-1.57.15-3.22.74-2.94,2.35.05.26.15.77.36.98l4.88,4.92c.43.44.28,1.15.07,1.63l-4.77,4.77-.82.36c-.85.4-1.73.08-2.23-.69-.47-.73-.47-1.54-.66-2.32-.26-1.08-.81-2.03-1.77-2.56-1.29-.71-2.82-.63-4.09.09-1.42.82-2.35,2.24-2.41,3.87-.08,1.9,1.2,3.53,3.1,3.8.74.1,1.45.17,2.12.51.92.47,1.35,1.44.89,2.37l-.42.87-4.68,4.68c-.65.34-1.31.17-1.84-.36l-3.91-3.92c-.46-.46-1.05-.77-1.64-.93-.86-.24-1.66.16-2.06.93-.33.66-.44,1.34-.53,2.07-.22,1.96-1.88,3.33-3.85,3.21-2.45-.14-4.42-2.21-4.41-4.66,0-1.75,1.17-3.13,2.82-3.55.2-.05.41-.12.62-.15.69-.08,1.37-.22,1.95-.59.67-.42.98-1.14.77-1.9-.13-.5-.38-1.11-.77-1.51l-4.21-4.23c-.55-.55-.5-1.38.03-1.92l4.13-4.15c.43-.43.68-1.07.85-1.62.23-.75-.05-1.45-.69-1.91-1.16-.85-3-.68-4.1-1.76-1.02-1-1.36-2.62-.86-3.96.57-1.53,1.98-2.5,3.56-2.7Z"/>
          <path class="cls-2" d="M531.71,1629.35c.48-.48,1.35-.68,1.88-.15l4.9,4.86c.26.26.82.35,1.15.39.72.07,1.3-.34,1.65-.94.4-.68.47-1.42.58-2.19.24-1.79,1.66-3.08,3.48-3.14,2.33-.07,4.43,1.71,4.74,4.06.29,2.12-1.11,3.94-3.18,4.19-.75.09-1.46.18-2.13.56-.83.47-1.18,1.4-.79,2.27l.25.55,4.82,4.82c.5.61.42,1.41-.13,1.96l-4.23,4.21c-.39.39-1.14.53-1.62.33-.81-.35-.93-1.97-1.44-3.25-.59-1.46-1.83-2.45-3.42-2.62-2.06-.22-4.21.71-5.35,2.5-.75,1.18-.91,2.68-.66,4.01.36,1.92,2.05,3.05,3.89,3.52.83.21,1.92.46,2.05,1.14.13.7-.28,1.27-.75,1.73l-3.63,3.59c-.53.53-1.38.72-1.97.13l-4.31-4.28c-.44-.43-1.08-.68-1.64-.78-1.46-.26-2.25,1.27-2.33,2.71-.12,2.18-1.91,3.76-4.12,3.53-2.17-.23-3.94-2-4.18-4.17-.24-2.21,1.34-4.01,3.53-4.12,1.49-.07,3.05-.95,2.69-2.44-.13-.54-.39-1.15-.8-1.57l-4.3-4.34c-.46-.46-.36-1.34.08-1.77l4.4-4.39c.3-.3.83-.47,1.21-.59.86-.27,1.67.15,2.08.95.28.56.44,1.19.49,1.83.14,1.92,1.61,3.37,3.57,3.42,2.44.07,4.53-1.9,4.72-4.32.14-1.89-1.03-3.49-2.84-3.9l-.67-.15c-.66-.15-1.33-.22-1.9-.61-.62-.42-.94-1.1-.74-1.84.11-.45.33-1.04.68-1.39l4.28-4.29Z"/>
        </g>
        <g class="cls-1">
          <path class="cls-2" d="M1253.92,1452.72c1.58-.2,3.01.63,3.66,2.09.53,1.19.54,2.44,1.15,3.47.35.59.98.79,1.63.53.6-.25,1.26-.59,1.75-1.08l4.33-4.29c.5-.5,1.37-.39,1.84.07l4.7,4.67c.49.48,1.37.56,1.96.35,1.22-.44,1.29-2.07,1.53-3.11.42-1.9,2-3.13,3.94-2.99,2.27.17,4.13,2.03,4.31,4.31.16,2.05-1.25,3.77-3.29,3.97-1.57.15-3.22.74-2.94,2.35.05.26.15.77.36.98l4.88,4.92c.43.44.28,1.15.07,1.63l-4.77,4.77-.82.36c-.85.4-1.73.08-2.23-.69-.47-.73-.47-1.54-.66-2.32-.26-1.08-.81-2.03-1.77-2.56-1.29-.71-2.82-.63-4.09.09-1.42.82-2.35,2.24-2.41,3.87-.08,1.9,1.2,3.53,3.1,3.8.74.1,1.45.17,2.12.51.92.47,1.35,1.44.89,2.37l-.42.87-4.68,4.68c-.65.34-1.31.17-1.84-.36l-3.91-3.92c-.46-.46-1.05-.77-1.64-.93-.86-.24-1.66.16-2.06.93-.33.66-.44,1.34-.53,2.07-.22,1.96-1.88,3.33-3.85,3.21-2.45-.14-4.42-2.21-4.41-4.66,0-1.75,1.17-3.13,2.82-3.55.2-.05.41-.12.62-.15.69-.08,1.37-.22,1.95-.59.67-.42.98-1.14.77-1.9-.13-.5-.38-1.11-.77-1.51l-4.21-4.23c-.55-.55-.5-1.38.03-1.92l4.13-4.15c.43-.43.68-1.07.85-1.62.23-.75-.05-1.45-.69-1.91-1.16-.85-3-.68-4.1-1.76-1.02-1-1.36-2.62-.86-3.96.57-1.53,1.98-2.5,3.56-2.7Z"/>
          <path class="cls-2" d="M1248.37,1435.36c.48-.48,1.35-.68,1.88-.15l4.9,4.86c.26.26.82.35,1.15.39.72.07,1.3-.34,1.65-.94.4-.68.47-1.42.58-2.19.24-1.79,1.66-3.08,3.48-3.14,2.33-.07,4.43,1.71,4.74,4.06.29,2.12-1.11,3.94-3.18,4.19-.75.09-1.46.18-2.13.56-.83.47-1.18,1.4-.79,2.27l.25.55,4.82,4.82c.5.61.42,1.41-.13,1.96l-4.23,4.21c-.39.39-1.14.53-1.62.33-.81-.35-.93-1.97-1.44-3.25-.59-1.46-1.83-2.45-3.42-2.62-2.06-.22-4.21.71-5.35,2.5-.75,1.18-.91,2.68-.66,4.01.36,1.92,2.05,3.05,3.89,3.52.83.21,1.92.46,2.05,1.14.13.7-.28,1.27-.75,1.73l-3.63,3.59c-.53.53-1.38.72-1.97.13l-4.31-4.28c-.44-.43-1.08-.68-1.64-.78-1.46-.26-2.25,1.27-2.33,2.71-.12,2.18-1.91,3.76-4.12,3.53-2.17-.23-3.94-2-4.18-4.17-.24-2.21,1.34-4.01,3.53-4.12,1.49-.07,3.05-.95,2.69-2.44-.13-.54-.39-1.15-.8-1.57l-4.3-4.34c-.46-.46-.36-1.34.08-1.77l4.4-4.39c.3-.3.83-.47,1.21-.59.86-.27,1.67.15,2.08.95.28.56.44,1.19.49,1.83.14,1.92,1.61,3.37,3.57,3.42,2.44.07,4.53-1.9,4.72-4.32.14-1.89-1.03-3.49-2.84-3.9l-.67-.15c-.66-.15-1.33-.22-1.9-.61-.62-.42-.94-1.1-.74-1.84.11-.45.33-1.04.68-1.39l4.28-4.29Z"/>
        </g>
      </g>
    </g>
  </g>
</svg>