<?xml version="1.0" encoding="UTF-8"?>
<svg id="Layer_2" data-name="Layer 2" xmlns="http://www.w3.org/2000/svg" xmlns:xlink="http://www.w3.org/1999/xlink" viewBox="0 0 715.54 504.05">
  <defs>
    <style>
      .cls-1 {
        fill: url(#linear-gradient-15);
      }

      .cls-2 {
        fill: url(#linear-gradient-13);
      }

      .cls-3 {
        fill: url(#linear-gradient-2);
      }

      .cls-4 {
        fill: url(#linear-gradient-25);
      }

      .cls-5 {
        fill: url(#linear-gradient-10);
      }

      .cls-6 {
        fill: url(#linear-gradient-12);
      }

      .cls-7 {
        fill: url(#linear-gradient-26);
      }

      .cls-8 {
        fill: url(#linear-gradient-4);
      }

      .cls-9 {
        fill: url(#linear-gradient-3);
      }

      .cls-10 {
        fill: url(#linear-gradient-5);
      }

      .cls-11 {
        fill: url(#linear-gradient-22);
      }

      .cls-12 {
        fill: url(#linear-gradient-24);
      }

      .cls-13 {
        fill: url(#linear-gradient-8);
      }

      .cls-14 {
        fill: url(#linear-gradient-14);
      }

      .cls-15 {
        fill: url(#linear-gradient-20);
      }

      .cls-16 {
        fill: url(#linear-gradient-17);
      }

      .cls-17 {
        fill: url(#linear-gradient-7);
      }

      .cls-18 {
        fill: url(#linear-gradient-9);
      }

      .cls-19 {
        fill: url(#linear-gradient-11);
      }

      .cls-20 {
        fill: url(#linear-gradient-19);
      }

      .cls-21 {
        fill: url(#linear-gradient-6);
      }

      .cls-22 {
        fill: url(#linear-gradient-21);
      }

      .cls-23 {
        fill: url(#linear-gradient-16);
      }

      .cls-24 {
        fill: url(#linear-gradient);
      }

      .cls-25 {
        fill: url(#linear-gradient-23);
      }

      .cls-26 {
        fill: url(#linear-gradient-18);
      }
    </style>
    <linearGradient id="linear-gradient" x1="110.02" y1="20.08" x2="111.5" y2="141.57" gradientUnits="userSpaceOnUse">
      <stop offset="0" stop-color="#4a8c3e"/>
      <stop offset="1" stop-color="#1e6a35"/>
    </linearGradient>
    <linearGradient id="linear-gradient-2" x1="213.6" y1="18.89" x2="215.08" y2="140.39" xlink:href="#linear-gradient"/>
    <linearGradient id="linear-gradient-3" x1="320.41" y1="17.66" x2="321.89" y2="139.19" xlink:href="#linear-gradient"/>
    <linearGradient id="linear-gradient-4" x1="423.76" y1="16.47" x2="425.24" y2="138" xlink:href="#linear-gradient"/>
    <linearGradient id="linear-gradient-5" x1="519.83" y1="15.36" x2="521.31" y2="136.88" xlink:href="#linear-gradient"/>
    <linearGradient id="linear-gradient-6" x1="608.61" y1="14.34" x2="610.09" y2="135.86" xlink:href="#linear-gradient"/>
    <linearGradient id="linear-gradient-7" x1="110.02" y1="9.71" x2="111.5" y2="131.2" gradientUnits="userSpaceOnUse">
      <stop offset="0" stop-color="#6ac757"/>
      <stop offset="1" stop-color="#298f49"/>
    </linearGradient>
    <linearGradient id="linear-gradient-8" x1="213.6" y1="8.52" x2="215.08" y2="130.02" xlink:href="#linear-gradient-7"/>
    <linearGradient id="linear-gradient-9" x1="320.41" y1="7.29" x2="321.89" y2="128.82" xlink:href="#linear-gradient-7"/>
    <linearGradient id="linear-gradient-10" x1="423.76" y1="6.1" x2="425.24" y2="127.63" xlink:href="#linear-gradient-7"/>
    <linearGradient id="linear-gradient-11" x1="519.83" y1="4.99" x2="521.31" y2="126.52" xlink:href="#linear-gradient-7"/>
    <linearGradient id="linear-gradient-12" x1="608.61" y1="3.97" x2="610.09" y2="125.49" xlink:href="#linear-gradient-7"/>
    <linearGradient id="linear-gradient-13" x1="308.27" y1="171.23" x2="309.58" y2="278.96" xlink:href="#linear-gradient"/>
    <linearGradient id="linear-gradient-14" x1="401.22" y1="170.18" x2="402.54" y2="277.88" xlink:href="#linear-gradient"/>
    <linearGradient id="linear-gradient-15" x1="308.27" y1="162.04" x2="309.58" y2="269.77" xlink:href="#linear-gradient-7"/>
    <linearGradient id="linear-gradient-16" x1="401.22" y1="160.99" x2="402.54" y2="268.69" xlink:href="#linear-gradient-7"/>
    <linearGradient id="linear-gradient-17" x1="70.91" y1="326.22" x2="73.41" y2="531.3" xlink:href="#linear-gradient"/>
    <linearGradient id="linear-gradient-18" x1="241.03" y1="324.42" x2="243.53" y2="529.58" xlink:href="#linear-gradient"/>
    <linearGradient id="linear-gradient-19" x1="358.84" y1="323.1" x2="361.34" y2="528.17" xlink:href="#linear-gradient"/>
    <linearGradient id="linear-gradient-20" x1="482.78" y1="321.63" x2="485.28" y2="526.79" xlink:href="#linear-gradient"/>
    <linearGradient id="linear-gradient-21" x1="649.47" y1="319.71" x2="651.97" y2="524.86" xlink:href="#linear-gradient"/>
    <linearGradient id="linear-gradient-22" x1="70.91" y1="308.72" x2="73.41" y2="513.8" xlink:href="#linear-gradient-7"/>
    <linearGradient id="linear-gradient-23" x1="241.03" y1="306.92" x2="243.53" y2="512.08" xlink:href="#linear-gradient-7"/>
    <linearGradient id="linear-gradient-24" x1="358.84" y1="305.59" x2="361.34" y2="510.67" xlink:href="#linear-gradient-7"/>
    <linearGradient id="linear-gradient-25" x1="482.78" y1="304.13" x2="485.28" y2="509.28" xlink:href="#linear-gradient-7"/>
    <linearGradient id="linear-gradient-26" x1="649.47" y1="302.21" x2="651.97" y2="507.35" xlink:href="#linear-gradient-7"/>
  </defs>
  <g id="Layer_1-2" data-name="Layer 1">
    <g>
      <g>
        <path class="cls-24" d="M67.89,115.2V10.37h45.36c8.33,0,15.52,1.53,21.57,4.57,6.05,3.05,10.7,7.29,13.94,12.73,3.25,5.44,4.87,11.75,4.87,18.93s-1.66,13.51-4.98,18.85c-3.32,5.35-8.06,9.52-14.2,12.52-6.15,3-13.46,4.5-21.94,4.5h-28.11v-19.63h23.35c4.11,0,7.56-.68,10.34-2.04,2.78-1.36,4.86-3.26,6.25-5.7,1.39-2.44,2.08-5.28,2.08-8.51s-.69-6.13-2.08-8.55c-1.39-2.42-3.48-4.28-6.28-5.59-2.8-1.31-6.26-1.97-10.37-1.97h-13.53v84.71h-26.25Z"/>
        <path class="cls-3" d="M213.87,116.53c-9.32,0-17.49-1.58-24.5-4.75-7.02-3.17-12.47-7.64-16.36-13.44-3.89-5.79-5.84-12.58-5.84-20.37V10.37h26.25v65.57c0,3.66.87,6.92,2.6,9.78,1.74,2.86,4.13,5.1,7.18,6.72,3.05,1.62,6.61,2.43,10.67,2.43s7.65-.81,10.75-2.43c3.1-1.62,5.5-3.86,7.21-6.72,1.71-2.86,2.56-6.12,2.56-9.78V10.37h26.25v67.61c0,7.79-1.96,14.58-5.88,20.37-3.92,5.79-9.38,10.27-16.4,13.44-7.02,3.17-15.18,4.75-24.5,4.75Z"/>
        <path class="cls-9" d="M277.38,115.2v-14.21l43.06-56.14c2.97-3.89,6.28-7.77,9.93-11.64,3.64-3.87,7.33-7.73,11.04-11.57l1.78,8.02c-5.11.47-10.22.75-15.36.84-5.13.09-10.27.14-15.43.14h-35.1V10.37h87.23v14.28l-42.24,55.09c-3.12,4.03-6.58,8.07-10.37,12.1-3.79,4.03-7.62,8.07-11.49,12.1l-1.78-8.02c5.5-.47,10.97-.75,16.4-.84,5.43-.09,10.87-.14,16.32-.14h33.24v20.26h-87.23Z"/>
        <path class="cls-8" d="M380.75,115.2v-14.21l43.06-56.14c2.97-3.89,6.28-7.77,9.93-11.64,3.64-3.87,7.33-7.73,11.04-11.57l1.78,8.02c-5.11.47-10.22.75-15.36.84-5.13.09-10.27.14-15.43.14h-35.1V10.37h87.23v14.28l-42.24,55.09c-3.12,4.03-6.58,8.07-10.37,12.1s-7.62,8.07-11.49,12.1l-1.78-8.02c5.5-.47,10.97-.75,16.4-.84,5.43-.09,10.87-.14,16.32-.14h33.24v20.26h-87.23Z"/>
        <path class="cls-10" d="M484.64,115.2V10.37h26.25v84.57h46.33v20.26h-72.58Z"/>
        <path class="cls-21" d="M570.75,115.2V10.37h76.89v20.26h-50.64v21.67h46.63v19.84h-46.63v22.79h50.57v20.26h-76.82Z"/>
        <path class="cls-17" d="M67.89,104.83V0h45.36c8.33,0,15.52,1.53,21.57,4.57,6.05,3.05,10.7,7.29,13.94,12.73,3.25,5.44,4.87,11.75,4.87,18.93s-1.66,13.51-4.98,18.85c-3.32,5.35-8.06,9.52-14.2,12.52-6.15,3-13.46,4.5-21.94,4.5h-28.11v-19.63h23.35c4.11,0,7.56-.68,10.34-2.04,2.78-1.36,4.86-3.26,6.25-5.7s2.08-5.28,2.08-8.51-.69-6.13-2.08-8.55c-1.39-2.42-3.48-4.28-6.28-5.59-2.8-1.31-6.26-1.97-10.37-1.97h-13.53v84.71h-26.25Z"/>
        <path class="cls-13" d="M213.87,106.17c-9.32,0-17.49-1.58-24.5-4.75-7.02-3.17-12.47-7.64-16.36-13.44-3.89-5.79-5.84-12.58-5.84-20.37V0h26.25v65.57c0,3.66.87,6.92,2.6,9.78,1.74,2.86,4.13,5.1,7.18,6.72,3.05,1.62,6.61,2.43,10.67,2.43s7.65-.81,10.75-2.43c3.1-1.62,5.5-3.86,7.21-6.72,1.71-2.86,2.56-6.12,2.56-9.78V0h26.25v67.61c0,7.79-1.96,14.58-5.88,20.37-3.92,5.79-9.38,10.27-16.4,13.44-7.02,3.17-15.18,4.75-24.5,4.75Z"/>
        <path class="cls-18" d="M277.38,104.83v-14.21l43.06-56.14c2.97-3.89,6.28-7.77,9.93-11.64,3.64-3.87,7.33-7.73,11.04-11.57l1.78,8.02c-5.11.47-10.22.75-15.36.84-5.13.09-10.27.14-15.43.14h-35.1V0h87.23v14.28l-42.24,55.09c-3.12,4.03-6.58,8.07-10.37,12.1-3.79,4.03-7.62,8.07-11.49,12.1l-1.78-8.02c5.5-.47,10.97-.75,16.4-.84,5.43-.09,10.87-.14,16.32-.14h33.24v20.26h-87.23Z"/>
        <path class="cls-5" d="M380.75,104.83v-14.21l43.06-56.14c2.97-3.89,6.28-7.77,9.93-11.64,3.64-3.87,7.33-7.73,11.04-11.57l1.78,8.02c-5.11.47-10.22.75-15.36.84-5.13.09-10.27.14-15.43.14h-35.1V0h87.23v14.28l-42.24,55.09c-3.12,4.03-6.58,8.07-10.37,12.1-3.79,4.03-7.62,8.07-11.49,12.1l-1.78-8.02c5.5-.47,10.97-.75,16.4-.84,5.43-.09,10.87-.14,16.32-.14h33.24v20.26h-87.23Z"/>
        <path class="cls-19" d="M484.64,104.83V0h26.25v84.57h46.33v20.26h-72.58Z"/>
        <path class="cls-6" d="M570.75,104.83V0h76.89v20.26h-50.64v21.67h46.63v19.84h-46.63v22.79h50.57v20.26h-76.82Z"/>
      </g>
      <g>
        <path class="cls-2" d="M267.01,187.03v-17.97h82.68v17.97h-29.74v74.98h-23.21v-74.98h-29.74Z"/>
        <path class="cls-14" d="M401.84,263.25c-8.84,0-16.78-1.85-23.83-5.55-7.06-3.7-12.65-9.11-16.78-16.22-4.13-7.11-6.2-15.74-6.2-25.89s2.07-18.9,6.2-26.01c4.13-7.11,9.72-12.52,16.78-16.22,7.05-3.7,15-5.55,23.83-5.55s16.71,1.85,23.77,5.55c7.05,3.7,12.64,9.11,16.75,16.22,4.11,7.11,6.16,15.78,6.16,26.01s-2.06,18.84-6.16,25.95c-4.11,7.11-9.69,12.51-16.75,16.19-7.06,3.68-14.98,5.52-23.77,5.52ZM401.84,243.91c4.75,0,8.84-1.08,12.26-3.24,3.43-2.16,6.07-5.35,7.91-9.57,1.85-4.22,2.77-9.39,2.77-15.5s-.92-11.35-2.77-15.59c-1.85-4.24-4.48-7.44-7.91-9.61-3.43-2.16-7.52-3.24-12.26-3.24s-8.9,1.09-12.33,3.28c-3.43,2.18-6.07,5.39-7.91,9.61-1.85,4.22-2.77,9.41-2.77,15.56s.92,11.27,2.77,15.47c1.85,4.2,4.48,7.39,7.91,9.57,3.43,2.18,7.54,3.28,12.33,3.28Z"/>
        <path class="cls-1" d="M267.01,177.83v-17.97h82.68v17.97h-29.74v74.98h-23.21v-74.98h-29.74Z"/>
        <path class="cls-23" d="M401.84,254.06c-8.84,0-16.78-1.85-23.83-5.55-7.06-3.7-12.65-9.11-16.78-16.22-4.13-7.11-6.2-15.74-6.2-25.89s2.07-18.9,6.2-26.01c4.13-7.11,9.72-12.52,16.78-16.22,7.05-3.7,15-5.55,23.83-5.55s16.71,1.85,23.77,5.55c7.05,3.7,12.64,9.11,16.75,16.22,4.11,7.11,6.16,15.78,6.16,26.01s-2.06,18.84-6.16,25.95c-4.11,7.11-9.69,12.51-16.75,16.19-7.06,3.68-14.98,5.52-23.77,5.52ZM401.84,234.72c4.75,0,8.84-1.08,12.26-3.24,3.43-2.16,6.07-5.35,7.91-9.57,1.85-4.22,2.77-9.39,2.77-15.5s-.92-11.35-2.77-15.59c-1.85-4.24-4.48-7.44-7.91-9.61-3.43-2.16-7.52-3.24-12.26-3.24s-8.9,1.09-12.33,3.28c-3.43,2.18-6.07,5.39-7.91,9.61-1.85,4.22-2.77,9.41-2.77,15.56s.92,11.27,2.77,15.47c1.85,4.2,4.48,7.39,7.91,9.57,3.43,2.18,7.54,3.28,12.33,3.28Z"/>
      </g>
      <g>
        <path class="cls-16" d="M0,504.05v-176.96h76.57c14.06,0,26.19,2.58,36.4,7.72,10.21,5.15,18.06,12.31,23.54,21.5,5.48,9.18,8.22,19.83,8.22,31.95s-2.81,22.8-8.41,31.83c-5.61,9.03-13.6,16.07-23.98,21.14-10.38,5.07-22.72,7.6-37.03,7.6H27.87v-33.14h39.42c6.95,0,12.76-1.15,17.45-3.44,4.69-2.3,8.2-5.5,10.54-9.62,2.34-4.12,3.52-8.91,3.52-14.37s-1.17-10.35-3.52-14.43c-2.34-4.08-5.88-7.22-10.61-9.44-4.73-2.21-10.56-3.33-17.51-3.33h-22.85v142.99H0Z"/>
        <path class="cls-26" d="M167.59,504.05v-176.96h76.57c14.06,0,26.19,2.4,36.4,7.19,10.21,4.79,18.06,11.58,23.54,20.37,5.48,8.79,8.22,19.2,8.22,31.23s-2.81,22.47-8.41,31.06c-5.61,8.59-13.6,15.1-23.98,19.54-10.38,4.44-22.72,6.65-37.03,6.65h-48.83v-33.14h40.8c6.95,0,12.74-.87,17.39-2.61,4.65-1.74,8.16-4.39,10.55-7.96,2.38-3.57,3.58-8.08,3.58-13.54s-1.19-10.13-3.58-13.77c-2.39-3.64-5.92-6.39-10.61-8.25-4.69-1.86-10.5-2.79-17.45-2.79h-22.85v142.99h-44.31ZM270.27,504.05l-45.57-80.88h47.45l46.7,80.88h-48.58Z"/>
        <path class="cls-20" d="M382.12,327.09v176.96h-44.31v-176.96h44.31Z"/>
        <path class="cls-15" d="M410.37,504.05v-23.99l72.68-94.77c5.02-6.57,10.61-13.12,16.76-19.65,6.15-6.53,12.37-13.04,18.64-19.54l3.01,13.54c-8.62.79-17.26,1.27-25.92,1.43-8.66.16-17.34.24-26.05.24h-59.25v-34.2h147.25v24.11l-71.3,92.99c-5.27,6.81-11.11,13.62-17.51,20.43-6.4,6.81-12.87,13.62-19.4,20.43l-3.01-13.54c9.29-.79,18.52-1.27,27.68-1.43,9.16-.16,18.35-.24,27.56-.24h56.11v34.2h-147.25Z"/>
        <path class="cls-22" d="M585.74,504.05v-176.96h129.8v34.2h-85.49v36.58h78.71v33.49h-78.71v38.48h85.36v34.2h-129.68Z"/>
        <path class="cls-11" d="M0,486.54v-176.96h76.57c14.06,0,26.19,2.58,36.4,7.72,10.21,5.15,18.06,12.31,23.54,21.5,5.48,9.18,8.22,19.83,8.22,31.95s-2.81,22.8-8.41,31.83c-5.61,9.03-13.6,16.07-23.98,21.14-10.38,5.07-22.72,7.6-37.03,7.6H27.87v-33.14h39.42c6.95,0,12.76-1.15,17.45-3.44,4.69-2.3,8.2-5.5,10.54-9.62,2.34-4.12,3.52-8.91,3.52-14.37s-1.17-10.35-3.52-14.43c-2.34-4.08-5.88-7.22-10.61-9.44-4.73-2.21-10.56-3.33-17.51-3.33h-22.85v142.99H0Z"/>
        <path class="cls-25" d="M167.59,486.54v-176.96h76.57c14.06,0,26.19,2.4,36.4,7.19,10.21,4.79,18.06,11.58,23.54,20.37,5.48,8.79,8.22,19.2,8.22,31.23s-2.81,22.47-8.41,31.06c-5.61,8.59-13.6,15.1-23.98,19.54-10.38,4.44-22.72,6.65-37.03,6.65h-48.83v-33.14h40.8c6.95,0,12.74-.87,17.39-2.61,4.65-1.74,8.16-4.39,10.55-7.96,2.38-3.57,3.58-8.08,3.58-13.54s-1.19-10.13-3.58-13.77c-2.39-3.64-5.92-6.39-10.61-8.25-4.69-1.86-10.5-2.79-17.45-2.79h-22.85v142.99h-44.31ZM270.27,486.54l-45.57-80.88h47.45l46.7,80.88h-48.58Z"/>
        <path class="cls-12" d="M382.12,309.59v176.96h-44.31v-176.96h44.31Z"/>
        <path class="cls-4" d="M410.37,486.54v-23.99l72.68-94.77c5.02-6.57,10.61-13.12,16.76-19.65,6.15-6.53,12.37-13.04,18.64-19.54l3.01,13.54c-8.62.79-17.26,1.27-25.92,1.43-8.66.16-17.34.24-26.05.24h-59.25v-34.2h147.25v24.11l-71.3,92.99c-5.27,6.81-11.11,13.62-17.51,20.43s-12.87,13.62-19.4,20.43l-3.01-13.54c9.29-.79,18.52-1.27,27.68-1.43,9.16-.16,18.35-.24,27.56-.24h56.11v34.2h-147.25Z"/>
        <path class="cls-7" d="M585.74,486.54v-176.96h129.8v34.2h-85.49v36.58h78.71v33.49h-78.71v38.48h85.36v34.2h-129.68Z"/>
      </g>
    </g>
  </g>
</svg>