<?xml version="1.0" encoding="UTF-8"?>
<svg id="Layer_2" data-name="Layer 2" xmlns="http://www.w3.org/2000/svg" xmlns:xlink="http://www.w3.org/1999/xlink" viewBox="0 0 724.2 519.48">
  <defs>
    <style>
      .cls-1 {
        fill: url(#linear-gradient-15);
      }

      .cls-2 {
        fill: url(#linear-gradient-13);
      }

      .cls-3 {
        fill: url(#linear-gradient-28);
      }

      .cls-4 {
        fill: url(#linear-gradient-42);
      }

      .cls-5 {
        fill: url(#linear-gradient-46);
      }

      .cls-6 {
        fill: url(#linear-gradient-2);
      }

      .cls-7 {
        fill: url(#linear-gradient-43);
      }

      .cls-8 {
        fill: url(#linear-gradient-25);
      }

      .cls-9 {
        fill: url(#linear-gradient-10);
      }

      .cls-10 {
        fill: url(#linear-gradient-12);
      }

      .cls-11 {
        fill: url(#linear-gradient-40);
      }

      .cls-12 {
        fill: url(#linear-gradient-27);
      }

      .cls-13 {
        fill: url(#linear-gradient-37);
      }

      .cls-14 {
        fill: url(#linear-gradient-39);
      }

      .cls-15 {
        fill: url(#linear-gradient-52);
      }

      .cls-16 {
        fill: url(#linear-gradient-47);
      }

      .cls-17 {
        fill: url(#linear-gradient-26);
      }

      .cls-18 {
        fill: url(#linear-gradient-4);
      }

      .cls-19 {
        fill: url(#linear-gradient-35);
      }

      .cls-20 {
        fill: url(#linear-gradient-30);
      }

      .cls-21 {
        fill: url(#linear-gradient-44);
      }

      .cls-22 {
        fill: url(#linear-gradient-49);
      }

      .cls-23 {
        fill: url(#linear-gradient-3);
      }

      .cls-24 {
        fill: url(#linear-gradient-34);
      }

      .cls-25 {
        fill: url(#linear-gradient-5);
      }

      .cls-26 {
        fill: url(#linear-gradient-38);
      }

      .cls-27 {
        fill: url(#linear-gradient-22);
      }

      .cls-28 {
        fill: url(#linear-gradient-24);
      }

      .cls-29 {
        fill: url(#linear-gradient-33);
      }

      .cls-30 {
        fill: url(#linear-gradient-51);
      }

      .cls-31 {
        fill: url(#linear-gradient-8);
      }

      .cls-32 {
        fill: url(#linear-gradient-14);
      }

      .cls-33 {
        fill: url(#linear-gradient-29);
      }

      .cls-34 {
        opacity: .43;
      }

      .cls-35 {
        fill: url(#linear-gradient-20);
      }

      .cls-36 {
        fill: url(#linear-gradient-17);
      }

      .cls-37 {
        fill: url(#linear-gradient-50);
      }

      .cls-38 {
        fill: url(#linear-gradient-7);
      }

      .cls-39 {
        fill: url(#linear-gradient-9);
      }

      .cls-40 {
        fill: url(#linear-gradient-11);
      }

      .cls-41 {
        fill: url(#linear-gradient-19);
      }

      .cls-42 {
        fill: url(#linear-gradient-6);
      }

      .cls-43 {
        fill: url(#linear-gradient-36);
      }

      .cls-44 {
        fill: url(#linear-gradient-21);
      }

      .cls-45 {
        fill: url(#linear-gradient-45);
      }

      .cls-46 {
        fill: url(#linear-gradient-48);
      }

      .cls-47 {
        fill: url(#linear-gradient-32);
      }

      .cls-48 {
        fill: url(#linear-gradient-41);
      }

      .cls-49 {
        fill: url(#linear-gradient-16);
      }

      .cls-50 {
        fill: url(#linear-gradient);
      }

      .cls-51 {
        fill: url(#linear-gradient-23);
      }

      .cls-52 {
        fill: url(#linear-gradient-31);
      }

      .cls-53 {
        fill: url(#linear-gradient-18);
      }
    </style>
    <linearGradient id="linear-gradient" x1="111.35" y1="29.66" x2="112.85" y2="152.62" gradientUnits="userSpaceOnUse">
      <stop offset="0" stop-color="#172c13"/>
      <stop offset="1" stop-color="#030a05"/>
    </linearGradient>
    <linearGradient id="linear-gradient-2" x1="216.18" y1="28.45" x2="217.68" y2="151.43" xlink:href="#linear-gradient"/>
    <linearGradient id="linear-gradient-3" x1="324.28" y1="27.21" x2="325.78" y2="150.21" xlink:href="#linear-gradient"/>
    <linearGradient id="linear-gradient-4" x1="428.89" y1="26" x2="430.39" y2="149.01" xlink:href="#linear-gradient"/>
    <linearGradient id="linear-gradient-5" x1="526.12" y1="24.88" x2="527.62" y2="147.88" xlink:href="#linear-gradient"/>
    <linearGradient id="linear-gradient-6" x1="615.97" y1="23.84" x2="617.47" y2="146.84" xlink:href="#linear-gradient"/>
    <linearGradient id="linear-gradient-7" x1="111.35" y1="19.17" x2="112.85" y2="142.13" gradientUnits="userSpaceOnUse">
      <stop offset="0" stop-color="#37672d"/>
      <stop offset="1" stop-color="#0d2f18"/>
    </linearGradient>
    <linearGradient id="linear-gradient-8" x1="216.18" y1="17.96" x2="217.68" y2="140.93" xlink:href="#linear-gradient-7"/>
    <linearGradient id="linear-gradient-9" x1="324.28" y1="16.71" x2="325.78" y2="139.72" xlink:href="#linear-gradient-7"/>
    <linearGradient id="linear-gradient-10" x1="428.89" y1="15.51" x2="430.39" y2="138.51" xlink:href="#linear-gradient-7"/>
    <linearGradient id="linear-gradient-11" x1="526.12" y1="14.39" x2="527.62" y2="137.38" xlink:href="#linear-gradient-7"/>
    <linearGradient id="linear-gradient-12" x1="615.97" y1="13.35" x2="617.47" y2="136.35" xlink:href="#linear-gradient-7"/>
    <linearGradient id="linear-gradient-13" x1="312" y1="182.64" x2="313.33" y2="291.68" xlink:href="#linear-gradient"/>
    <linearGradient id="linear-gradient-14" x1="406.08" y1="181.58" x2="407.41" y2="290.58" xlink:href="#linear-gradient"/>
    <linearGradient id="linear-gradient-15" x1="312" y1="173.33" x2="313.33" y2="282.37" xlink:href="#linear-gradient-7"/>
    <linearGradient id="linear-gradient-16" x1="406.08" y1="172.27" x2="407.41" y2="281.27" xlink:href="#linear-gradient-7"/>
    <linearGradient id="linear-gradient-17" x1="71.77" y1="339.51" x2="74.3" y2="547.07" xlink:href="#linear-gradient"/>
    <linearGradient id="linear-gradient-18" x1="243.95" y1="337.68" x2="246.48" y2="545.32" xlink:href="#linear-gradient"/>
    <linearGradient id="linear-gradient-19" x1="363.18" y1="336.34" x2="365.71" y2="543.9" xlink:href="#linear-gradient"/>
    <linearGradient id="linear-gradient-20" x1="488.63" y1="334.86" x2="491.16" y2="542.5" xlink:href="#linear-gradient"/>
    <linearGradient id="linear-gradient-21" x1="657.33" y1="332.92" x2="659.86" y2="540.54" xlink:href="#linear-gradient"/>
    <linearGradient id="linear-gradient-22" x1="71.77" y1="321.79" x2="74.3" y2="529.35" xlink:href="#linear-gradient-7"/>
    <linearGradient id="linear-gradient-23" x1="243.95" y1="319.97" x2="246.48" y2="527.61" xlink:href="#linear-gradient-7"/>
    <linearGradient id="linear-gradient-24" x1="363.18" y1="318.63" x2="365.71" y2="526.19" xlink:href="#linear-gradient-7"/>
    <linearGradient id="linear-gradient-25" x1="488.63" y1="317.14" x2="491.16" y2="524.78" xlink:href="#linear-gradient-7"/>
    <linearGradient id="linear-gradient-26" x1="657.33" y1="315.2" x2="659.86" y2="522.83" xlink:href="#linear-gradient-7"/>
    <linearGradient id="linear-gradient-27" x1="114.35" y1="20.08" x2="115.84" y2="141.57" gradientUnits="userSpaceOnUse">
      <stop offset="0" stop-color="#4a8c3e"/>
      <stop offset="1" stop-color="#1e6a35"/>
    </linearGradient>
    <linearGradient id="linear-gradient-28" x1="217.93" y1="18.89" x2="219.41" y2="140.39" xlink:href="#linear-gradient-27"/>
    <linearGradient id="linear-gradient-29" x1="324.74" y1="17.66" x2="326.22" y2="139.19" xlink:href="#linear-gradient-27"/>
    <linearGradient id="linear-gradient-30" x1="428.09" y1="16.47" x2="429.57" y2="138" xlink:href="#linear-gradient-27"/>
    <linearGradient id="linear-gradient-31" x1="524.16" y1="15.36" x2="525.64" y2="136.88" xlink:href="#linear-gradient-27"/>
    <linearGradient id="linear-gradient-32" x1="612.94" y1="14.34" x2="614.42" y2="135.86" xlink:href="#linear-gradient-27"/>
    <linearGradient id="linear-gradient-33" x1="114.35" y1="9.71" x2="115.84" y2="131.2" gradientUnits="userSpaceOnUse">
      <stop offset="0" stop-color="#6ac757"/>
      <stop offset="1" stop-color="#298f49"/>
    </linearGradient>
    <linearGradient id="linear-gradient-34" x1="217.93" y1="8.52" x2="219.41" y2="130.02" xlink:href="#linear-gradient-33"/>
    <linearGradient id="linear-gradient-35" x1="324.74" y1="7.29" x2="326.22" y2="128.82" xlink:href="#linear-gradient-33"/>
    <linearGradient id="linear-gradient-36" x1="428.09" y1="6.1" x2="429.57" y2="127.63" xlink:href="#linear-gradient-33"/>
    <linearGradient id="linear-gradient-37" x1="524.16" y1="4.99" x2="525.64" y2="126.52" xlink:href="#linear-gradient-33"/>
    <linearGradient id="linear-gradient-38" x1="612.94" y1="3.97" x2="614.42" y2="125.49" xlink:href="#linear-gradient-33"/>
    <linearGradient id="linear-gradient-39" x1="312.6" y1="171.23" x2="313.91" y2="278.96" xlink:href="#linear-gradient-27"/>
    <linearGradient id="linear-gradient-40" x1="405.55" y1="170.18" x2="406.87" y2="277.88" xlink:href="#linear-gradient-27"/>
    <linearGradient id="linear-gradient-41" x1="312.6" y1="162.04" x2="313.91" y2="269.77" xlink:href="#linear-gradient-33"/>
    <linearGradient id="linear-gradient-42" x1="405.55" y1="160.99" x2="406.87" y2="268.69" xlink:href="#linear-gradient-33"/>
    <linearGradient id="linear-gradient-43" x1="75.24" y1="326.22" x2="77.74" y2="531.3" xlink:href="#linear-gradient-27"/>
    <linearGradient id="linear-gradient-44" x1="245.36" y1="324.42" x2="247.86" y2="529.58" xlink:href="#linear-gradient-27"/>
    <linearGradient id="linear-gradient-45" x1="363.17" y1="323.1" x2="365.67" y2="528.17" xlink:href="#linear-gradient-27"/>
    <linearGradient id="linear-gradient-46" x1="487.11" y1="321.63" x2="489.62" y2="526.79" xlink:href="#linear-gradient-27"/>
    <linearGradient id="linear-gradient-47" x1="653.8" y1="319.71" x2="656.3" y2="524.86" xlink:href="#linear-gradient-27"/>
    <linearGradient id="linear-gradient-48" x1="75.24" y1="308.72" x2="77.74" y2="513.8" xlink:href="#linear-gradient-33"/>
    <linearGradient id="linear-gradient-49" x1="245.36" y1="306.92" x2="247.86" y2="512.08" xlink:href="#linear-gradient-33"/>
    <linearGradient id="linear-gradient-50" x1="363.17" y1="305.59" x2="365.67" y2="510.67" xlink:href="#linear-gradient-33"/>
    <linearGradient id="linear-gradient-51" x1="487.11" y1="304.13" x2="489.62" y2="509.28" xlink:href="#linear-gradient-33"/>
    <linearGradient id="linear-gradient-52" x1="653.8" y1="302.21" x2="656.3" y2="507.35" xlink:href="#linear-gradient-33"/>
  </defs>
  <g id="Layer_1-2" data-name="Layer 1">
    <g>
      <g class="cls-34">
        <g>
          <path class="cls-50" d="M68.71,125.93V19.83h45.91c8.43,0,15.71,1.54,21.83,4.63,6.12,3.09,10.83,7.38,14.11,12.89,3.29,5.51,4.93,11.89,4.93,19.15s-1.68,13.67-5.04,19.08c-3.36,5.41-8.15,9.64-14.38,12.67-6.22,3.04-13.62,4.56-22.2,4.56h-28.45v-19.87h23.63c4.16,0,7.65-.69,10.46-2.06,2.81-1.38,4.92-3.3,6.32-5.77s2.11-5.34,2.11-8.62-.7-6.21-2.11-8.65c-1.4-2.44-3.52-4.33-6.36-5.66-2.84-1.33-6.33-1.99-10.5-1.99h-13.7v85.73h-26.57Z"/>
          <path class="cls-6" d="M216.46,127.28c-9.43,0-17.7-1.6-24.8-4.81-7.1-3.2-12.62-7.74-16.56-13.6-3.94-5.86-5.91-12.73-5.91-20.61V19.83h26.57v66.36c0,3.7.88,7,2.63,9.9,1.76,2.9,4.18,5.16,7.26,6.8,3.09,1.64,6.69,2.46,10.8,2.46s7.74-.82,10.88-2.46c3.14-1.64,5.57-3.9,7.3-6.8,1.73-2.9,2.6-6.2,2.6-9.9V19.83h26.57v68.43c0,7.88-1.98,14.75-5.95,20.61-3.96,5.86-9.5,10.4-16.6,13.6-7.1,3.2-15.37,4.81-24.8,4.81Z"/>
          <path class="cls-23" d="M280.74,125.93v-14.38l43.58-56.82c3.01-3.94,6.36-7.87,10.05-11.78,3.69-3.92,7.41-7.82,11.18-11.71l1.81,8.12c-5.17.48-10.35.76-15.54.85-5.19.1-10.4.14-15.62.14h-35.53v-20.51h88.29v14.46l-42.75,55.75c-3.16,4.08-6.66,8.16-10.5,12.25-3.84,4.08-7.71,8.17-11.63,12.25l-1.81-8.12c5.57-.47,11.1-.76,16.6-.85,5.49-.09,11-.14,16.52-.14h33.64v20.51h-88.29Z"/>
          <path class="cls-18" d="M385.36,125.93v-14.38l43.58-56.82c3.01-3.94,6.36-7.87,10.05-11.78,3.69-3.92,7.41-7.82,11.18-11.71l1.81,8.12c-5.17.48-10.35.76-15.54.85-5.19.1-10.4.14-15.62.14h-35.53v-20.51h88.29v14.46l-42.75,55.75c-3.16,4.08-6.66,8.16-10.5,12.25s-7.71,8.17-11.63,12.25l-1.81-8.12c5.57-.47,11.1-.76,16.6-.85,5.49-.09,11-.14,16.52-.14h33.64v20.51h-88.29Z"/>
          <path class="cls-25" d="M490.5,125.93V19.83h26.57v85.59h46.89v20.51h-73.46Z"/>
          <path class="cls-42" d="M577.66,125.93V19.83h77.82v20.51h-51.26v21.93h47.19v20.08h-47.19v23.07h51.18v20.51h-77.75Z"/>
          <path class="cls-38" d="M68.71,115.43V9.33h45.91c8.43,0,15.71,1.54,21.83,4.63,6.12,3.09,10.83,7.38,14.11,12.89,3.29,5.51,4.93,11.89,4.93,19.15s-1.68,13.67-5.04,19.08c-3.36,5.41-8.15,9.64-14.38,12.67-6.22,3.04-13.62,4.56-22.2,4.56h-28.45v-19.87h23.63c4.16,0,7.65-.69,10.46-2.06,2.81-1.38,4.92-3.3,6.32-5.77s2.11-5.34,2.11-8.62-.7-6.21-2.11-8.65c-1.4-2.44-3.52-4.33-6.36-5.66-2.84-1.33-6.33-1.99-10.5-1.99h-13.7v85.73h-26.57Z"/>
          <path class="cls-31" d="M216.46,116.79c-9.43,0-17.7-1.6-24.8-4.81-7.1-3.2-12.62-7.74-16.56-13.6-3.94-5.86-5.91-12.73-5.91-20.61V9.33h26.57v66.36c0,3.7.88,7,2.63,9.9,1.76,2.9,4.18,5.16,7.26,6.8,3.09,1.64,6.69,2.46,10.8,2.46s7.74-.82,10.88-2.46c3.14-1.64,5.57-3.9,7.3-6.8,1.73-2.9,2.6-6.2,2.6-9.9V9.33h26.57v68.43c0,7.88-1.98,14.75-5.95,20.61-3.96,5.86-9.5,10.4-16.6,13.6-7.1,3.2-15.37,4.81-24.8,4.81Z"/>
          <path class="cls-39" d="M280.74,115.43v-14.38l43.58-56.82c3.01-3.94,6.36-7.87,10.05-11.78,3.69-3.92,7.41-7.82,11.18-11.71l1.81,8.12c-5.17.48-10.35.76-15.54.85-5.19.1-10.4.14-15.62.14h-35.53V9.33h88.29v14.46l-42.75,55.75c-3.16,4.08-6.66,8.16-10.5,12.25-3.84,4.08-7.71,8.17-11.63,12.25l-1.81-8.12c5.57-.47,11.1-.76,16.6-.85,5.49-.09,11-.14,16.52-.14h33.64v20.51h-88.29Z"/>
          <path class="cls-9" d="M385.36,115.43v-14.38l43.58-56.82c3.01-3.94,6.36-7.87,10.05-11.78,3.69-3.92,7.41-7.82,11.18-11.71l1.81,8.12c-5.17.48-10.35.76-15.54.85-5.19.1-10.4.14-15.62.14h-35.53V9.33h88.29v14.46l-42.75,55.75c-3.16,4.08-6.66,8.16-10.5,12.25-3.84,4.08-7.71,8.17-11.63,12.25l-1.81-8.12c5.57-.47,11.1-.76,16.6-.85,5.49-.09,11-.14,16.52-.14h33.64v20.51h-88.29Z"/>
          <path class="cls-40" d="M490.5,115.43V9.33h26.57v85.59h46.89v20.51h-73.46Z"/>
          <path class="cls-10" d="M577.66,115.43V9.33h77.82v20.51h-51.26v21.93h47.19v20.08h-47.19v23.07h51.18v20.51h-77.75Z"/>
        </g>
        <g>
          <path class="cls-2" d="M270.24,198.62v-18.18h83.68v18.18h-30.1v75.88h-23.49v-75.88h-30.1Z"/>
          <path class="cls-32" d="M406.71,275.77c-8.94,0-16.98-1.87-24.12-5.62-7.14-3.75-12.8-9.22-16.98-16.41-4.18-7.2-6.27-15.93-6.27-26.2s2.09-19.13,6.27-26.33c4.18-7.2,9.84-12.67,16.98-16.41,7.14-3.75,15.18-5.62,24.12-5.62s16.92,1.87,24.06,5.62c7.14,3.75,12.79,9.22,16.95,16.41,4.16,7.2,6.24,15.97,6.24,26.33s-2.08,19.07-6.24,26.26c-4.16,7.2-9.81,12.66-16.95,16.38-7.14,3.72-15.16,5.59-24.06,5.59ZM406.71,256.2c4.8,0,8.94-1.09,12.41-3.28,3.47-2.19,6.14-5.42,8.01-9.69,1.87-4.27,2.8-9.5,2.8-15.69s-.94-11.49-2.8-15.78c-1.87-4.29-4.54-7.53-8.01-9.72-3.47-2.19-7.61-3.28-12.41-3.28s-9.01,1.1-12.48,3.31c-3.47,2.21-6.14,5.45-8.01,9.72-1.87,4.27-2.8,9.52-2.8,15.75s.94,11.41,2.8,15.66c1.87,4.25,4.54,7.48,8.01,9.69,3.47,2.21,7.63,3.31,12.48,3.31Z"/>
          <path class="cls-1" d="M270.24,189.32v-18.18h83.68v18.18h-30.1v75.88h-23.49v-75.88h-30.1Z"/>
          <path class="cls-49" d="M406.71,266.47c-8.94,0-16.98-1.87-24.12-5.62-7.14-3.75-12.8-9.22-16.98-16.41-4.18-7.2-6.27-15.93-6.27-26.2s2.09-19.13,6.27-26.33c4.18-7.2,9.84-12.67,16.98-16.41,7.14-3.75,15.18-5.62,24.12-5.62s16.92,1.87,24.06,5.62c7.14,3.75,12.79,9.22,16.95,16.41,4.16,7.2,6.24,15.97,6.24,26.33s-2.08,19.07-6.24,26.26c-4.16,7.2-9.81,12.66-16.95,16.38-7.14,3.72-15.16,5.59-24.06,5.59ZM406.71,246.9c4.8,0,8.94-1.09,12.41-3.28,3.47-2.19,6.14-5.42,8.01-9.69,1.87-4.27,2.8-9.5,2.8-15.69s-.94-11.49-2.8-15.78c-1.87-4.29-4.54-7.53-8.01-9.72-3.47-2.19-7.61-3.28-12.41-3.28s-9.01,1.1-12.48,3.31c-3.47,2.21-6.14,5.45-8.01,9.72-1.87,4.27-2.8,9.52-2.8,15.75s.94,11.41,2.8,15.66c1.87,4.25,4.54,7.48,8.01,9.69,3.47,2.21,7.63,3.31,12.48,3.31Z"/>
        </g>
        <g>
          <path class="cls-36" d="M0,519.48v-179.1h77.5c14.23,0,26.51,2.61,36.85,7.81,10.33,5.21,18.27,12.46,23.82,21.76,5.55,9.3,8.32,20.07,8.32,32.33s-2.84,23.08-8.51,32.21c-5.68,9.14-13.76,16.27-24.27,21.4-10.5,5.13-23,7.69-37.48,7.69H28.2v-33.54h39.89c7.03,0,12.92-1.16,17.66-3.48,4.74-2.32,8.3-5.57,10.67-9.74s3.56-9.02,3.56-14.54-1.19-10.48-3.56-14.6c-2.37-4.13-5.95-7.31-10.74-9.56-4.79-2.24-10.69-3.37-17.72-3.37h-23.12v144.72H0Z"/>
          <path class="cls-53" d="M169.61,519.48v-179.1h77.5c14.23,0,26.51,2.42,36.85,7.27,10.33,4.85,18.27,11.72,23.82,20.61,5.55,8.9,8.32,19.43,8.32,31.61s-2.84,22.74-8.51,31.43c-5.68,8.7-13.76,15.28-24.27,19.77-10.5,4.49-23,6.73-37.48,6.73h-49.42v-33.54h41.29c7.03,0,12.9-.88,17.6-2.65,4.7-1.76,8.26-4.45,10.67-8.05,2.41-3.61,3.62-8.17,3.62-13.7s-1.21-10.26-3.62-13.94c-2.41-3.69-5.99-6.47-10.74-8.35-4.75-1.88-10.63-2.83-17.66-2.83h-23.12v144.72h-44.85ZM273.54,519.48l-46.12-81.86h48.03l47.26,81.86h-49.17Z"/>
          <path class="cls-41" d="M386.75,340.38v179.1h-44.85v-179.1h44.85Z"/>
          <path class="cls-35" d="M415.33,519.48v-24.28l73.56-95.92c5.08-6.65,10.74-13.28,16.96-19.89,6.23-6.61,12.52-13.2,18.87-19.77l3.05,13.7c-8.73.8-17.47,1.28-26.24,1.44-8.77.16-17.55.24-26.36.24h-59.97v-34.62h149.03v24.4l-72.17,94.12c-5.34,6.89-11.24,13.78-17.72,20.67-6.48,6.89-13.02,13.78-19.63,20.67l-3.05-13.7c9.4-.8,18.74-1.28,28.01-1.44,9.28-.16,18.57-.24,27.89-.24h56.79v34.62h-149.03Z"/>
          <path class="cls-44" d="M592.83,519.48v-179.1h131.37v34.62h-86.52v37.02h79.66v33.9h-79.66v38.94h86.4v34.62h-131.24Z"/>
          <path class="cls-27" d="M0,501.77v-179.1h77.5c14.23,0,26.51,2.61,36.85,7.81,10.33,5.21,18.27,12.46,23.82,21.76,5.55,9.3,8.32,20.07,8.32,32.33s-2.84,23.08-8.51,32.21c-5.68,9.14-13.76,16.27-24.27,21.4-10.5,5.13-23,7.69-37.48,7.69H28.2v-33.54h39.89c7.03,0,12.92-1.16,17.66-3.48,4.74-2.32,8.3-5.57,10.67-9.74,2.37-4.17,3.56-9.02,3.56-14.54s-1.19-10.48-3.56-14.6c-2.37-4.13-5.95-7.31-10.74-9.56-4.79-2.24-10.69-3.37-17.72-3.37h-23.12v144.72H0Z"/>
          <path class="cls-51" d="M169.61,501.77v-179.1h77.5c14.23,0,26.51,2.42,36.85,7.27,10.33,4.85,18.27,11.72,23.82,20.61,5.55,8.9,8.32,19.43,8.32,31.61s-2.84,22.74-8.51,31.43c-5.68,8.7-13.76,15.28-24.27,19.77-10.5,4.49-23,6.73-37.48,6.73h-49.42v-33.54h41.29c7.03,0,12.9-.88,17.6-2.65,4.7-1.76,8.26-4.45,10.67-8.05,2.41-3.61,3.62-8.17,3.62-13.7s-1.21-10.26-3.62-13.94c-2.41-3.69-5.99-6.47-10.74-8.35-4.75-1.88-10.63-2.83-17.66-2.83h-23.12v144.72h-44.85ZM273.54,501.77l-46.12-81.86h48.03l47.26,81.86h-49.17Z"/>
          <path class="cls-28" d="M386.75,322.67v179.1h-44.85v-179.1h44.85Z"/>
          <path class="cls-8" d="M415.33,501.77v-24.28l73.56-95.92c5.08-6.65,10.74-13.28,16.96-19.89,6.23-6.61,12.52-13.2,18.87-19.77l3.05,13.7c-8.73.8-17.47,1.28-26.24,1.44-8.77.16-17.55.24-26.36.24h-59.97v-34.62h149.03v24.4l-72.17,94.12c-5.34,6.89-11.24,13.78-17.72,20.67s-13.02,13.78-19.63,20.67l-3.05-13.7c9.4-.8,18.74-1.28,28.01-1.44,9.28-.16,18.57-.24,27.89-.24h56.79v34.62h-149.03Z"/>
          <path class="cls-17" d="M592.83,501.77v-179.1h131.37v34.62h-86.52v37.02h79.66v33.9h-79.66v38.94h86.4v34.62h-131.24Z"/>
        </g>
      </g>
      <g>
        <g>
          <path class="cls-12" d="M72.22,115.2V10.37h45.36c8.33,0,15.52,1.53,21.57,4.57,6.05,3.05,10.7,7.29,13.94,12.73,3.25,5.44,4.87,11.75,4.87,18.93s-1.66,13.51-4.98,18.85c-3.32,5.35-8.06,9.52-14.2,12.52-6.15,3-13.46,4.5-21.94,4.5h-28.11v-19.63h23.35c4.11,0,7.56-.68,10.34-2.04,2.78-1.36,4.86-3.26,6.25-5.7,1.39-2.44,2.08-5.28,2.08-8.51s-.69-6.13-2.08-8.55c-1.39-2.42-3.48-4.28-6.28-5.59-2.8-1.31-6.26-1.97-10.37-1.97h-13.53v84.71h-26.25Z"/>
          <path class="cls-3" d="M218.2,116.53c-9.32,0-17.49-1.58-24.5-4.75-7.02-3.17-12.47-7.64-16.36-13.44-3.89-5.79-5.84-12.58-5.84-20.37V10.37h26.25v65.57c0,3.66.87,6.92,2.6,9.78,1.74,2.86,4.13,5.1,7.18,6.72,3.05,1.62,6.61,2.43,10.67,2.43s7.65-.81,10.75-2.43c3.1-1.62,5.5-3.86,7.21-6.72,1.71-2.86,2.56-6.12,2.56-9.78V10.37h26.25v67.61c0,7.79-1.96,14.58-5.88,20.37-3.92,5.79-9.38,10.27-16.4,13.44-7.02,3.17-15.18,4.75-24.5,4.75Z"/>
          <path class="cls-33" d="M281.71,115.2v-14.21l43.06-56.14c2.97-3.89,6.28-7.77,9.93-11.64,3.64-3.87,7.33-7.73,11.04-11.57l1.78,8.02c-5.11.47-10.22.75-15.36.84-5.13.09-10.27.14-15.43.14h-35.1V10.37h87.23v14.28l-42.24,55.09c-3.12,4.03-6.58,8.07-10.37,12.1-3.79,4.03-7.62,8.07-11.49,12.1l-1.78-8.02c5.5-.47,10.97-.75,16.4-.84,5.43-.09,10.87-.14,16.32-.14h33.24v20.26h-87.23Z"/>
          <path class="cls-20" d="M385.08,115.2v-14.21l43.06-56.14c2.97-3.89,6.28-7.77,9.93-11.64,3.64-3.87,7.33-7.73,11.04-11.57l1.78,8.02c-5.11.47-10.22.75-15.36.84-5.13.09-10.27.14-15.43.14h-35.1V10.37h87.23v14.28l-42.24,55.09c-3.12,4.03-6.58,8.07-10.37,12.1s-7.62,8.07-11.49,12.1l-1.78-8.02c5.5-.47,10.97-.75,16.4-.84,5.43-.09,10.87-.14,16.32-.14h33.24v20.26h-87.23Z"/>
          <path class="cls-52" d="M488.97,115.2V10.37h26.25v84.57h46.33v20.26h-72.58Z"/>
          <path class="cls-47" d="M575.08,115.2V10.37h76.89v20.26h-50.64v21.67h46.63v19.84h-46.63v22.79h50.57v20.26h-76.82Z"/>
          <path class="cls-29" d="M72.22,104.83V0h45.36c8.33,0,15.52,1.53,21.57,4.57,6.05,3.05,10.7,7.29,13.94,12.73,3.25,5.44,4.87,11.75,4.87,18.93s-1.66,13.51-4.98,18.85c-3.32,5.35-8.06,9.52-14.2,12.52-6.15,3-13.46,4.5-21.94,4.5h-28.11v-19.63h23.35c4.11,0,7.56-.68,10.34-2.04,2.78-1.36,4.86-3.26,6.25-5.7s2.08-5.28,2.08-8.51-.69-6.13-2.08-8.55c-1.39-2.42-3.48-4.28-6.28-5.59-2.8-1.31-6.26-1.97-10.37-1.97h-13.53v84.71h-26.25Z"/>
          <path class="cls-24" d="M218.2,106.17c-9.32,0-17.49-1.58-24.5-4.75-7.02-3.17-12.47-7.64-16.36-13.44-3.89-5.79-5.84-12.58-5.84-20.37V0h26.25v65.57c0,3.66.87,6.92,2.6,9.78,1.74,2.86,4.13,5.1,7.18,6.72,3.05,1.62,6.61,2.43,10.67,2.43s7.65-.81,10.75-2.43c3.1-1.62,5.5-3.86,7.21-6.72,1.71-2.86,2.56-6.12,2.56-9.78V0h26.25v67.61c0,7.79-1.96,14.58-5.88,20.37-3.92,5.79-9.38,10.27-16.4,13.44-7.02,3.17-15.18,4.75-24.5,4.75Z"/>
          <path class="cls-19" d="M281.71,104.83v-14.21l43.06-56.14c2.97-3.89,6.28-7.77,9.93-11.64,3.64-3.87,7.33-7.73,11.04-11.57l1.78,8.02c-5.11.47-10.22.75-15.36.84-5.13.09-10.27.14-15.43.14h-35.1V0h87.23v14.28l-42.24,55.09c-3.12,4.03-6.58,8.07-10.37,12.1-3.79,4.03-7.62,8.07-11.49,12.1l-1.78-8.02c5.5-.47,10.97-.75,16.4-.84,5.43-.09,10.87-.14,16.32-.14h33.24v20.26h-87.23Z"/>
          <path class="cls-43" d="M385.08,104.83v-14.21l43.06-56.14c2.97-3.89,6.28-7.77,9.93-11.64,3.64-3.87,7.33-7.73,11.04-11.57l1.78,8.02c-5.11.47-10.22.75-15.36.84-5.13.09-10.27.14-15.43.14h-35.1V0h87.23v14.28l-42.24,55.09c-3.12,4.03-6.58,8.07-10.37,12.1-3.79,4.03-7.62,8.07-11.49,12.1l-1.78-8.02c5.5-.47,10.97-.75,16.4-.84,5.43-.09,10.87-.14,16.32-.14h33.24v20.26h-87.23Z"/>
          <path class="cls-13" d="M488.97,104.83V0h26.25v84.57h46.33v20.26h-72.58Z"/>
          <path class="cls-26" d="M575.08,104.83V0h76.89v20.26h-50.64v21.67h46.63v19.84h-46.63v22.79h50.57v20.26h-76.82Z"/>
        </g>
        <g>
          <path class="cls-14" d="M271.34,187.03v-17.97h82.68v17.97h-29.74v74.98h-23.21v-74.98h-29.74Z"/>
          <path class="cls-11" d="M406.17,263.25c-8.84,0-16.78-1.85-23.83-5.55-7.06-3.7-12.65-9.11-16.78-16.22-4.13-7.11-6.2-15.74-6.2-25.89s2.07-18.9,6.2-26.01c4.13-7.11,9.72-12.52,16.78-16.22,7.05-3.7,15-5.55,23.83-5.55s16.71,1.85,23.77,5.55c7.05,3.7,12.64,9.11,16.75,16.22,4.11,7.11,6.16,15.78,6.16,26.01s-2.06,18.84-6.16,25.95c-4.11,7.11-9.69,12.51-16.75,16.19-7.06,3.68-14.98,5.52-23.77,5.52ZM406.17,243.91c4.75,0,8.84-1.08,12.26-3.24,3.43-2.16,6.07-5.35,7.91-9.57,1.85-4.22,2.77-9.39,2.77-15.5s-.92-11.35-2.77-15.59c-1.85-4.24-4.48-7.44-7.91-9.61-3.43-2.16-7.52-3.24-12.26-3.24s-8.9,1.09-12.33,3.28c-3.43,2.18-6.07,5.39-7.91,9.61-1.85,4.22-2.77,9.41-2.77,15.56s.92,11.27,2.77,15.47c1.85,4.2,4.48,7.39,7.91,9.57,3.43,2.18,7.54,3.28,12.33,3.28Z"/>
          <path class="cls-48" d="M271.34,177.83v-17.97h82.68v17.97h-29.74v74.98h-23.21v-74.98h-29.74Z"/>
          <path class="cls-4" d="M406.17,254.06c-8.84,0-16.78-1.85-23.83-5.55-7.06-3.7-12.65-9.11-16.78-16.22-4.13-7.11-6.2-15.74-6.2-25.89s2.07-18.9,6.2-26.01c4.13-7.11,9.72-12.52,16.78-16.22,7.05-3.7,15-5.55,23.83-5.55s16.71,1.85,23.77,5.55c7.05,3.7,12.64,9.11,16.75,16.22,4.11,7.11,6.16,15.78,6.16,26.01s-2.06,18.84-6.16,25.95c-4.11,7.11-9.69,12.51-16.75,16.19-7.06,3.68-14.98,5.52-23.77,5.52ZM406.17,234.72c4.75,0,8.84-1.08,12.26-3.24,3.43-2.16,6.07-5.35,7.91-9.57,1.85-4.22,2.77-9.39,2.77-15.5s-.92-11.35-2.77-15.59c-1.85-4.24-4.48-7.44-7.91-9.61-3.43-2.16-7.52-3.24-12.26-3.24s-8.9,1.09-12.33,3.28c-3.43,2.18-6.07,5.39-7.91,9.61-1.85,4.22-2.77,9.41-2.77,15.56s.92,11.27,2.77,15.47c1.85,4.2,4.48,7.39,7.91,9.57,3.43,2.18,7.54,3.28,12.33,3.28Z"/>
        </g>
        <g>
          <path class="cls-7" d="M4.33,504.05v-176.96h76.57c14.06,0,26.19,2.58,36.4,7.72,10.21,5.15,18.06,12.31,23.54,21.5,5.48,9.18,8.22,19.83,8.22,31.95s-2.81,22.8-8.41,31.83c-5.61,9.03-13.6,16.07-23.98,21.14-10.38,5.07-22.72,7.6-37.03,7.6h-47.45v-33.14h39.42c6.95,0,12.76-1.15,17.45-3.44,4.69-2.3,8.2-5.5,10.54-9.62,2.34-4.12,3.52-8.91,3.52-14.37s-1.17-10.35-3.52-14.43c-2.34-4.08-5.88-7.22-10.61-9.44-4.73-2.21-10.56-3.33-17.51-3.33h-22.85v142.99H4.33Z"/>
          <path class="cls-21" d="M171.92,504.05v-176.96h76.57c14.06,0,26.19,2.4,36.4,7.19,10.21,4.79,18.06,11.58,23.54,20.37,5.48,8.79,8.22,19.2,8.22,31.23s-2.81,22.47-8.41,31.06c-5.61,8.59-13.6,15.1-23.98,19.54-10.38,4.44-22.72,6.65-37.03,6.65h-48.83v-33.14h40.8c6.95,0,12.74-.87,17.39-2.61,4.65-1.74,8.16-4.39,10.55-7.96,2.38-3.57,3.58-8.08,3.58-13.54s-1.19-10.13-3.58-13.77c-2.39-3.64-5.92-6.39-10.61-8.25-4.69-1.86-10.5-2.79-17.45-2.79h-22.85v142.99h-44.31ZM274.6,504.05l-45.57-80.88h47.45l46.7,80.88h-48.58Z"/>
          <path class="cls-45" d="M386.45,327.09v176.96h-44.31v-176.96h44.31Z"/>
          <path class="cls-5" d="M414.7,504.05v-23.99l72.68-94.77c5.02-6.57,10.61-13.12,16.76-19.65,6.15-6.53,12.37-13.04,18.64-19.54l3.01,13.54c-8.62.79-17.26,1.27-25.92,1.43-8.66.16-17.34.24-26.05.24h-59.25v-34.2h147.25v24.11l-71.3,92.99c-5.27,6.81-11.11,13.62-17.51,20.43-6.4,6.81-12.87,13.62-19.4,20.43l-3.01-13.54c9.29-.79,18.52-1.27,27.68-1.43,9.16-.16,18.35-.24,27.56-.24h56.11v34.2h-147.25Z"/>
          <path class="cls-16" d="M590.07,504.05v-176.96h129.8v34.2h-85.49v36.58h78.71v33.49h-78.71v38.48h85.36v34.2h-129.68Z"/>
          <path class="cls-46" d="M4.33,486.54v-176.96h76.57c14.06,0,26.19,2.58,36.4,7.72,10.21,5.15,18.06,12.31,23.54,21.5,5.48,9.18,8.22,19.83,8.22,31.95s-2.81,22.8-8.41,31.83c-5.61,9.03-13.6,16.07-23.98,21.14-10.38,5.07-22.72,7.6-37.03,7.6h-47.45v-33.14h39.42c6.95,0,12.76-1.15,17.45-3.44,4.69-2.3,8.2-5.5,10.54-9.62,2.34-4.12,3.52-8.91,3.52-14.37s-1.17-10.35-3.52-14.43c-2.34-4.08-5.88-7.22-10.61-9.44-4.73-2.21-10.56-3.33-17.51-3.33h-22.85v142.99H4.33Z"/>
          <path class="cls-22" d="M171.92,486.54v-176.96h76.57c14.06,0,26.19,2.4,36.4,7.19,10.21,4.79,18.06,11.58,23.54,20.37,5.48,8.79,8.22,19.2,8.22,31.23s-2.81,22.47-8.41,31.06c-5.61,8.59-13.6,15.1-23.98,19.54-10.38,4.44-22.72,6.65-37.03,6.65h-48.83v-33.14h40.8c6.95,0,12.74-.87,17.39-2.61,4.65-1.74,8.16-4.39,10.55-7.96,2.38-3.57,3.58-8.08,3.58-13.54s-1.19-10.13-3.58-13.77c-2.39-3.64-5.92-6.39-10.61-8.25-4.69-1.86-10.5-2.79-17.45-2.79h-22.85v142.99h-44.31ZM274.6,486.54l-45.57-80.88h47.45l46.7,80.88h-48.58Z"/>
          <path class="cls-37" d="M386.45,309.59v176.96h-44.31v-176.96h44.31Z"/>
          <path class="cls-30" d="M414.7,486.54v-23.99l72.68-94.77c5.02-6.57,10.61-13.12,16.76-19.65,6.15-6.53,12.37-13.04,18.64-19.54l3.01,13.54c-8.62.79-17.26,1.27-25.92,1.43-8.66.16-17.34.24-26.05.24h-59.25v-34.2h147.25v24.11l-71.3,92.99c-5.27,6.81-11.11,13.62-17.51,20.43s-12.87,13.62-19.4,20.43l-3.01-13.54c9.29-.79,18.52-1.27,27.68-1.43,9.16-.16,18.35-.24,27.56-.24h56.11v34.2h-147.25Z"/>
          <path class="cls-15" d="M590.07,486.54v-176.96h129.8v34.2h-85.49v36.58h78.71v33.49h-78.71v38.48h85.36v34.2h-129.68Z"/>
        </g>
      </g>
    </g>
  </g>
</svg>